<mxfile host="65bd71144e" pages="18">
    <diagram id="uen0DuhyYdjeaWHxo2o_" name="Private-EP">
        <mxGraphModel dx="35972" dy="18456" grid="1" gridSize="10" guides="1" tooltips="1" connect="1" arrows="1" fold="1" page="0" pageScale="1" pageWidth="850" pageHeight="1100" math="0" shadow="0">
            <root>
                <mxCell id="0"/>
                <mxCell id="1" parent="0"/>
                <mxCell id="344DAT9HO2-L15dEumNX-73" style="edgeStyle=none;shape=connector;sketch=0;hachureGap=1;jumpStyle=none;jumpSize=2;orthogonalLoop=1;jettySize=auto;html=1;shadow=0;labelBackgroundColor=default;strokeColor=#FF0000;strokeWidth=7;fontFamily=Comic Sans MS;fontSize=31;fontColor=#CC6600;startArrow=none;startFill=0;endArrow=classic;endFill=1;endSize=23;targetPerimeterSpacing=1;curved=1;dashed=1;entryX=0.858;entryY=0.342;entryDx=0;entryDy=0;entryPerimeter=0;" parent="1" target="344DAT9HO2-L15dEumNX-31" edge="1" source="344DAT9HO2-L15dEumNX-43">
                    <mxGeometry relative="1" as="geometry">
                        <mxPoint x="-26700" y="-13910" as="sourcePoint"/>
                        <Array as="points">
                            <mxPoint x="-27180" y="-13470"/>
                        </Array>
                    </mxGeometry>
                </mxCell>
                <mxCell id="10" value="" style="edgeStyle=none;shape=connector;sketch=0;hachureGap=1;jumpStyle=none;jumpSize=2;orthogonalLoop=1;jettySize=auto;html=1;shadow=0;labelBackgroundColor=default;strokeColor=#FF0000;strokeWidth=7;fontFamily=Comic Sans MS;fontSize=31;fontColor=#CC6600;startArrow=none;startFill=0;endArrow=none;endFill=1;endSize=23;curved=1;dashed=1;entryX=0.858;entryY=0.342;entryDx=0;entryDy=0;entryPerimeter=0;exitX=0.28;exitY=0.28;exitDx=0;exitDy=0;exitPerimeter=0;" edge="1" parent="1" source="3" target="344DAT9HO2-L15dEumNX-43">
                    <mxGeometry relative="1" as="geometry">
                        <mxPoint x="-26700" y="-13910" as="sourcePoint"/>
                        <Array as="points">
                            <mxPoint x="-26820" y="-13700"/>
                        </Array>
                        <mxPoint x="-27434.038" y="-13535.832999999999" as="targetPoint"/>
                    </mxGeometry>
                </mxCell>
                <mxCell id="344DAT9HO2-L15dEumNX-43" value="" style="image;html=1;image=img/lib/clip_art/networking/Firewall_02_128x128.png;labelBackgroundColor=#FFE6CC;fillStyle=solid;strokeColor=#CC00CC;strokeWidth=5;fontFamily=Comic Sans MS;fontSize=60;fontColor=#FF8000;fillColor=#FFFFCC;gradientColor=#FFCC99;" parent="1" vertex="1">
                    <mxGeometry x="-27090" y="-13630" width="83" height="104" as="geometry"/>
                </mxCell>
                <mxCell id="yHopBrNq2CKKIhyN5AHE-1" value="Hub-spoke" parent="0"/>
                <UserObject label="" tags="" id="344DAT9HO2-L15dEumNX-1">
                    <mxCell style="rounded=0;whiteSpace=wrap;html=1;fillColor=#dae8fc;strokeColor=#007FFF;strokeWidth=5;fontFamily=Comic Sans MS;sketch=1;curveFitting=1;jiggle=2;disableMultiStrokeFill=1;disableMultiStroke=1;fontSize=25;fontColor=#000000;" parent="yHopBrNq2CKKIhyN5AHE-1" vertex="1">
                        <mxGeometry x="-30286" y="-14282" width="300" height="250" as="geometry"/>
                    </mxCell>
                </UserObject>
                <UserObject label="" tags="" id="344DAT9HO2-L15dEumNX-2">
                    <mxCell style="rounded=0;whiteSpace=wrap;html=1;fillColor=#dae8fc;strokeColor=#007FFF;strokeWidth=5;fontFamily=Comic Sans MS;sketch=1;curveFitting=1;jiggle=2;disableMultiStrokeFill=1;disableMultiStroke=1;fontSize=25;fontColor=#000000;" parent="yHopBrNq2CKKIhyN5AHE-1" vertex="1">
                        <mxGeometry x="-29866" y="-14282" width="290" height="250" as="geometry"/>
                    </mxCell>
                </UserObject>
                <UserObject label="" tags="" id="344DAT9HO2-L15dEumNX-3">
                    <mxCell style="rounded=0;whiteSpace=wrap;html=1;fillColor=#dae8fc;strokeColor=#007FFF;strokeWidth=5;fontFamily=Comic Sans MS;sketch=1;curveFitting=1;jiggle=2;disableMultiStroke=1;disableMultiStrokeFill=1;fontSize=25;fontColor=#000000;" parent="yHopBrNq2CKKIhyN5AHE-1" vertex="1">
                        <mxGeometry x="-30240" y="-13838" width="690" height="708" as="geometry"/>
                    </mxCell>
                </UserObject>
                <UserObject label="&lt;b style=&quot;font-size: 42px;&quot;&gt;HUB&lt;br&gt;172.16.0.0/16&lt;br&gt;&lt;/b&gt;" tags="" id="344DAT9HO2-L15dEumNX-4">
                    <mxCell style="text;html=1;align=center;verticalAlign=middle;resizable=0;points=[];autosize=1;strokeColor=none;fillColor=none;fontSize=42;fontFamily=Comic Sans MS;fontColor=#000000;strokeWidth=5;" parent="yHopBrNq2CKKIhyN5AHE-1" vertex="1">
                        <mxGeometry x="-30088" y="-13841" width="338" height="117" as="geometry"/>
                    </mxCell>
                </UserObject>
                <UserObject label="" tags="" id="344DAT9HO2-L15dEumNX-5">
                    <mxCell style="aspect=fixed;html=1;points=[];align=center;image;fontSize=31;image=img/lib/azure2/compute/Kubernetes_Services.svg;rounded=0;glass=0;labelBackgroundColor=default;sketch=0;fillStyle=hachure;strokeWidth=5;fontFamily=Comic Sans MS;fontColor=#000000;fillColor=none;opacity=70;fontStyle=1" parent="yHopBrNq2CKKIhyN5AHE-1" vertex="1">
                        <mxGeometry x="-30265" y="-14273" width="68" height="60" as="geometry"/>
                    </mxCell>
                </UserObject>
                <UserObject label="" tags="" id="344DAT9HO2-L15dEumNX-6">
                    <mxCell style="aspect=fixed;html=1;points=[];align=center;image;fontSize=31;image=img/lib/azure2/networking/Virtual_Networks.svg;rounded=0;glass=0;labelBackgroundColor=#66B2FF;sketch=1;fillStyle=hachure;fontFamily=Comic Sans MS;fontColor=#000000;opacity=70;strokeWidth=5;fontStyle=1" parent="yHopBrNq2CKKIhyN5AHE-1" vertex="1">
                        <mxGeometry x="-30083" y="-14260" width="67" height="40" as="geometry"/>
                    </mxCell>
                </UserObject>
                <UserObject label="" tags="" id="344DAT9HO2-L15dEumNX-7">
                    <mxCell style="aspect=fixed;html=1;points=[];align=center;image;fontSize=31;image=img/lib/azure2/compute/Virtual_Machine.svg;rounded=0;glass=0;labelBackgroundColor=default;sketch=0;fillStyle=hachure;strokeWidth=5;fontFamily=Comic Sans MS;fontColor=#000000;fillColor=none;opacity=70;fontStyle=1" parent="yHopBrNq2CKKIhyN5AHE-1" vertex="1">
                        <mxGeometry x="-29836" y="-14273" width="69" height="64" as="geometry"/>
                    </mxCell>
                </UserObject>
                <UserObject label="" tags="" id="344DAT9HO2-L15dEumNX-8">
                    <mxCell style="aspect=fixed;html=1;points=[];align=center;image;fontSize=31;image=img/lib/azure2/networking/Virtual_Networks.svg;rounded=0;glass=0;labelBackgroundColor=#66B2FF;sketch=1;fillStyle=hachure;fontFamily=Comic Sans MS;fontColor=#000000;opacity=70;strokeWidth=5;fontStyle=1" parent="yHopBrNq2CKKIhyN5AHE-1" vertex="1">
                        <mxGeometry x="-29676" y="-14264" width="67" height="40" as="geometry"/>
                    </mxCell>
                </UserObject>
                <UserObject label="&lt;font face=&quot;Comic Sans MS&quot; style=&quot;font-size: 31px;&quot;&gt;Spoke1&lt;/font&gt;" tags="" id="344DAT9HO2-L15dEumNX-9">
                    <mxCell style="text;html=1;align=center;verticalAlign=middle;resizable=0;points=[];autosize=1;strokeColor=none;fillColor=none;strokeWidth=5;fontFamily=Comic Sans MS;fontSize=31;fontColor=#000000;fontStyle=1" parent="yHopBrNq2CKKIhyN5AHE-1" vertex="1">
                        <mxGeometry x="-30213" y="-14226" width="135" height="60" as="geometry"/>
                    </mxCell>
                </UserObject>
                <UserObject label="&lt;font face=&quot;Comic Sans MS&quot; style=&quot;font-size: 31px;&quot;&gt;Spoke2&lt;/font&gt;" tags="" id="344DAT9HO2-L15dEumNX-10">
                    <mxCell style="text;html=1;align=center;verticalAlign=middle;resizable=0;points=[];autosize=1;strokeColor=none;fillColor=none;strokeWidth=5;fontFamily=Comic Sans MS;fontSize=31;fontColor=#000000;fontStyle=1" parent="yHopBrNq2CKKIhyN5AHE-1" vertex="1">
                        <mxGeometry x="-29778" y="-14213" width="135" height="60" as="geometry"/>
                    </mxCell>
                </UserObject>
                <UserObject label="&lt;font face=&quot;Comic Sans MS&quot; style=&quot;font-size: 31px;&quot;&gt;Spoke1&lt;/font&gt;" tags="" id="344DAT9HO2-L15dEumNX-11">
                    <mxCell style="text;html=1;align=center;verticalAlign=middle;resizable=0;points=[];autosize=1;strokeColor=none;fillColor=none;strokeWidth=5;fontFamily=Comic Sans MS;fontSize=31;fontColor=#000000;fontStyle=1" parent="yHopBrNq2CKKIhyN5AHE-1" vertex="1">
                        <mxGeometry x="-30213" y="-14226" width="135" height="60" as="geometry"/>
                    </mxCell>
                </UserObject>
                <UserObject label="" tags="" id="344DAT9HO2-L15dEumNX-12">
                    <mxCell style="aspect=fixed;html=1;points=[];align=center;image;fontSize=12;image=img/lib/azure2/networking/Virtual_Networks.svg;rounded=0;glass=0;labelBackgroundColor=#66B2FF;sketch=1;fillStyle=hachure;fontFamily=Comic Sans MS;fontColor=#000000;opacity=70;strokeWidth=5;" parent="yHopBrNq2CKKIhyN5AHE-1" vertex="1">
                        <mxGeometry x="-29653" y="-13819" width="67" height="40" as="geometry"/>
                    </mxCell>
                </UserObject>
                <UserObject label="" tags="" id="344DAT9HO2-L15dEumNX-13">
                    <mxCell style="aspect=fixed;html=1;points=[];align=center;image;fontSize=31;image=img/lib/azure2/networking/Virtual_Network_Gateways.svg;rounded=0;glass=0;labelBackgroundColor=#66B2FF;sketch=1;fillStyle=hachure;fontFamily=Comic Sans MS;fontColor=#000000;opacity=70;strokeWidth=5;" parent="yHopBrNq2CKKIhyN5AHE-1" vertex="1">
                        <mxGeometry x="-30053" y="-13246" width="52" height="69" as="geometry"/>
                    </mxCell>
                </UserObject>
                <UserObject label="&lt;b style=&quot;font-size: 31px;&quot;&gt;VPN GW&lt;/b&gt;" tags="" id="344DAT9HO2-L15dEumNX-14">
                    <mxCell style="text;html=1;align=center;verticalAlign=middle;resizable=0;points=[];autosize=1;strokeColor=none;fillColor=none;fontSize=31;fontFamily=Comic Sans MS;fontColor=#000000;strokeWidth=5;" parent="yHopBrNq2CKKIhyN5AHE-1" vertex="1">
                        <mxGeometry x="-30106" y="-13296" width="165" height="60" as="geometry"/>
                    </mxCell>
                </UserObject>
                <UserObject label="" tags="" id="344DAT9HO2-L15dEumNX-15">
                    <mxCell style="aspect=fixed;html=1;points=[];align=center;image;fontSize=31;image=img/lib/azure2/networking/Virtual_Network_Gateways.svg;rounded=0;glass=0;labelBackgroundColor=default;sketch=0;fillStyle=auto;strokeColor=#000000;strokeWidth=5;fontFamily=Comic Sans MS;fontColor=#000000;fillColor=none;gradientColor=none;opacity=70;" parent="yHopBrNq2CKKIhyN5AHE-1" vertex="1">
                        <mxGeometry x="-29823" y="-13246" width="52" height="69" as="geometry"/>
                    </mxCell>
                </UserObject>
                <UserObject label="&lt;span style=&quot;font-size: 31px;&quot;&gt;&lt;b&gt;ER GW&lt;/b&gt;&lt;/span&gt;" tags="" id="344DAT9HO2-L15dEumNX-16">
                    <mxCell style="text;html=1;align=center;verticalAlign=middle;resizable=0;points=[];autosize=1;strokeColor=none;fillColor=none;fontSize=31;fontFamily=Comic Sans MS;fontColor=#000000;strokeWidth=5;" parent="yHopBrNq2CKKIhyN5AHE-1" vertex="1">
                        <mxGeometry x="-29859" y="-13294" width="130" height="50" as="geometry"/>
                    </mxCell>
                </UserObject>
                <UserObject label="&lt;font style=&quot;font-size: 31px;&quot;&gt;&lt;b style=&quot;font-size: 31px;&quot;&gt;Gateway Subnet&lt;/b&gt;&lt;/font&gt;" tags="" id="344DAT9HO2-L15dEumNX-17">
                    <mxCell style="text;html=1;align=center;verticalAlign=middle;resizable=0;points=[];autosize=1;strokeColor=none;fillColor=none;fontSize=31;fontFamily=Comic Sans MS;fontColor=#000000;strokeWidth=5;" parent="yHopBrNq2CKKIhyN5AHE-1" vertex="1">
                        <mxGeometry x="-30043" y="-13200" width="270" height="60" as="geometry"/>
                    </mxCell>
                </UserObject>
                <UserObject label="" tags="" id="344DAT9HO2-L15dEumNX-19">
                    <mxCell style="edgeStyle=none;shape=connector;rounded=0;orthogonalLoop=1;jettySize=auto;html=1;exitX=0.5;exitY=1;exitDx=0;exitDy=0;entryX=0.634;entryY=0.001;entryDx=0;entryDy=0;entryPerimeter=0;labelBackgroundColor=default;strokeColor=#3399FF;strokeWidth=5;fontFamily=Comic Sans MS;fontSize=25;fontColor=default;startArrow=diamond;startFill=1;endArrow=diamond;endFill=1;shadow=0;sketch=0;hachureGap=1;targetPerimeterSpacing=1;jumpStyle=none;jumpSize=2;" parent="yHopBrNq2CKKIhyN5AHE-1" source="344DAT9HO2-L15dEumNX-2" target="344DAT9HO2-L15dEumNX-3" edge="1">
                        <mxGeometry relative="1" as="geometry"/>
                    </mxCell>
                </UserObject>
                <UserObject label="" tags="" id="344DAT9HO2-L15dEumNX-20">
                    <mxCell style="edgeStyle=none;shape=connector;rounded=0;orthogonalLoop=1;jettySize=auto;html=1;exitX=0.5;exitY=1;exitDx=0;exitDy=0;entryX=0.267;entryY=0.001;entryDx=0;entryDy=0;entryPerimeter=0;labelBackgroundColor=default;strokeColor=#3399FF;strokeWidth=5;fontFamily=Comic Sans MS;fontSize=25;fontColor=default;startArrow=diamond;startFill=1;endArrow=diamond;endFill=1;shadow=0;sketch=0;hachureGap=1;targetPerimeterSpacing=1;jumpStyle=none;jumpSize=2;" parent="yHopBrNq2CKKIhyN5AHE-1" source="344DAT9HO2-L15dEumNX-1" target="344DAT9HO2-L15dEumNX-3" edge="1">
                        <mxGeometry relative="1" as="geometry"/>
                    </mxCell>
                </UserObject>
                <UserObject label="" tags="" id="344DAT9HO2-L15dEumNX-21">
                    <mxCell style="edgeStyle=none;sketch=0;jumpStyle=none;jumpSize=2;orthogonalLoop=1;jettySize=auto;html=1;entryX=1.007;entryY=0.13;entryDx=0;entryDy=0;shadow=0;strokeColor=#3399FF;strokeWidth=5;fontFamily=Comic Sans MS;fontSize=25;fontColor=#000000;startArrow=none;startFill=0;endArrow=none;endFill=0;rounded=0;labelBackgroundColor=default;hachureGap=1;targetPerimeterSpacing=1;shape=connector;entryPerimeter=0;" parent="yHopBrNq2CKKIhyN5AHE-1" edge="1">
                        <mxGeometry relative="1" as="geometry">
                            <mxPoint x="-30240" y="-13715" as="sourcePoint"/>
                            <mxPoint x="-29545.17" y="-13715.210000000001" as="targetPoint"/>
                        </mxGeometry>
                    </mxCell>
                </UserObject>
                <UserObject label="" tags="" id="344DAT9HO2-L15dEumNX-22">
                    <mxCell style="edgeStyle=none;sketch=0;jumpStyle=none;jumpSize=2;orthogonalLoop=1;jettySize=auto;html=1;entryX=1.007;entryY=0.13;entryDx=0;entryDy=0;shadow=0;strokeColor=#3399FF;strokeWidth=5;fontFamily=Comic Sans MS;fontSize=25;fontColor=#000000;startArrow=none;startFill=0;endArrow=none;endFill=0;rounded=0;labelBackgroundColor=default;hachureGap=1;targetPerimeterSpacing=1;shape=connector;entryPerimeter=0;" parent="yHopBrNq2CKKIhyN5AHE-1" edge="1">
                        <mxGeometry relative="1" as="geometry">
                            <mxPoint x="-30240" y="-13604.79" as="sourcePoint"/>
                            <mxPoint x="-29545.17" y="-13605" as="targetPoint"/>
                        </mxGeometry>
                    </mxCell>
                </UserObject>
                <UserObject label="" tags="" id="344DAT9HO2-L15dEumNX-23">
                    <mxCell style="edgeStyle=none;sketch=0;jumpStyle=none;jumpSize=2;orthogonalLoop=1;jettySize=auto;html=1;entryX=1.007;entryY=0.13;entryDx=0;entryDy=0;shadow=0;strokeColor=#3399FF;strokeWidth=5;fontFamily=Comic Sans MS;fontSize=31;fontColor=#000000;startArrow=none;startFill=0;endArrow=none;endFill=0;rounded=0;labelBackgroundColor=default;hachureGap=1;targetPerimeterSpacing=1;shape=connector;entryPerimeter=0;" parent="yHopBrNq2CKKIhyN5AHE-1" edge="1">
                        <mxGeometry relative="1" as="geometry">
                            <mxPoint x="-30240" y="-13304.79" as="sourcePoint"/>
                            <mxPoint x="-29545.17" y="-13305" as="targetPoint"/>
                        </mxGeometry>
                    </mxCell>
                </UserObject>
                <UserObject label="&lt;font style=&quot;font-size: 31px;&quot;&gt;&lt;b style=&quot;font-size: 36px;&quot;&gt;&lt;font style=&quot;font-size: 36px;&quot; color=&quot;#ff8000&quot;&gt;Private Link Subnet&lt;br&gt;172.16.251.0/24&lt;/font&gt;&lt;br&gt;&lt;/b&gt;&lt;/font&gt;" tags="" id="344DAT9HO2-L15dEumNX-24">
                    <mxCell style="text;html=1;align=center;verticalAlign=middle;resizable=0;points=[];autosize=1;strokeColor=none;fillColor=none;fontSize=31;fontFamily=Comic Sans MS;fontColor=#000000;strokeWidth=5;" parent="yHopBrNq2CKKIhyN5AHE-1" vertex="1">
                        <mxGeometry x="-30130" y="-13560" width="370" height="100" as="geometry"/>
                    </mxCell>
                </UserObject>
                <UserObject label="" tags="" id="344DAT9HO2-L15dEumNX-27">
                    <mxCell style="rounded=0;whiteSpace=wrap;html=1;fillColor=#FFCC99;strokeColor=#FF8000;strokeWidth=5;sketch=1;curveFitting=1;jiggle=2;disableMultiStroke=1;disableMultiStrokeFill=1;" parent="yHopBrNq2CKKIhyN5AHE-1" vertex="1">
                        <mxGeometry x="-30430" y="-12840" width="440" height="410" as="geometry"/>
                    </mxCell>
                </UserObject>
                <UserObject label="" tags="" id="344DAT9HO2-L15dEumNX-28">
                    <mxCell style="edgeStyle=none;shape=connector;rounded=0;orthogonalLoop=1;jettySize=auto;html=1;entryX=0.181;entryY=0.912;entryDx=0;entryDy=0;entryPerimeter=0;labelBackgroundColor=default;strokeColor=#3399FF;strokeWidth=5;fontFamily=Comic Sans MS;fontSize=25;fontColor=default;startArrow=diamond;startFill=1;endArrow=diamond;endFill=1;exitX=0.5;exitY=0;exitDx=0;exitDy=0;" parent="yHopBrNq2CKKIhyN5AHE-1" source="344DAT9HO2-L15dEumNX-27" edge="1">
                        <mxGeometry relative="1" as="geometry">
                            <mxPoint x="-30042.588" y="-13195.002" as="targetPoint"/>
                            <mxPoint x="-29796" y="-12623.626953125" as="sourcePoint"/>
                        </mxGeometry>
                    </mxCell>
                </UserObject>
                <UserObject label="&lt;font size=&quot;1&quot; style=&quot;&quot;&gt;&lt;b style=&quot;font-size: 42px;&quot;&gt;Branch2&lt;/b&gt;&lt;/font&gt;" tags="" id="344DAT9HO2-L15dEumNX-29">
                    <mxCell style="text;html=1;align=center;verticalAlign=middle;resizable=0;points=[];autosize=1;strokeColor=none;fillColor=none;fontSize=25;fontFamily=Comic Sans MS;fontColor=rgb(0, 0, 0);strokeWidth=5;" parent="yHopBrNq2CKKIhyN5AHE-1" vertex="1">
                        <mxGeometry x="-30393" y="-12680" width="195" height="65" as="geometry"/>
                    </mxCell>
                </UserObject>
                <UserObject label="" tags="" id="344DAT9HO2-L15dEumNX-30">
                    <mxCell style="shape=mxgraph.cisco.buildings.branch_office;html=1;pointerEvents=1;dashed=0;fillColor=#036897;strokeColor=#ffffff;strokeWidth=5;verticalLabelPosition=bottom;verticalAlign=top;align=center;outlineConnect=0;rounded=0;glass=0;labelBackgroundColor=default;sketch=0;fillStyle=auto;fontFamily=Comic Sans MS;fontSize=25;fontColor=#000000;opacity=70;" parent="yHopBrNq2CKKIhyN5AHE-1" vertex="1">
                        <mxGeometry x="-30165" y="-12685" width="51" height="75" as="geometry"/>
                    </mxCell>
                </UserObject>
                <mxCell id="344DAT9HO2-L15dEumNX-70" value="&lt;span style=&quot;color: rgba(0, 0, 0, 0); font-family: monospace; font-size: 0px; text-align: start;&quot;&gt;%3CmxGraphModel%3E%3Croot%3E%3CmxCell%20id%3D%220%22%2F%3E%3CmxCell%20id%3D%221%22%20parent%3D%220%22%2F%3E%3CUserObject%20label%3D%22%22%20tags%3D%22%22%20id%3D%222%22%3E%3CmxCell%20style%3D%22rounded%3D0%3BwhiteSpace%3Dwrap%3Bhtml%3D1%3BfillColor%3D%23FFCC99%3BstrokeColor%3D%23CC6600%3BstrokeWidth%3D4%3Bsketch%3D1%3BcurveFitting%3D1%3Bjiggle%3D2%3BdisableMultiStroke%3D1%3BdisableMultiStrokeFill%3D1%3B%22%20vertex%3D%221%22%20parent%3D%221%22%3E%3CmxGeometry%20x%3D%22-3718%22%20y%3D%22140.07%22%20width%3D%22390%22%20height%3D%22410%22%20as%3D%22geometry%22%2F%3E%3C%2FmxCell%3E%3C%2FUserObject%3E%3CUserObject%20label%3D%22%22%20tags%3D%22%22%20id%3D%223%22%3E%3CmxCell%20style%3D%22edgeStyle%3Dnone%3Bshape%3Dconnector%3Brounded%3D0%3BorthogonalLoop%3D1%3BjettySize%3Dauto%3Bhtml%3D1%3BexitX%3D0.5%3BexitY%3D0%3BexitDx%3D0%3BexitDy%3D0%3BentryX%3D0.181%3BentryY%3D0.912%3BentryDx%3D0%3BentryDy%3D0%3BentryPerimeter%3D0%3BlabelBackgroundColor%3Ddefault%3BstrokeColor%3D%233399FF%3BstrokeWidth%3D4%3BfontFamily%3DComic%20Sans%20MS%3BfontSize%3D25%3BfontColor%3Ddefault%3BstartArrow%3Ddiamond%3BstartFill%3D1%3BendArrow%3Ddiamond%3BendFill%3D1%3B%22%20edge%3D%221%22%20source%3D%222%22%20parent%3D%221%22%3E%3CmxGeometry%20relative%3D%221%22%20as%3D%22geometry%22%3E%3CmxPoint%20x%3D%22-3275.5879999999997%22%20y%3D%22-161.0020000000004%22%20as%3D%22targetPoint%22%2F%3E%3C%2FmxGeometry%3E%3C%2FmxCell%3E%3C%2FUserObject%3E%3CUserObject%20label%3D%22Branch2%22%20tags%3D%22%22%20id%3D%224%22%3E%3CmxCell%20style%3D%22text%3Bhtml%3D1%3Balign%3Dcenter%3BverticalAlign%3Dmiddle%3Bresizable%3D0%3Bpoints%3D%5B%5D%3Bautosize%3D1%3BstrokeColor%3Dnone%3BfillColor%3Dnone%3BfontSize%3D25%3BfontFamily%3DComic%20Sans%20MS%3BfontColor%3Drgb(0%2C%200%2C%200)%3B%22%20vertex%3D%221%22%20parent%3D%221%22%3E%3CmxGeometry%20x%3D%22-3679%22%20y%3D%22463.07%22%20width%3D%22130%22%20height%3D%2239%22%20as%3D%22geometry%22%2F%3E%3C%2FmxCell%3E%3C%2FUserObject%3E%3CUserObject%20label%3D%22%22%20tags%3D%22%22%20id%3D%225%22%3E%3CmxCell%20style%3D%22shape%3Dmxgraph.cisco.buildings.branch_office%3Bhtml%3D1%3BpointerEvents%3D1%3Bdashed%3D0%3BfillColor%3D%23036897%3BstrokeColor%3D%23ffffff%3BstrokeWidth%3D2%3BverticalLabelPosition%3Dbottom%3BverticalAlign%3Dtop%3Balign%3Dcenter%3BoutlineConnect%3D0%3Brounded%3D0%3Bglass%3D0%3BlabelBackgroundColor%3Ddefault%3Bsketch%3D0%3BfillStyle%3Dauto%3BfontFamily%3DComic%20Sans%20MS%3BfontSize%3D25%3BfontColor%3D%23000000%3Bopacity%3D70%3B%22%20vertex%3D%221%22%20parent%3D%221%22%3E%3CmxGeometry%20x%3D%22-3483%22%20y%3D%22445.07%22%20width%3D%2251%22%20height%3D%2275%22%20as%3D%22geometry%22%2F%3E%3C%2FmxCell%3E%3C%2FUserObject%3E%3C%2Froot%3E%3C%2FmxGraphModel%3E&lt;/span&gt;" style="text;html=1;align=center;verticalAlign=middle;resizable=0;points=[];autosize=1;strokeColor=none;fillColor=none;fontSize=60;fontFamily=Comic Sans MS;fontColor=#FF8000;strokeWidth=5;" parent="yHopBrNq2CKKIhyN5AHE-1" vertex="1">
                    <mxGeometry x="-30223" y="-12936.07" width="26" height="91" as="geometry"/>
                </mxCell>
                <mxCell id="344DAT9HO2-L15dEumNX-71" style="edgeStyle=none;shape=connector;sketch=0;hachureGap=1;jumpStyle=none;jumpSize=2;orthogonalLoop=1;jettySize=auto;html=1;shadow=0;labelBackgroundColor=default;strokeColor=#00CC00;strokeWidth=5;fontFamily=Comic Sans MS;fontSize=60;fontColor=#FF8000;startArrow=none;startFill=0;endArrow=classic;endFill=1;endSize=33;targetPerimeterSpacing=1;curved=1;dashed=1;entryX=-0.008;entryY=0.398;entryDx=0;entryDy=0;entryPerimeter=0;" parent="yHopBrNq2CKKIhyN5AHE-1" target="344DAT9HO2-L15dEumNX-69" edge="1">
                    <mxGeometry relative="1" as="geometry">
                        <mxPoint x="-29666" y="-13507" as="targetPoint"/>
                        <Array as="points">
                            <mxPoint x="-30238" y="-13377"/>
                        </Array>
                        <mxPoint x="-30350" y="-12870" as="sourcePoint"/>
                    </mxGeometry>
                </mxCell>
                <mxCell id="344DAT9HO2-L15dEumNX-72" style="edgeStyle=none;shape=connector;sketch=0;hachureGap=1;jumpStyle=none;jumpSize=2;orthogonalLoop=1;jettySize=auto;html=1;exitX=0.75;exitY=1;exitDx=0;exitDy=0;entryX=0.074;entryY=0.746;entryDx=0;entryDy=0;entryPerimeter=0;shadow=0;labelBackgroundColor=default;strokeColor=#00CC00;strokeWidth=5;fontFamily=Comic Sans MS;fontSize=60;fontColor=#FF8000;startArrow=none;startFill=0;endArrow=classic;endFill=1;endSize=33;targetPerimeterSpacing=1;dashed=1;curved=1;" parent="yHopBrNq2CKKIhyN5AHE-1" source="344DAT9HO2-L15dEumNX-1" target="344DAT9HO2-L15dEumNX-42" edge="1">
                    <mxGeometry relative="1" as="geometry">
                        <Array as="points">
                            <mxPoint x="-29913" y="-13637"/>
                        </Array>
                    </mxGeometry>
                </mxCell>
                <UserObject label="&lt;font style=&quot;font-weight: normal; font-size: 52px;&quot;&gt;Internet&lt;/font&gt;" tags="" id="344DAT9HO2-L15dEumNX-26">
                    <mxCell style="ellipse;shape=cloud;whiteSpace=wrap;html=1;rounded=0;glass=0;labelBackgroundColor=default;sketch=0;fillStyle=auto;strokeColor=#000000;strokeWidth=8;fontFamily=Comic Sans MS;fontSize=31;fontColor=#000000;fillColor=none;gradientColor=none;opacity=70;fontStyle=1" parent="yHopBrNq2CKKIhyN5AHE-1" vertex="1">
                        <mxGeometry x="-29440" y="-15280" width="1080" height="184" as="geometry"/>
                    </mxCell>
                </UserObject>
                <mxCell id="344DAT9HO2-L15dEumNX-25" value="" style="verticalLabelPosition=bottom;html=1;verticalAlign=top;align=center;strokeColor=none;fillColor=#00BEF2;shape=mxgraph.azure.user;dashed=1;strokeWidth=2;fontFamily=Comic Sans MS;fontSize=31;fontColor=#CC6600;" parent="yHopBrNq2CKKIhyN5AHE-1" vertex="1">
                    <mxGeometry x="-28845" y="-15371" width="77" height="75" as="geometry"/>
                </mxCell>
                <mxCell id="344DAT9HO2-L15dEumNX-32" value="" style="whiteSpace=wrap;html=1;strokeWidth=5;fontFamily=Comic Sans MS;fontSize=25;fontColor=#000000;dashed=1;strokeColor=#FF8000;labelBackgroundColor=default;gradientColor=#FFCC99;fillColor=#FFFFCC;" parent="yHopBrNq2CKKIhyN5AHE-1" vertex="1">
                    <mxGeometry x="-29280" y="-15040" width="255" height="2417" as="geometry"/>
                </mxCell>
                <mxCell id="344DAT9HO2-L15dEumNX-34" value="&lt;font style=&quot;font-size: 80px;&quot;&gt;Private Link&lt;/font&gt;" style="text;html=1;align=center;verticalAlign=middle;resizable=0;points=[];autosize=1;strokeColor=none;fillColor=none;fontSize=80;fontFamily=Comic Sans MS;fontColor=#000000;dashed=1;strokeWidth=5;horizontal=0;" parent="yHopBrNq2CKKIhyN5AHE-1" vertex="1">
                    <mxGeometry x="-29216" y="-14190" width="120" height="450" as="geometry"/>
                </mxCell>
                <mxCell id="4AvktXgrA5gxaSknrlmU-3" value="" style="whiteSpace=wrap;html=1;sketch=1;hachureGap=4;jiggle=2;curveFitting=1;fontFamily=Comic Sans MS;fontSource=https%3A%2F%2Ffonts.googleapis.com%2Fcss%3Ffamily%3DArchitects%2BDaughter;fontSize=25;fillColor=#FFFFCC;strokeColor=#FF8000;fontColor=#000000;strokeWidth=5;dashed=1;labelBackgroundColor=default;gradientColor=#FFCC99;" parent="yHopBrNq2CKKIhyN5AHE-1" vertex="1">
                    <mxGeometry x="-28230" y="-15325" width="510" height="180" as="geometry"/>
                </mxCell>
                <mxCell id="4AvktXgrA5gxaSknrlmU-4" value="&lt;font style=&quot;font-size: 45px;&quot;&gt;&lt;span style=&quot;font-size: 45px;&quot;&gt;Provider&lt;/span&gt;&lt;/font&gt;" style="text;html=1;align=center;verticalAlign=middle;resizable=0;points=[];autosize=1;strokeColor=none;fillColor=none;fontSize=45;fontFamily=Comic Sans MS;sketch=1;hachureGap=4;jiggle=2;curveFitting=1;strokeWidth=2;fontStyle=1" parent="yHopBrNq2CKKIhyN5AHE-1" vertex="1">
                    <mxGeometry x="-28075" y="-15275" width="200" height="70" as="geometry"/>
                </mxCell>
                <mxCell id="4AvktXgrA5gxaSknrlmU-1" value="" style="whiteSpace=wrap;html=1;sketch=1;hachureGap=4;jiggle=2;curveFitting=1;fontFamily=Comic Sans MS;fontSource=https%3A%2F%2Ffonts.googleapis.com%2Fcss%3Ffamily%3DArchitects%2BDaughter;fontSize=25;fillColor=#FFFFCC;strokeColor=#FF8000;fontColor=#000000;strokeWidth=5;dashed=1;labelBackgroundColor=default;gradientColor=#FFCC99;" parent="yHopBrNq2CKKIhyN5AHE-1" vertex="1">
                    <mxGeometry x="-30480" y="-15320" width="510" height="180" as="geometry"/>
                </mxCell>
                <mxCell id="4AvktXgrA5gxaSknrlmU-2" value="&lt;font style=&quot;font-size: 45px;&quot;&gt;&lt;span style=&quot;font-size: 45px;&quot;&gt;Consumer&lt;/span&gt;&lt;/font&gt;" style="text;html=1;align=center;verticalAlign=middle;resizable=0;points=[];autosize=1;strokeColor=none;fillColor=none;fontSize=45;fontFamily=Comic Sans MS;sketch=1;hachureGap=4;jiggle=2;curveFitting=1;strokeWidth=2;fontStyle=1" parent="yHopBrNq2CKKIhyN5AHE-1" vertex="1">
                    <mxGeometry x="-30340" y="-15270" width="230" height="70" as="geometry"/>
                </mxCell>
                <mxCell id="yHopBrNq2CKKIhyN5AHE-2" value="Private-EP" parent="0"/>
                <mxCell id="344DAT9HO2-L15dEumNX-31" value="" style="rounded=0;whiteSpace=wrap;html=1;glass=0;labelBackgroundColor=none;labelBorderColor=none;comic=0;sketch=1;jiggle=2;fillStyle=auto;curveFitting=1;sketchStyle=rough;strokeColor=#006600;strokeWidth=7;fontFamily=Comic Sans MS;fontSize=25;fontColor=rgb(0, 0, 0);fillColor=#d5e8d4;gradientColor=none;disableMultiStrokeFill=1;disableMultiStroke=1;align=left;" parent="yHopBrNq2CKKIhyN5AHE-2" vertex="1">
                    <mxGeometry x="-28540" y="-13720" width="1289" height="538.5" as="geometry"/>
                </mxCell>
                <mxCell id="344DAT9HO2-L15dEumNX-36" value="" style="aspect=fixed;html=1;points=[];align=center;image;fontSize=12;image=img/lib/azure2/storage/Storage_Accounts_Classic.svg;dashed=1;strokeColor=#FF8000;strokeWidth=5;fontFamily=Comic Sans MS;fontColor=#CC6600;" parent="yHopBrNq2CKKIhyN5AHE-2" vertex="1">
                    <mxGeometry x="-28410" y="-13670" width="131.25" height="105" as="geometry"/>
                </mxCell>
                <mxCell id="344DAT9HO2-L15dEumNX-38" value="&lt;font style=&quot;font-size: 60px;&quot;&gt;Azure PaaS Service&lt;/font&gt;" style="text;whiteSpace=wrap;html=1;fontSize=25;fontFamily=Comic Sans MS;fontColor=#000000;fontStyle=0;strokeWidth=5;labelBackgroundColor=#FFFF66;" parent="yHopBrNq2CKKIhyN5AHE-2" vertex="1">
                    <mxGeometry x="-28240" y="-13800" width="630" height="60" as="geometry"/>
                </mxCell>
                <mxCell id="344DAT9HO2-L15dEumNX-39" value="" style="aspect=fixed;html=1;points=[];align=center;image;fontSize=12;image=img/lib/azure2/databases/Azure_SQL.svg;dashed=1;strokeColor=#FF8000;strokeWidth=5;fontFamily=Comic Sans MS;fontColor=#CC6600;" parent="yHopBrNq2CKKIhyN5AHE-2" vertex="1">
                    <mxGeometry x="-28210" y="-13670" width="137.74" height="99" as="geometry"/>
                </mxCell>
                <mxCell id="344DAT9HO2-L15dEumNX-40" style="edgeStyle=none;shape=connector;rounded=0;sketch=0;hachureGap=1;jumpStyle=none;jumpSize=2;orthogonalLoop=1;jettySize=auto;html=1;exitX=0;exitY=0.25;exitDx=0;exitDy=0;shadow=0;labelBackgroundColor=default;strokeColor=#007FFF;strokeWidth=5;fontFamily=Comic Sans MS;fontSize=31;fontColor=#CC6600;startArrow=none;startFill=0;endArrow=diamond;endFill=1;endSize=23;targetPerimeterSpacing=1;" parent="yHopBrNq2CKKIhyN5AHE-2" source="344DAT9HO2-L15dEumNX-31" target="344DAT9HO2-L15dEumNX-31" edge="1">
                    <mxGeometry relative="1" as="geometry"/>
                </mxCell>
                <mxCell id="344DAT9HO2-L15dEumNX-41" style="edgeStyle=none;shape=connector;rounded=0;sketch=0;hachureGap=1;jumpStyle=none;jumpSize=2;orthogonalLoop=1;jettySize=auto;html=1;exitX=0;exitY=0.25;exitDx=0;exitDy=0;shadow=0;labelBackgroundColor=default;strokeColor=#007FFF;strokeWidth=5;fontFamily=Comic Sans MS;fontSize=31;fontColor=#CC6600;startArrow=none;startFill=0;endArrow=diamond;endFill=1;endSize=23;targetPerimeterSpacing=1;" parent="yHopBrNq2CKKIhyN5AHE-2" source="344DAT9HO2-L15dEumNX-31" target="344DAT9HO2-L15dEumNX-31" edge="1">
                    <mxGeometry relative="1" as="geometry"/>
                </mxCell>
                <mxCell id="344DAT9HO2-L15dEumNX-37" style="edgeStyle=none;shape=connector;rounded=0;sketch=0;hachureGap=1;jumpStyle=none;jumpSize=2;orthogonalLoop=1;jettySize=auto;html=1;shadow=0;labelBackgroundColor=default;strokeColor=#FF8000;strokeWidth=5;fontFamily=Comic Sans MS;fontSize=31;fontColor=#CC6600;startArrow=none;startFill=0;endArrow=oval;endFill=1;targetPerimeterSpacing=1;endSize=23;exitX=0.028;exitY=0.348;exitDx=0;exitDy=0;exitPerimeter=0;" parent="yHopBrNq2CKKIhyN5AHE-2" source="344DAT9HO2-L15dEumNX-36" edge="1">
                    <mxGeometry relative="1" as="geometry">
                        <mxPoint x="-28656.941176470587" y="-14355" as="sourcePoint"/>
                        <mxPoint x="-29562" y="-13515" as="targetPoint"/>
                        <Array as="points"/>
                    </mxGeometry>
                </mxCell>
                <mxCell id="344DAT9HO2-L15dEumNX-42" value="&lt;font color=&quot;#ff8000&quot;&gt;&lt;b&gt;.4&lt;/b&gt;&lt;/font&gt;" style="text;html=1;align=center;verticalAlign=middle;resizable=0;points=[];autosize=1;strokeColor=none;fillColor=none;fontSize=48;fontFamily=Comic Sans MS;fontColor=#CC00CC;strokeWidth=5;" parent="yHopBrNq2CKKIhyN5AHE-2" vertex="1">
                    <mxGeometry x="-29661" y="-13546" width="78" height="78" as="geometry"/>
                </mxCell>
                <mxCell id="0INBZHWIvS8p_B03CbXm-10" value="" style="aspect=fixed;html=1;points=[];align=center;image;fontSize=12;image=img/lib/azure2/networking/Private_Endpoint.svg;" parent="yHopBrNq2CKKIhyN5AHE-2" vertex="1">
                    <mxGeometry x="-29492" y="-13546" width="85.0909090909091" height="78" as="geometry"/>
                </mxCell>
                <mxCell id="KPlWDAnPWZOycdJwZjgU-1" value="" style="sketch=0;aspect=fixed;html=1;points=[];align=center;image;fontSize=12;image=img/lib/mscae/DNS_Private_Zones.svg;rounded=0;glass=0;labelBackgroundColor=#FFFF66;labelBorderColor=#FF0000;comic=0;jiggle=2;fillStyle=auto;curveFitting=1;sketchStyle=rough;strokeColor=#3399FF;strokeWidth=1;fontFamily=Comic Sans MS;fontColor=#000000;fillColor=#E6E6E6;gradientColor=none;" parent="yHopBrNq2CKKIhyN5AHE-2" vertex="1">
                    <mxGeometry x="-30824" y="-13790" width="90" height="90" as="geometry"/>
                </mxCell>
                <mxCell id="KPlWDAnPWZOycdJwZjgU-2" value="&lt;div style=&quot;font-size: 40px;&quot;&gt;&lt;font style=&quot;font-size: 40px;&quot;&gt;&lt;b style=&quot;font-size: 40px;&quot;&gt;privatelink.blob.core.windows.net&lt;/b&gt;&lt;/font&gt;&lt;/div&gt;&lt;div style=&quot;font-size: 40px;&quot;&gt;&lt;br style=&quot;font-size: 40px;&quot;&gt;&lt;/div&gt;" style="text;html=1;align=center;verticalAlign=middle;resizable=0;points=[];autosize=1;strokeColor=none;fillColor=none;fontSize=40;fontFamily=Comic Sans MS;fontColor=#000000;" parent="yHopBrNq2CKKIhyN5AHE-2" vertex="1">
                    <mxGeometry x="-31630" y="-13840" width="670" height="110" as="geometry"/>
                </mxCell>
                <mxCell id="LKGn1LJ0s1MMhepDV0qi-1" value="" style="rounded=0;whiteSpace=wrap;html=1;glass=0;labelBackgroundColor=none;labelBorderColor=none;comic=0;sketch=1;jiggle=2;fillStyle=auto;curveFitting=1;sketchStyle=rough;strokeColor=#006600;strokeWidth=5;fontFamily=Comic Sans MS;fontSize=25;fontColor=rgb(0, 0, 0);fillColor=#d5e8d4;gradientColor=none;disableMultiStrokeFill=1;disableMultiStroke=1;align=left;" parent="yHopBrNq2CKKIhyN5AHE-2" vertex="1">
                    <mxGeometry x="-31900" y="-13880" width="1340" height="900" as="geometry"/>
                </mxCell>
                <mxCell id="LKdT17IyZ69jJRfu61l2-3" value="&lt;font style=&quot;font-size: 50px;&quot;&gt;&lt;b&gt;VNET Link&lt;/b&gt;&lt;/font&gt;" style="text;html=1;align=center;verticalAlign=middle;resizable=0;points=[];autosize=1;strokeColor=none;fillColor=none;fontSize=80;fontFamily=Comic Sans MS;" parent="yHopBrNq2CKKIhyN5AHE-2" vertex="1">
                    <mxGeometry x="-30540" y="-13590" width="280" height="110" as="geometry"/>
                </mxCell>
                <mxCell id="KPlWDAnPWZOycdJwZjgU-3" value="" style="shape=image;verticalLabelPosition=bottom;labelBackgroundColor=default;verticalAlign=top;aspect=fixed;imageAspect=0;image=data:image/png,iVBORw0KGgoAAAANSUhEUgAABkgAAAHrCAYAAACEpxHwAAAgAElEQVR4nOzdeUBVZf7H8c9lv4CiguIKuAWuKLimuOSeVmpNY5k2lZrOr2mfakqbqWmz1bQZLbOaFtOy1Nx3ExdIxYUUcAUUgRThKvty7+8P4sQVUEFFi/frL++55znnOYfrvec83/N8vyabzWYTAAAAAAAAAABADeJwvTsAAAAAAAAAAABQ3QiQAAAAAAAAAACAGocACQAAAAAAAAAAqHEIkAAAAAAAAAAAgBqHAAkAAAAAAAAAAKhxCJAAAAAAAAAAAIAahwAJAAAAAAAAAACocQiQAAAAAAAAAACAGocACQAAAAAAAAAAqHEIkAAAAAAAAAAAgBqHAAkAAAAAAAAAAKhxCJAAAAAAAAAAAIAahwAJAAAAAAAAAACocQiQAAAAAAAAAACAGocACQAAAAAAAAAAqHGcLvZmZmamtoZv0ZHDh5STk1NdfQIAAAAAAAAAALimKgyQZGZm6uuvvlRGRnp19gcAAAAAAAAAAOCaqzBAsjV8izIy0hXQvLkGDBykevW8q7NfAAAAAAAAAAAA10yFNUiOHD4kSQRHAAAAAAAAAADAH06FAZKSmiMERwAAAAAAAAAAwB9NhQESAAAAAAAAAACAPyoCJAAAAAAAAAAAoMYhQAIAAAAAAAAAAGocp+vdgRJbw8O1Z89uZWdlKzExQdnZ2QoKaiN3D3eFhISqV++w691FAAAAAAAAAADwB3HdAySJiQmaN3euEhMTjGVms7vMZnfFxsZIkqJ279aSxd/rb489Lj8//+vVVQAAAAAAAAAA8AdxXQMkW8PDNe/jjyRJ3j4+GjlytEJCQ+Xu7m63ztatWxQXG6t/Tpuqe8fep0GDh1yvLgMAAAAAAAAAgD+A6xYgWbtmtb6e/5XMZndNmDhJIaGh5a7XOyxMvcPCFBsbo5kzZmj+V18qKytLI0eNruYeAwAAAAAAAACAP4rrUqQ9MTHBCI489/zzFQZHSgsKaqPnnn9eZrO7li5ZrKjdu6uhpwAAAAAAAAAA4I/ougRI5n/1pSTp3rH3VaqmiJ+fvyZMnCRJ+nr+l9ekbwAAAAAAAAAA4I+v2gMkiYkJiouNlbePj3qHhVW6fUhoqJr5+enMmTPMIrkC27Zt08SJE/X000/rzJkz17s7Nc7MmTM1ceJEzZw583p3BQAAAAAAAABqpGqvQbI1PFySNPgKCq0PHjxU8z7+SFFRuy8rPVdFzpw5o02bNmnPnj1KT09XYWGhJMlkMsnT01MdOnTQvffeK1dX1yrvAwAAAAAAAAAA3HiqPUCSmJggSQoJ7VLlbYSEhmrex9KJxMQqtbfZbFq2bJlWr16tgoKCct8/f/68Tp48qaKioir3EwAAAAAAAAAA3JiqPUBSks7Jx8enyttwd3eX2exuBFsqa/ny5Vq+fLkkKSAgQCNGjJC/v79q166tc+fOKS0tTbt27VJqamqV+wj83u3Zs0ebN2+W2WzW5MmTr3d3AAAAAAAAAOCqqvYASdpVqnfh5++nuNjYyu8/LU3btm2TzWZT586dNWnSJDk5/XYa6tSpozp16qhly5ZXpZ/A71V4eLgOHjyoDh06XO+uAAAAAAAAAMBVV+1F2pv5+V2V7cTFxspsdq90u9OnTyszM1Ourq7q16+fXXAEAAAAAAAAAADUDNUeIHF3Lw5qVDU9lvRbmi4//6sTbAEAAAAAAAAAADVLtU+fCApqo7jYWG0ND9e9Y/2rtI2t4VskSX5+lW9fq1YtOTs7KzMzU7t371abNm1kMpkqvZ3jx4/rm2++UUJCggoKCuTk5CRfX1/dcccd6tSpU7nbtFgsWrt2rXbu3KmMjAzZbDY5OzvL399fd999t5o3b16mzTfffKN169bJz89PTzzxhOLi4vTtt98qLS1NAQEBevLJJ2U2m431MzMztWrVKrt9ODk5qUGDBho8eLB69epV7vFkZmZq0aJFioqKUk5OjnE8o0ePVseOHSt1bs6cOaM33nhDFotFf/nLXxQcHKz58+drz549Kioq0oMPPqgePXoY6+fl5WnVqlXaunWrzp07J5vNJk9PTwUHB+uuu+6Sp6dnhfuq7PFarVb9/PPPWrVqlU6ePKnc3FxJkqenp2666SYNGzZMAQEBV3xMJf2KjIzUuXPnJEm1a9dWWFiYhg8fXqnzeaH4+HgtW7ZMhw4dUm5urkwmkzw9PdWuXTvdc889RhCytMv9vJY+zhLR0dGaOHGiJMnV1VWPPPKIgoKCJBX/7X788Udt3rxZZ86cMT7T9evX18iRI9W5c+crOlYAAAAAAAAAuFaqPUDSO6yPli5ZrG1bwzVy1OhyB3MvJjs7W+vWrvl1W2GV3r+vr68CAwO1e/duhYeHKz8/X/fdd59cXV0vq73VatV3332ndevWyWazyWQyyc3NTXl5eUpKStLs2bPVt29f/fnPf7ZL37Vnzx7NnTtXBQUFkiQnJyc5OjoqLy9PR44c0VtvvaWxY8dWGMCQpB07duj7779XYWGh0RebzSZJstls2rFjhxYsWKCcnBxJMvqWm5urU6dOaffu3eVuPyUlRV988YXOnj0rJycnmUwmFRYWGsczZswY9e3b9/JO8AVyc3P1/vvvKz4+3lhWVFRk/PvEiROaPXu2Tp8+LUlydnaWVBxg2LZtmw4cOKC//vWvZYJHVTlei8WiuXPnKi4uzlhmNptVUFCgzMxMRUVFaf/+/Ro6dKhuv/32CgNnlzqmQ4cO6aOPPjKCDCaTSa6urrJYLFq+fLmSkpLs1r9cNptN33//vdasWVPms3f+/HnFxMQoOzvb7v9UVT+vl+PUqVP64IMPyvztCgoKdOrUKR0+fJgACQAAAAAAAIAbVrUHSHx8fDRo8BCtW7tGX8//Ug9NmFSp9ksWf6/s7GwFBgVVaQaJk5OTxo4dq/T0dB07dkwRERGKjo7WiBEjLqsmyeLFi7Vu3To5Ojqqf//+uuOOO+Tq6qrCwkKtWbNGy5cv19atW+Xv76/evXsb7bKzs2Wz2dSzZ0/dcccd8vb2liSlpqbqww8/1IkTJ7R27Vp17NhRtWrVKrPf7OxsbdiwQZ06ddKYMWPk5eVl9/6WLVu0YMECFRYWqnXr1rrnnnvUtGlTI9gRFRWlw4cPl9lubm6uPv/8c/n4+OjRRx9VkyZNZLPZdODAAX322WfGrJdOnTqV2efliIqKUnp6uiZNmqTQ0FA5OPyW1e2XX37Rf/7zH6WlpalBgwaaMGGCEQhJSkrSvHnzdOLECc2fP19PPPGE3cB/ZY/3/Pnz+uCDDxQfHy+z2azbb7/d7u+dkpKiBQsW6ODBg1q9erXq1KlTYVDoYsd06tQpzZs3TxaLRQ0aNNADDzygli1bymQyKTs7W8uXL9ePP/5oBLkq48CBA9qwYYMcHR01YsQIDRkyRE5OTrLZbEpOTtaWLVvs+iJV/vPq4+Ojt99+W5I0c+ZMRUdHq0OHDnr00UfttltYWKhvvvlGp0+fVrNmzfTQQw+pSZMmkopnlURGRlYpCAQAAAAAAAAA1aXaa5BI0shRo9XMz09bw8ON2SCXo2R9s9ldjz72RJX3X6tWLT355JMaPHiwnJ2dlZWVpYULF+rpp5/Whg0bZLVay2134sQJbdu2TZI0evRo3X333cbMEycnJ916663q37+/CgsLtWXLFuXl5Rlta9eurf/7v//Tgw8+aARHpOIZLSXbOXv2rJKTk8vd95kzZ9SkSRM99NBDZQIVZ8+e1Zo1a1RYWKjOnTvrySefVLNmzYwZEE5OTurWrZvGjh1bZrt5eXny8vLSlClTjAFuk8mk9u3b609/+pMcHBx09uxZu9kSlZGQkKAHHnhAXbt2tRu8t9lsWrNmjdLS0tSoUSM988wzdrNEmjRpogkTJqhOnTpKTExUdHT0FR3v5s2blZCQILPZrIcfflgDBw60C4Y1bNhQjzzyiDp16qTCwkJt3LhR58+fr/QxrVy5UmfPnlW9evX0f//3f2rVqpXRL3d3d91999266667qnQuDx48qIKCAjVu3Fj9+/c3+m8ymdS4cWONGTNG9erVM9a/ks/rpWRkZOjkyZOSpAEDBhifHak4DVefPn3Uv3//Kh0nAAAAAAAAAFSH6xIgOXPmtNJ+LbQ+/6svNWvmDMXGxlxk/TOaNXOG5n38kcxmdz33/POVTs11IVdXV/3pT3/SP//5T3Xs2FEmk0lZWVlasGCBXn75ZZ06dapMmx07duj8+fNq1KiRXb2JEiaTSV27dpW7u7tSU1PtttGhQwe1b9++3L74+PgYqaFK0hVdyNnZ2W5QvLSoqCidPn1a3t7elU6V5ODgoIEDB5Y7a6VVq1aqXbu2CgsL7WpSVEarVq0UGBhYZvnp06e1b98+mUwm9evXr9zZKY0bN1br1q1ltVq1b98+Y3lljzc7O1t79+6VzWZT9+7d1a5du3LXc3Jy0pAhQ2Q2m5WSkmKXiutyjikjI0NHjx6VyWTSkCFD1Lhx43Lbd+/eXU2bNr1on8tT8pnPy8tTfn7+Jde/ks/rpTg6OtqlQwMAAAAAAACA35tqT7GVmJig6a+/puzsbN1z71ht3RquqN27FbV7t4KC2igkNNRInZWYmKDY2BhF7d4tSfL28dGjjz1epdRaFfH19dXf/vY3JSUlaf78+Tp8+LCSkpL05ptv6uGHH1abNm0kFacUOnHihCSpTZs25QYUpN+KwJ8/f15paWllamdkZGTo8OHDio+P14kTJ5ScnKysrCyjNklFvLy87J7SL1GSDkuSWrRoYTc75XJ4enqWWxxeKq7PUbt2bWVkZCglJaVS2y3RqlWrcgMYJcddq1atCgNHklSnTh1JxbNG8vLy5OLiUunjTU9PN+qrXGxfktSoUSPVr19fiYmJSkhIUJcuXSp1TOfPn5eHh0e5AZQS7u7uVUpX1rZtW61fv16pqal69913ddddd6l9+/Zl0mpJV+/zWpE6deqoZcuWOnPmjJYuXaq0tDQNHz68SscFAAAAAAAAANdDtQZISgdHHpowSb3DwjR4yFAtWfy91q5Zo9jYmHJnkpjN7uodFlalou6Xq0mTJnr66ae1c+dOffnll8rKytLXX3+tp556Sl5eXsrPz1d2drYkacOGDdqwYcMlt1k6ZdGpU6f08ccf6+TJk0Zh9RJubm4qLCwss7w0d3f3cgvJ5+Tk6Ny5c5JU4YyFizGZTOUOsF8tdevWLXd5ZmamCgsLde7cOb3wwguX3E5BQYGKioqqdLznz59XQUGB3Nzc5OPjc9F1SwcvKqqhUdExpaenKy8vT7Vq1bomn9MWLVpo3Lhx+uKLL5ScnKxZs2bJw8NDvXr10uDBg+2CE1f6eb0Uk8mke++9Vzk5OYqOjtamTZu0efNmNW/eXMOHD68wcAMAAAAAAAAAN4pqC5BcOHOkd1iY8d7IUaM1eMhQxcbEKDExwVju7u4uP39/BQW1qZY+mkwmdevWTSaTSZ988olSUlIUHR1tV2y9Kk6dOqX3339fZ8+elZeXl3r37q0OHTrI29tbXl5eSktL0xtvvFHlNFYl3Nzcrqj9782Nerxubm5ycXG5JtsODQ1VmzZtFB4erg0bNig9PV1r167Vpk2bNHLkSA0aNMioeXKtubu765FHHlF8fLyWLVummJgYHTt2TLNmzVJAQIAmT55c6RlNAAAAAAAAAFBdqiVAUjo40qt38ayRC7m7uyskNFQhoaHV0aWLCgwMlI+Pj1JSUoy6DKVrLgwdOlR33nnnZW9v69atOnv2rJo1a6YnnniiwnRHVVG6X2d+revye+Dq6ioHBwfVrl1bzz333GUPpOfl5VX6eF1dXeXo6KiCggJZLJZyU5WVyM7ONgJVlZ0F4ujoKJPJpHPnzikrK0seHh7lrldYWHjJlGoX4+7uriFDhmjw4MGKj4/XwoULdfToUS1evFh169ZV165dr+jzWhkmk0nNmzfXo48+quzsbG3atEmrVq1SfHy8Pv74Yz3++OPlznwCAAAAAAAAgOvtmufAuTA4MmHipGu9y2vC1dXVSOl06tSpi6bDulBJ/Y6goKBygyMWi+Wyim5fql8xMTE6f/58lbZT3Ro1aiR3d3fl5ORUWJi+PFU5Xh8fH9WpU0d5eXnas2fPRddNTk7W6dOn5ezsrICAgMvul1Rcz8ZsNiszM1PHjx+vcL3KFkSvSElw4oknnlDz5s1VWFion376SdKVfV6ryt3dXcOHD9e4cePk4OCgkydPKiEh4dINAQAAAAAAAOA6uKYBkhsxOBIVFaUNGzbIarVWuM6ePXt05swZOTg4qEWLFsbykJAQOTs7Ky4uTgcPHqz0vjMyMsosKyws1Jo1a5STk1Pp7ZXo1q2bXF1dlZycrNWrV1fLYPiV8vX1lb+/v/Ly8rRu3ToVFhZedtvKHm+tWrUUEhIiSYqMjDSKvF+o9N/C399frVu3vvwDUnFNFF9fX1mtVq1fv77c4I3NZtPGjRuNOipXg6urq5o2bSrJvm7KlX5eq6pp06Zyd3eXzWa76P8zAAAAAAAAALierlmA5EYMjkjFRc0XLFig5557Tj/88IMSExOVl5enwsJCpaSkaP78+Vq4cKEKCwvVokULdejQwWgbFBSk9u3bKy8vT7Nnz9aKFSuMQtiSZLVadfLkSc2bN0+7du0yljds2FCStH//foWHhxuDxhaLRfPmzVNMTIycnKqe7SwwMFB9+/aVJK1bt05z585VWlqa8X5hYaHCw8P11VdfVXkfV5uTk5MGDRoks9ms/fv36+2339bx48ftgh3Z2dnaunWr5s6da3eeq3K8t9xyiwICApSTk6MPP/xQ69evtwvKpKSk6IMPPtDevXtlNps1YsSISqeGcnV1VZ8+feTk5KT4+HjNnj1bSUlJxvsWi0UfffSRdu3aZVdQ/XJt2LBBa9assQu82Gw2HTp0SNHR0TKZTGrfvr3xXlU/ryVKPrcnTpzQiRMn7N47e/asPv/8cx05csQuCJKdna2NGzcqKytL3t7eF01nBgAAAAAAAADX0zWpQXKjBkek4oF5k8mk9PR0LVu2TMuWLSt3vYCAAE2YMMFukNzJyUnjxo2TxWLRsWPHtGTJEi1ZskTOzs5ydHRUbm6usW5QUJDx7379+ikqKkppaWn6/PPPNX/+fDk6OiovL0+urq4aNmyYNm3aVOUi7SaTSaNGjdL58+cVERGhnTt3aufOnTKZTHJ1dTX6VTrYcyNo166d7rrrLi1YsEBHjx7Va6+9JpPJJLPZrJycHCNY4ufnZ9euKsdbq1YtTZw4Uf/973+VlJSkhQsXauHChTKbzSooKDCCJR4eHho3bpzatWtXpWPq1auXUlNTtWbNGh0+fFj/+te/5OTkZPy9nZycNGbMGO3bt0/R0dGV2nZaWprWrVunRYsWlTlPJpNJISEh6tOnj7F+VT+vJbp06aLt27crIyNDL7/8ssxmsxwcHDR58mT5+PgYAT9JZbbp4eGhMWPGXNV6OwAAAAAAAABwNV31AEnp4EgzPz/dO/a+q72LK9K9e3f5+/srPDxce/fuVXp6ugoKCmQymeTu7i5/f38NGDBA7du3l4ND2Qk2tWrV0rPPPqvw8HBt3LhRv/zyizHA7uHhYde+RIMGDTR16lQtWrRIUVFRRjqtli1b6s9//rNq1aqlTZs2XdFxOTk56YEHHlCfPn20bNkyHTt2TLm5ucrNzZWnp6duuukmDRs27Ir2cS306dNHgYGBWrJkiWJjY5WZmans7Gw5Ozurbt26CgkJ0cCBA8sUTK/K8TZo0EAvvvii3d8uJydHJpNJ9evXV2hoqIYMGSJPT88qH4/JZNLo0aMVFBSk5cuXKyEhwfh8tWrVSnfffbeaN2+uffv2VXrbnTp1UlJSkuLj45Wdna3s7Gy5ubmpUaNGGjJkiDp37lzmM1uVz2uJFi1aaMqUKfr666916tQp5eTkqF69ejKbzapVq5Z69eqlnTt3Gv+HCgsLVbduXXXs2FG33XZblWbJAAAAAAAAAEB1MdkqKODw1vTXJUl/f/Yfl72xC4Mjz/3jhTID2wAAAAAAAAAAANfbVa1BMvP9GQRHAAAAAAAAAADADe+qptjy8/OXn5+/JkycRHAEAAAAAAAAAADcsK5qgOTRxx6/mpsDAAAAAAAAAAC4Jq5qii0AAAAAAAAAAIDfAwIkAAAAAAAAAACgxiFAAgAAAAAAAAAAahwCJAAAAAAAAAAAoMYhQAIAAAAAAAAAAGocAiQAAAAAAAAAAKDGIUACAAAAAAAAAABqHAIkAAAAAAAAAACgxqkwQGI2myVJZ8+mVVtnAAAAAAAAAAAAqkOFAZJWrW+SJG1Yv44gCQAAAAAAAAAA+EMx2Ww2W3lvZGZm6uuvvlRGRnp19wkAAAAAAAAAAOCaqjBAIhUHSbaGb9GRw4eUk5NTnf0CAAAAAAAAAAC4Zi4aIAEAAAAAAAAAAPgjqrAGCQAAAAAAAAAAwB8VARIAAAAAAAAAAFDjECABAAAAAAAAAAA1DgESAAAAAAAAAABQ4xAgAQAAAAAAAAAANQ4BEgAAAAAAAAAAUOMQIAEAAAAAAAAAADUOARIAAAAAAAAAAFDjECABAAAAAAAAAAA1DgESAAAAAAAAAABQ4xAgAQAAAAAAAAAANQ4BEgAAAAAAAAAAUOMQIAEAAAAAAAAAADUOARIAAAAAAAAAAFDjECABAAAAAAAAAAA1DgESAAAAAAAAAABQ4xAgAQAAAAAAAAAANQ4BEgAAAAAAAAAAUOMQIAEAAAAAAAAAADUOARIAAAAAAAAAAFDjECABAAAAAAAAAAA1DgESAAAAAAAAAABQ4xAgAQAAAAAAAAAANQ4BEgAAAAAAAAAAUOMQIAEAAAAAAAAAADUOARIAAAAAAAAAAFDjECABAAAAAPzuTZ36gkJDOis0pLOmTn3hencHAIAaIysrS//732eaMeM9nTx58np353dj7kcfce1yA3C6Hjvdu3ePnnziCVksFklShw4d9O6776met/dF202d+oJWrVwpSZo8eYomTpp0zfsKoGYZNfIOJSYmVrod30kAqkPpa6HK6NK1q95551298cbrV9Te09OT6zEAFdq0aaOe/8c/lJ+fL3cPD7391tvq3qPHJdt98fnnmjHjPUlSq1atNXPWLPn6+l7r7gIAfidyc3P17LPPaGt4uCTJxcVFr73+uvr3v+U69wwl/vufD7RgwQJJ0s6fdmrWrFmXHOcFbhQ3xAyS6OhofbvoW9lstuvdFQAAAABAFbRt205+fv6SpOysLO2I2HHJNrm5udq1e5fxOjg4WA0aNLhmfQQA/P4cO3ZMMQcPGq/z8/O1Y/sOxhFvIJZz54x/Z2dnKb+g4Dr2Bqic6zKDpDwLFyxQl9AuCu3S5Xp3BUAN5uPjI6vVarcsNzdXZ86ckSS5ubnJ29tHJpN9Ow9Pj+rqIoAazKt2bTVt2tRumdVqVWpqqoqKiuTg4KD69RvI2dn+Eq9unbpyMJmuuD0AXEyDBg0UHBysI0cOS5L2RO1Renq66tatW2GbhPh4xcXGSip+Irh3WG+Z+L4BAJSybetWpaWl2S2LiIhQQkKCAgICrum+T5w4oa3h4Vq7do369uunv/zlgWu6v9+rO++8U/v37VNGRobuvOuuK54JejYtTT/++KM2btygBr6+mjbtxavUU6CsGyZAYrFY9MmnnygwKEienp7XuzsAaqi5H88rs2zdurV67tlnJUntO3Qw0swAQHX7+zPP6u/PPGu3LCUlRVMmP6zExETVqlVLr73+mjp16nxN2gPAxZhMJvUO661ly35Qfn6+4uOP68iRw+ratVuFbaKionT69GlJ0k03BapDh47V1V0AwO+AxWLRjh3bJUm+vg3l7V1PBw8eVHLyKe3bt/eaB0g+/HCOkV725pt7XdN9/Z517hyiH5Ytv2rb++677zRnzmxJ0rBbb71q2wXKc91TbPn5+alx48aSpJ8iI/XDD0uvc48AAAAAAFXRtm07Y7AqMzNTERERFa6bm5uriMjf3u8c0vmis00AADXPoUNxOnr0qCSpZcsWGjBgoKTiWdBbw7eqgFROAK7QdQ+QSNLo0XfKxcVFVqtVX8+fb3zxAQAAAAB+P3x8fOwKs//888/KzMwsd93S6bU8PT3VqxdP5gIA7K1fv974HenWrbt69uyp+vXrS5L27durw4cPX8/uAfgDuCFSbN0yYIBiY2O0fv16nTp1Sv/77FNNnfaiXFxcKrWds2lp+mHZD9ry4486cuSIsrKyJEkNGzZUv379NG78/WrYsKFdm7179+jJJ56QxWKRl5eX3n3vPTVt2kwfffihNmxYr4yMDHl7e2vYsFs16eGH5eHhIZvNpoiIHZr38TzFxBxUbm6uGjZsqFGjR2vs2PtkNpvL7V9OTo5Wrlyh7xYt0pEjR1RUVCQPDw+FhIRq8pTJCgpqU7UTCOC6Wrp0iV75979ltVrVqFEjzfrgP2revHmZ9TIzM/XUU09q186dcnFx0Wuvv67+/W/R1KkvGFN2h916q1555VXFxsZo9uzZ2rVzp3Jzc1WnTh316dNXD02YUKZ+QGkpKSn64vP/afPmzUpJSZFU/B04YMBATZgwQbW9vK7NSQAAAPhVzx499d133yk7K0uHDx3SkSOHy03dVzq9VsuWLXXTTYGSJJvNpri4WC1ZskS7du5UYmKiioqK5OjoqFatWunOu+7SrbcOr/C+qzylr7cmT56iiZMmlVmndFrVLl27VphW9dChQ/ryi8+1bds2ZWRkyMHBQc2aNdPIkaP0p7vvrlS/AAAVS01N1d49eyVJ9evXV7du3eQfEKDAoCCdPn1aaWlp2r1rl9q2bVumben7b0l6Y/p0DRo0uMx6cz/6yC6V0yuvvGqXgra0OXNmG+uW9ztxNi1NS5Ys0foN65UQH6/c3Fw5OjrKz89Pffv209ixY1XP27vS5+HCMYPD570AACAASURBVIOXX/63vvryS33xxedKT0/XI3/7m+6//y/G+lUdf7RarVq5YoXmz//KaNewYUONuO02jR9/v+Z/9VWZc1XeeSzv3FitVm3csEFLly7RwYMHlZGRIan4wYrOnUP08OTJql+/vt3frMSqlSuN4/fz89PsOR/aje+WbHvBggXGOK2bm5vatGmrhyY8pB49etrVN7vw7/vG9OkKDe2id95+S5s3b5anp6feefddtW/fwa5NVcZarFarVq9epYULFiom5qBxTgcOHKRJDz9cbhtUvxsiQOLq6qq/PPCgoqOjlZqaqg0bNqh3WJgGDx5y2dv4+edoPfXkk0Yh5dJSUlK0YMECbdq0Sa++9po6dw6pcDtHjx7Vv19+WfHx8caytLQ0ffnlFzp8+JBefe11LV+2THPmzFZubq7dPmb/97+KjYnVv195pcxF8dGjRzVt6guKi4uzW56VlaXw8C3avn2bJk+eogcefJCihMDvTHBwJzVq1FhJSSeVnJysfXv3lhsgiYk5qNiYGEmSn5+/2rZtV2Ydm82mRd9+q/fee9fuOyYjI0M//LBU27Zt1etvTFdoaGiZditWrNCb098wgsMlUlJS9NVXX2r9+nWX/A4EAAC4UkFt2qh1q1bat2+fLBaLdv60s0yA5ML0Wj173iyvXwcXPv/8f/pg1ixZrVa7NkVFRYqLi9Nrr76qHzdv1r9fedVoUx2sVqs+mTdPH330oYqKiuyWJyQk6P33Z2j16lV6/Y3p8vf3r7Z+AcAf1b59e3XsWHGWmcCgIPkHBMjNzU39+/XX1vBwSdLWbVs1avTo61on1GazadmyHzTjvfdksVjs3isqKtLx48d1/PhxLV78vZ5//gUNHDToivb1ybx5+vDDOcbvZH5evvF+VccfLRaLpk19Qdu2bbNrl5KSoo/nzlX0/v1q3fqmKvW5om1L0pkzZ7Ru3VoNGDjAmBlUGWfPntWL06YZdWpK5Obmas+eKD36t726/Y479Oyzz1X4IP758+c19YXnFRkZKal4nLqwsFDSlY21WCwWvfrKv7Vhw4Yy7UrGmat6TnF13RABEklq06aN7hs3Tu+9Wzwo+Nmnn6pTp85q0KDBZbUvLCxUQUGBant56ZZbblFwcLAcHR2VmJCo7xd/r7NpaUpNTdXn//tcQUFtyn2qJycnR//9z39ktdk0cNAgOTs7K2p3lFJTiyODO3fu1BtvvK6IHTvk7uGh/rfcIkl262zbtlURETvUv/8txnYTEhL0j+eeNVKHtW3bViNuu01ms1mRkZFat3atioqKNG/ex2rZqpX69u17RecSQPXy9/dXjx499N13iyRJ27Zt0/ARI+Ts7Gy3XkREhDE1uHdYb/n6+pbZ1s/R0dqxfbtcXF3VOyxMHu4eSjqVpD1RUSoqKlJaWprenD5d7773npo0aWK0W7VqpV5/7VXjCZVBgwere/fuysnJ0fJly3Tw4EGlpqbqrTff1Iz3Z172dysAAEBleXl5qXNIiPbt2ydJ2r9/n3JycuzuwZKTk3X0yBFJkre3t3r17m28l5+XL6vVqubNm2vQ4MFq2rSpioqK7O6dduzYoRUrluvee8dWyzFdOCDl4eGhYbfeqo4dO+rMmTNasnixEhMTFRcXpxnvvafXXn+dmSQAcAUKCgq0aeMmIwjQv19/ubm5SZKCO3VSo0aNlJycrNiYGMXEHFTXrt2u2r69vLz0yN8eVW5ujpYuWaLdu3dLkoYOHaqbf00HWadOXbm6ukoqvh+f/sYbxkOOtb281K1bN3m4eyg9PV0//RSp3NxcWSwWvfnmdNWtV6/MQ4+XK+nkSUXvjy7zEIFU9fHH/Px8vT9jhl0Ao3nz5mrXvr0k6cDPPysyMlJ79uypdH9tNpvmzJ5tbLuet7eGDR2mwKDiWaNxsXFav369pOLAxPjx9+v222/X9m3btHr1aklSaGio7hg5UpLk5mY2Ho6wWCx2gQ0/Pz+NHDVKPj4+2r9/v1atXKmsrCz9sHSpWrZsWeE1w7Zt27TzglkrJao61lJQUKCZM9+3C45crXOKq++GCZBI0u2336Ft27YpYscOxcXFacHXX+tvjz56WTMqHB2dNH78/frzmDFlLkQ7d+6sZ599RpmZmYqJOajEhAQFBgWV2UZ+fr4aN26sN998Sy1btZIknT59Wk8/9ZR+/rn4y2f9unVq2bKl3nr7HeOpoIT4eD355BOKj49Xfn6+fvzxRyNAUlBQoE8//cT4cgoL66NXX3tNHh4ekqTbbrtdzQOa68MP5yg3N1eLvv1G3bp142Ia+B0xmUwaNHiQ1qxZbXzPnDx50m4WicVi0Z6oKEnFgwAlheUudPLkSQ0dOlTPvzDV+J6QpJUrV+jVV15Rbm6ujhw5rI0bNmjc+PGSpBMnTujTTz5Rbm6uHBwc9Ohjj2ns2PuM786hQ4fpH889q8jISMXFxWnN6tVGWwAAgGuhR48eWvTtt8rMzFRcXJyOHz9ulwJl3969Sk5OliQFBgbaXTd51fHSu+/NUJ8+fezuBW+77Xb5NvDV//73maxWqyIjIzV69J3GgNm1tG/fXs2f/5WsVqs8PT01bdqLdk8A9+vXX39/+ikdPXpUERE7yjw0BwConKSkJB04cECS1KhRIwV36mS817RpU3Xo0FHJycnKzMzUtm3brmqAxGw2a8CAAZKkHTt2GMsDAppr+PARduuWvh+XVO79fGpqiqZNnardu3crLS1Nn336idq2bVulsb/o6Gh5eXlp6tRpGj5ihDEr4krGH/ft26sNG4qDFA4ODpowcaImTpwkB4fi0tVWq1Vz536kj+fOrXR/f/nlF/30U3EAw8XFRc8//7zd7+Pw4SM05a9/VUFBgZydnY16ZKeSThnrNPD1LXPeJembhQuN4EibNm00/c23jAdJhw8foeDgYGMcZemSpRowYGC5D6pu3rRJbdu21XPP/UNt27Uzrj2uZKxl7949Wr9u3TU5p7j6bogi7SU8PT314AMPGpHAJUsWK+rXKO2ldOjQQX954IFyv1xatW6txo0bSyoepEz9JbXC7YwcOcoIjkjFOQ6HDh1qvHZwcNA999xrN2XaPyBAYX36GK9/SU1V9q/Tro4dPaqIX79Mvb29jTomJUwmk24dPlzNmjWTJB0+fFiJCQmXdcwAbhzt23dQx44dJclIs1XaoUNxxoXKhYMApbVo0UKTp/zV7ntCkoYNu9XugmD//v0qKCiQJG0ND9exY8ckFQ9G3HnnXXaDCV5eXho5apTxQ7xr9y679F0AAABXW5s2bRXUpjjHeVpamt21UUFBgd1Tqt26dbe7j7v77j+rb9++ZR6UM5lM6tS5kzEY9EtqaoUF4K+2VatWGWlThgwZqgED7R928ff3N3Lb5+fnKyIiosw2AACXb8f27UpKOilJ6tCho10tTmdnZ/Xo2cO4x42MiCg35X51KH0/HhgYqMcef6LM/byvb0NNnDTJSAN24MABxcXFVml/Li4ueuKJJzVq9Gi7lFFXMv64fv3637Jd9A7T+PH3G+dWKh4LHT/+fvXo0aNKfS5RWFiojPSMMsvNZrNq165dqW2dOXNGGzcWz85wcXHRQxMm2GXZkKQ+ffqqfYfiOiKJiQkVnvOAgAC98sqrate+vd21x5WMtVTXOcXVcUMFSCQpJDRUI0eOklQczPjk008qddFrsVi0efNmfTx3rp599hndOXqURo8aqUOHDkkqvljNy8srt21tLy9jqlNpTZo2Mb50fH191alz2QKDAf4Bxr+LrFZZbTZJUuKJRKPwYKtWrRRQTi7a2rVrq/6vU7DS0tJ0Minpso8XwI2h+AmT326UIyMjjQCGVDxlMzMzUw4ODho4aFCFT4q0a9/euGApzWQyqWu3rsbrX375xfhuPHDwgLE8JCS03G03aNBAtWrVkiSdPHGiTF5UAACAq8nT01NdQrsYryMiI4xBg5MnTyom5qCk34ruXshmsykhPl4rVizXO2+/rb9OmazbRgzX0089pfz84lzrubm5Ro7waykzM9OoUeng4KDuPXqUm+UgoPlv94QnEhONh+YAAJWTk5Oj7duLA+kODg7q0bNHmRTWXbt2M+6d4+PjFR29v9r7Kdnfj3fr3r3CdNaBgUG66abiehMWi0Xxx+PLXe9SbropUL3Dwsosr+r4Y+nfOEnq27dvuWMKZrO53DHTS6lXr546/PowqdVq1euvv6YXXnheBw4cKDdN2OU6efKEUlOLH4Bv3LhxuTVePT09jbom+fn5OnrkaLnbCuvTR/4BAWWWV3Ws5VqfU1x9N1SKLal4EHDMPfcoIqI4zdZPkZH64Yell8wtm5qaonffeUebNm2yK5hXqX1LcnAoe6Fbu3Ztmc1m5efny9nZudwPtYenR5llkuy+8CIjIxUW1rvc9UpYrVZZrVXrP4Drq1PnzmrSpKmSkk7qwIEDSkpKUkBAgNLT07UnqjivZIsWLdWjR88Kt9GkcZMK36tfv768vLxksVh07pxFeXl5yszMNC6CJOmDD2bpgw9mXbSfVqtVtl+DuAAAANdK125d9fXX82WxWBQXG6uE+HgFBgXZpdfq0KGjWrRsaddu+/bten/GDB05cvh6dLuMzMxM/fLrIIzVatUzf3/6km1KPzQHAKicuLhYI72W1WrVyy+9pJdfeqnC9fPz87Vp40b169f/stL0Xy0X3o8H3hRY4bq1a9eWb8OGxuvS7SqjmV8z1a1bt8zyqo4/ZmVl6cyvfXH38FCjRo0qbOPo4Fjp/jo7O2vixEk6kXhCe/fuUVFRkVavWqXVq1bJ17ehxowZoz/dfXel042dPn3aePAzPj5etw4beokWqvChinbtygZXrmSspfR1w7U4p7j6brgZJFJx9O3hyVPk5uYmq9WqL7/4QjExMRWub7FY9NK//qX169erqKhItb28NHToUD3z7LOaOesDfbvoO4WEhFTjEQCoiUqKtUtScvIp7dtXnEriUFycjh0vnpYZHBxc5QLpaWlndf78eUmSm5ubnJxuuBg3AACAITAwyBh0OH36tGJiYuzSazk4OKh3WG+7p4J3796tf/3zRSM40rx5c40ZM0b//Ne/9MWXX+m9GTOMlMwAgD+m8PDwSmc92Lt3nxJIWV9pNpvNmMnh7OQkVzfXq76PJk2aaPacOfrnv/5ll248NTVF778/Qw89+MAf9m93rc4prq4bdnTt5ptv1tBhw7Rk8WKlpqbqs08/kclUfjxn8+ZN2rlzp6TiOgBvv/OOMYVKktLT05WfX1Bu22utdI7EXr176+9/f6bMtMAL1alT51p3C8A1cGGx9ogdEbr11uHauGmjsrOy5OnpqUGDB130iZas7IpTMfySmmpcuNStW1fuZrPM7u7y8fY21nn0scc0ZMjFn5xwcHCQj49PJY8OAACgcsxms7p1667t27dLKk452q59eyO9VqNGjRUc/FvR3YKCAi369lulpaVJku4bN06PPfa4Xc7uyIgIFVyjtFpZmeVfh7m7u8vHx0eJiYkym82aOu1FdSpVLLg8zs7OZXLQAwAuLT09Xbt27jJe9+jZU74NyhbWlqS8/Dzt2L5dFovFeEgxoJxUSRdzsXvwS/Hw8LC7H487FKdht95a7rrnzp1TakqK8br0eOHVUNXxx8zMTLm5uUkqfgA9+VSyOnUqW1pAks6kVb3Oi4uLi26//Q7ddtvtSkxI0OdffK5lP/ygoqIixcXFac7s2Xr53/++ZJ9LeHv7qLaXl85ZLAoMDNQ///XSJR+gKKkBczku/NtWZqzl7Nmz1XJOcfXcsAESZ2dnjR83Xnv37FF8fLy2bNlS4X+S48ePG4OGzfya2QVHpOKCycnJp655n8vTqHEjIyVOakqqXFxc5Otb/hc7gN+/kmLt27dv14EDB7R//37t37dPktSxY0e1b9/hou3379sni8VS5oe9dA5WSbopMFDuv950BwT89gRG0skk+fr6Vuu0YgAAgIqEdukib29vpaWlKSbmoNauXWPkDG/Xrp1dQdXMzEydOvXbfVv79u3tgiOSdOjQoSrV9ig98/bQoUMqKCiwu78sKChQZGRkuW1r1aplpMfIycnR6V9+UcNSaVIAAFdPdPR+HToUJ0lq1KiRnn7673azDkorKCjQi9Omae3aNbJardq4caOGDBkqNzc3OZhMciz1G3LgwAENGjTYrr3FYjHu16vCZDLZ3Y/v3bNHZ9PSVK/UwHqJY8eO6ujR4hoY9evXV4sWLaq83/JcyfhjA19fo3Zz5E+RGjhoUJkx2NTUVO3ds/eK+2kymeQfEKBp015Up+BOeu21V5Wfn6/Y2BilpaVd9u9rw4YNVbdOHZ2zWHTmzBkVFRVd1d/mC/+2lRlr8fT0rNZziit3Q6bYKuEfEKD77hsnBwcH5efnK6uCC+GcnBzj35aMDLvXOTk5+uabhcZTSNWtVavWav1rEaYjRw5r5vszyj0Oq9WqJUuWGNPNAfw+mc1m3XxzL0nFabZWrlxhFOfq1q37JfNqRkdHa8GCr+2KldlsNn315ZeKiIiQVPxj26tXL+P9rt26GgGVFSuW67tFi8qtMXLOYtGHH84xBiUAAACutRYtWqhN27aSJMu5c9q0caOsVqscHBzU/5b+doMFRUVFys/PM16nJKfYbevo0aNatuyHKvWjdF743bt3lRkQW7durbZs+bHctiaTST173iwXFxdJ0hdffF7huidPntTcjz5SZmZmlfoJADWZzWbT1vCtys/PlyS1bNXqovUbnJ2d1aNnDyOYHnPwoI4dK05v7e7hoWZ+fsa64Vu2KKFU4WybzaZvv/lG0dHRl92/06dPl7nX7h0WZgQioqOjNXPWTLtxSUk6e/asPpwzx0gb1rlzSJn6W1eqquOPbm5u6hLaxXh/3dq1Wr1qld1x5uTkaPbs/1apNlh+fr4yMjLKfa9evXpy+vU6wMHBocLgw4VjvVJxkKljcLCk4oLzM957V6mpKWXaFn+mwrVk8eJK972qYy3X+pzi6rthZ5CUGDpsmLZs2VLhBagktW3bVg4ODrJarYqIiNDTTz+lQQMHKTMrUytXrNDJkyfl4uJifMFWJ09PT91771j9HB2t3NxcrV69Wtt37FDvXr0VGhoqB0cHHTx4UFt+3KLU1BS9MX16tfcRwNXV8+abjWLtK1esUH5+vpo0aaqwPn0u2dbR0VEfz52rHzdv1i23DJAk/fjjZsXGxhpBk4GDBtlNzwwO7qQhQ4bqm28WKjc3V6+//poWLPhavcPC1Lp1a2VmZmrnTzu1Y8d2NWjQQHfcMfLaHDiAGmfBgq+1fPmyct/z8PTUCy9MLbfoIYCaw83NTT2699DW8HBlZ2Xp+PHjkqQWLVrapdeSJC8vLwUENDeeuJw79yOdTDqpjh07Ki42TqtWr5K1qKhK/ejUubN8fX2Vmpoqi8WiJ554XD169JCnZy0lnUrSnqgoNWvWzHiw5UL9+vfX2rXFQZS0tDQ99eSTCgoKUt++/dSocSOlp6crPDxce6Ki1DkkRPfce2+V+gkANVlycrJ27dppvO7RvYeRqqgiHTsGy9fXV8nJyUpLS9PuXbvU9tfA/M0399LyZcuUm5ur+Ph4TZg4Qd27d5eLs4sOHz6kw4cPq5mfn13g5EKl01MvWbJYv/zyi+rVqydHR0c99vjjatOmje6660+aPfu/slqtWvbDD9q+bZs6h4TIw91DWdlZ+umnn3Tu1+BIy5YtNXnKlMtOJXW5rmT8ccjQoVq1aqXi4uKUm5url19+Sd98s1CtW9+k/IJ8Re2OksWSocCgIMXFxlaqX2fPntX//XWKfOrXV1hYmFFgPjEhUd8v/t6YFdqhY0fVq1fPaFc6O1BERIQe/dsjatbMT3l5uXr0scfl6+urP/95jH6KjFRqaqp2796t0aNGqWfPm9W1W1d5enrq8OHD2hoeruPHj2vy5CmVPqdXMtZyuee0U6fO2rt3T6X7hqvrhg+QmM1mTXr4YcXFxVb41HO/fv21ZvVqRUZGFgdJduxQxI4dkopzxk2YMFGLF3+vxMTE6uy6oU+fPvrH8y/ozelvKCsrS+csFq1cuUIrV66wW8/R0ZGiy8AfQEmx9u++W2QEZnv06CF/f/9Ltu3Xr7/c3d21dOkSxcXFlXl/wIABevTRx+wupkwmkx597DHlF+Trh6VLZbVadfz4cWMAojRnZ+cyqSoAoKoyMjIqfCLMy8tLBQXV/3AKgBtPj5491ahRIyUnJxvLgoOD1aBBA7v1nJ2dddef/qTdu3cpLS1NWVlZWvTtt1r07beSpMDAQA0eMkSzZs6sdB+CgoI0evSd+vDDObJarcrKytKGDRuM97t3766Bgwbp1VdeKbe92WzWtBdf1IvTpmnHju2yWq06ePCgDh48WGZdVxcXOZDuFAAqbefOn3TixAlJkre3t4IvUe9JKq690aZNW+M3ZtOmjbr9jjvk5eWlnj17asiQoVq6dIkk6WxamlatXGm0veOOkapfv74+/nhuhdvv3/8WrVyxQmlpaSoqKlJ4+BZJUpeuXY11HnjwQTk7O2vOnNnKzc1VWlqa1q9bV2ZbrVq11ssvv3xZYwNVUdXxxwYNGujvzzyjF55/Xqm/1j4t/Rvn6OioyZOnqLCwsNIBEql41squnTu1a+fOct/v3r27plwQNOrarZtatWqtI0cOy2q1KioqSlFRUfLz8zNmYrRp00Yvvfyy/vnii0pNTVVubq42bdqoTZs22m3fwcFBLq4ule73lYy1XOqcOjg46OGHJ8tqtRIguQH8LkbJSqKxFQ3qeXl56a2339F9940z8s25ubmpd1iYPpo7V4OHDKnO7pZhMpk0YsQIffPtIo0ZM0ZNmjQxjsXNzU0tWrTQ+Pvv13ffL1b//rdc174CuHIlxdpLCoC5uLio5809LytXpZOzk/7+zDN67LHHjZzcjo6OCgwM1Esvvaw3pr9ZbuExs9msqVOnac6cDxUW1kd16tQx3qtTp46Cg4M1deo0ffrZ/8oMRgAAAFxLJYNXJVxcXNQ7rHe510ahoaH6z39nKyysj1Hk3NvbW2PH3qc5cz60q1lSGSaTSQ9NmKCZs2YpuFMnOTo6SirOYT7lr3/VO+++p1q1al10G/Xq1dPMWbM0ffqbCgkJsSvC7uPjo5tvvllvTJ+ut99516gVBwC4fFvDtxqZEwIDAyusPVKas7OzXQrqo0ePGjVMXFxcNHXaNL300stq2aqVHBwc5ODgIH9/f0178Z+aOm3aJR9UDg4O1sxZsxTapYsxm8XDw0N+zfyMtiaTSePGj9eChd+UGffz8PBQcHCwpr34T332v/8pMCio8ifmMl3J+GPnziH65NPPNGbMGHn/WkPFzc1NnTuH6P2ZM/XAgw8qOyfbWP9yH/D28vLSHSNHqk2bNna/m3Xq1NHNN9+s6dPf1Af/+a98fe3rhzRp0kTvvPuuBg8eYrRzc3OTn7+/3ayirl27acGChZoy5a9q3ry58fvu6OgoPz8/jRw1Sl98+aXGj7//ck+jnSsZa7nYOZ05a5YemjCB+rE3CJOtvORpAIAr8uOPP+r5fzyn3NxcBQcH670Z75cb2JCkqVNfMJ5iGXbrrXrllVers6sAAAAAAAAVKigo0PP/+Ic2biyeffnII3/TAw8+eJ17BVwdv4sZJADwe5KTk6MlixcrNzdXUvGU3IqCIwAAAAAAADeyAwd+1u7duyQVz8xp2erqFpkHricCJABwFdlsNq1ft04//RQpSWrcuLFuLjXdFwAAAAAA4EaRmZmpt96crgM//6zyEg0d+Plnvf7a67L8Wmi+TZs2Cg6+dH0Y4PeCiuAAcIVSU1P15vQ35OVVR4cPH1JsbKysVqscHBx0z733qmVLnqwAAAAAAAA3piNHj2r8+HFq0qSJOgYHy8W5uKj50aNHFRNzUEVFRZKKa2jc/5cHyJKBPxQCJABwhWw2m44dO6bExERjmaOjoyZNelhjxtxzHXsGAAAAAABweZKSkpSUlFTue/W8vfXcc/9Q3759q7lXwLVFgAQArpCDg4OcnZ0lFT9N0aVrV40fN14hoaEymUzXuXcAAAAAAADl8/T01DPPPKulS5Zox47tOnXqlFFT1cPDQ61atdKQoUM1bOgw1WbmCP6ATLbykssBAAAAAAAAAAD8gVGkHQAAAAAAAAAA1DgESAAAAAAAAAAAQI1DgAQAAAAAAAAAANQ4BEgAAAAAAAAAAECNQ4AEAAAAAAAAAADUOARIAAAAAAAAAABAjUOABAAAAAAAAAAA1DgESAAAAAAAAAAAQI1DgAQAAAAAAAAAANQ4BEgAAAAAAAAAAECNQ4AEAAAAAAAAAADUOARIAAAAAAAAAABAjUOABAAAAAAAAAAA1DgESAAAAAAAAAAAQI1DgAQAAAAAAAAAANQ4BEgAAAAAAAAAAECNQ4AEAAAAAAAAAADUOARIAAAAAAAAAABAjUOABAAAAAAAAAAA/D97dx4VdfX/cfzJKDQ22CCkoKK4b+WKa7mUSL9ccsvK+qaWmku5tLvb4oK4lEvllraJ2aKlpqKmuKKmuGuioICaIoKMMTKOMvP7w5ivCLiF6Tdej3M6xz6fz72f93zuZzye+5573/lOwdxOpJw980/GISIiIiIiIiIiIiIi8o/RChIREREREREREREREcl33JxOp/NuByEiIiIiIiIiIiIiIvJP0goSERERERERERERERHJd5QgERERERERERERERGRfEcJEhERERERERERERERyXeUIBERERERERERERERkXxHCRIREREREREREREREcl3lCAREREREREREREREZF8RwkSERERERERERERERHJd5QgERERERERERERERGRfEcJEhERERERERERERERyXeUIBERERERERERERERkXxHCRIRERERERGRHNjtdkaN+pBGDRvw5ZdfZDmXeFWwrwAAIABJREFUlpZG7969CKxTm9WrV92lCOV2XW9s86Pdu3fR/PHHaP74Y+zevetuh3NTZs+aRWCd2vTu3Yu0tLS7HY6IiPyPKni3AxAREREREZF/j927d/HmG29gsViue13devWYNOkjPD09/6HIbl1KSgo7o6Kw2+1s2bKFTp2euafjlZunsRURERHQChIRERERERGRHHl7e1MnMBAPDw8aNWqkCfR/EY2tiIiIgFaQiIiIiIiIyB1gNpv56OOPqVWr9t0O5bZ5eHgwYsRIRowYebdDkTx2L41teno6y375haVLl9Kla1datGhxt0OSOyAlJYVFixYSGRnJwIGvU7NmzbsdkoiIoASJiIiIiIiIiMhdY7FYCAubR0JCAk6n426HI3dIQkI888PCADTOIiL3EG2xJSIiIiIiIiIiIiIi+Y4SJCIiIiIiIiIiIiIiku9oiy0RERERERG562bPmsWMGdOpW68ekyZ9xIkTx5k+fTo7tm/HbrdTtlw5XnrpJVq2bIWbmxt2u50lixczf34Yx48fB6BsuXJ07dKVVq1bYzBk/z1gSnIyixYtIjx8BQkJCWRkZGAymahTJ5A+fftQpUrVbG2GDx/GiuXL6dOnL6/06nXDz+F0Ovli7lxmz55Fq9atGTRoMB4eHjf9HG4lxrS0NN566012bN9+w37LlCnDZ9Nn4Ovrm+1Z51SgfPfuXbz5xhsAWWrJXH3PPn368mKXLoSFzSMsLIzzFgv9+vXn5e7ds/R16NDvzJg+g507o7BarRiNRqpWrUaPnj1o2LARbm5uWa6/Nj6bzcYXc+ewevVqkpOTKVCgAA9Xr84Lz79A86CgbGN9dfsJ4yewd+9epk2bRkzMERo0aMDEiZO432TKNrbp6em8+87bREZG0rp1az74cFS22DL9/NNPjBr1IRUqVGTqtGn4+voCcPz4cRZ8O5+NGzdy6tQpHA4HXl5eNG3ajB49e+Lv7+/qY/XqVQweNChLv4MHDXIdy2l80tPT+eH77/n55584fvw4DocDPz8/goJa0LNnTx4wm3OM1+l0sjMqim+++cY1Dpnv1Wv9+uXYJqfx7vnKK2zduoXZs2ezf98+MjIyKFmyJJ06PcMzzz5LoUKFsvWRnp7O8uXLWPjjj8TExLje6QoVKvBKr140avRIrve/FSdOnGDO55+zZs2v2T5fxYoVc22X03fOaDRSqVIl2rXvwP/93//l+LkAzlssfP/99yxfvsw1Hl5eXlSrVo1+/fpTuUoV1/t4tR5XfUdatmrF6NFj8uQZiIjIrVOCRERERERERO4p4eHhTJ0yGZvNRsGCBXE4HMTGxPDeyJH8cfIPnu7UiZCxY1izZg0FChTg/vvvJy0tjdiYGD744H1Onz5Nj549s0xuR0ZGMnjQu1itVgCMRiMmT0/OWyxs3LiBnTujGDFyJMHBT/yt2JOSkggPX4Hdbmfjhg107Pg0Dz300E21vVMxGgwGnu7UyTWJn1cuZ1xm4sQJ/PzTT/89dvmy688Oh4O5c+Ywa9ZMMjIyMBgMeHt7k5qayq5dOxnQfzddu3Wjd+8+uSaR9uzezZgxo0lMTMRoNPKA2cx5i4U9u3ezb+9e2rZrd90k1Jo1a5g4cQI2mw2ADIcDh9OZ47WFChUiKKgFkZGR7N69h/j4eMqUKZPtuvT0dNas+RWAxk0au57rD99/z4QJ48nIyADAZDIBkJqaypIli9m2bSuh4ydQvXr16z7X3MTGxjJi+DCio6Oz9H/69GnCwuaxefMmxo4NoXKVKlna2e12pkyZzPfffYfDcaX2xQNmM/aLF9m4cQMHDx6ga9duN7y/0+lkzuefM3PmDNzc3DCbzaSkpHDy5EmmTJlMXFwcg4cMyTIW8fHxDBk8KFvMVquVPXv2sH/f/jxJkOzatZNRH35IcnIy9191j8zPFzIulMDAwGyfZ/XqVYwLCcFisQBXvnNeXl4kJyezd+9e9u7dy0+LFjE2JISSJUtmu+ewoUNJTEwE/vtMU1NTiYyMpG27dtnGQkRE7j1KkIiIiIiIiMg9Iz4ujtmzZvLqa/3o2LEjHh4epCQnM2nSRMLDw/n+++84EnOEzZs38867g1zXnDlzhvGhoURErGXJkiW0CA7OMrlttaaRkZFB5+efp2vXbq5J7RMnTvDhB+8TFRXFt/PnU79+A8y5/Ar/ZhQtWpQnn2zJ7NmzaNK06XV/uX6tW43R09OTmTNn5diX3W5nXEgIixf/TMuWLenU6Znb/ky5OXjgAMeOHWP48BG0btMmW5Liyy++YObMGXh4eNCz5yt06dqVQoUKYbfbWbRoEdOmTmHBt99SuXJlnnji/7L1fzYpidDQcVSuXIXPps9wjed5i4Wp06ay+OefWbJ4MeXLl+eFF/6Trf15i4UFCxbQslUrXu37Kt4+Pjf8TLVq16ZkSX9OnfqDPXt255ggOXbsGNHR0fj4+BAU1MJ1PDU1FU9PT7p27UaHjh1d79GB/fsZOXIEcXFxzA8L48NRo3B3dyc4+AmCg5/g9OnT9O3Tm4SEBMaFhuaYADt58iRDhwwhJuYI1apVY9jw4a7VRHFxcYwdM5qoqCimTptKaOh416oTp9PJ1199xffffYeHhwddu3XjxRe7YDKZcDqdHDxwgAkTxvPJJ9PIyMigcOHCuT6bdevXkZKczNChw1zjbbVa+WTaNH788QeWLl1CzVo1adeuPQCXLl1ixvTpREdHExgYyNBhw13P02azEbF2bZaE2u364+RJQseNo2mzZq5xdjgcrFq5kvHjQ0lOTmZ+2DweeughjEajq92KFcsZM3o0drudxx5/nP79B7jis9vtrF69ik8/+YT9+/cxZvQoQsaFusbUYrEwbepUEhMTefLJJ3nrrbdd75fFYiE8fAWFPa88y1d69eKVXr1yXZUlIiJ3l2qQiIiIiIiISJ6zWCz06N6dwDq1c/xv9epVObZLSkqi49NP89xzz7km3L19fBgw8HUqVKhIcnIya9es4eWXu2e5plixYvTt2xdfXz9OnjzB7l27svTr5eXF5ClTeOedd7OspPD39+fV117DbDZz/PhxEhIS/tbndnNzo3uPHmzZuo0RI0be0vZaeRnjsl9+YenSJZQvX54ePV+5pThu1o4dO+jduw8d/kpSXS02NpaffloEwNtvv0Ov3r1d2xR5eHjw3HPP0bVbN2w2G0uXLCE9PT1b/3FxcVSuXIWxISFZEhUPmM0MGzacTp2eweFwsHTJEs6ePZut/eHDh6lcuRLvvjvoppIjAAEBATRs2BCHw8HWLVu5dOlStms2b9pEcnIyNWvWypIAK1W6NLM/n8NLL7+cJcn20MMP07tPHwwGA4cPR5OSknJTsWRyOp1/bU91hOrVqzNlytQsW62VKVOGYX8lH3ZGRbF9+2+uc4cOHWLRooUAvPxyd3r16u1axeHm5sZDDz/MlKnTqFGjhmt1SW7i4+IYMHBglvE2mUy81q8fdQIDcTgcbNq4yfXMkpOTOXTodwCeefbZLGNoNBpp2aoVT7Vte0vPIid//PEH9es3yDLOBoOBJ1u25OWXr2xlFR0dzalTp1xtzpw5w7xvvsFms/HUU20JCRmXJT4PDw9at27DqNFj8PHxYfv27axbF+E6f+zYUeLi4jCbzTzz7LNZ3i+z2cxzz3WmYaNGf/uziYjInacEiYiIiIiIiNwzihcvzhNP/F+22g/FihWjQoXyAJQqVYpWrVtnu6Z48eKUKRMAXEm0XK1evfrUq1c/x3v6+RV3bRd0+vSpHK/5J+RVjFFRUUyf/hkeHh681q8/AQEBdyJcqlatStNmzXI8t3bNGv744w+qV69O86CgbOfd3Nx4rNljFC1alCNHjpAQH5/tGk9PT559Lue6Fm5ubjzVti0+Pj6cOHmS2JiYHNs/1bbtLSWH3NzcaPRIIzw8PNi3by8nTpzIct5isbBlSyQGg4HGTRrj7u7uOvfkk09Svnz5HPstVqwYhQsX5ty5c5w69cdNxwNw6tQp1q2LwGAw0KFjxxyTPQFlylC3Xj3sdjtbt251Hd+9axeJiYlUr16dZ559NseaKmazmU7PPJNj3Z6r1alTh8cfb57tuKenJw0bNATg/J/nuXjxIgAFCxZ0rdiwpFpu/gPfIh8fHzo980yO41yrdm28vb2xXrjAuXPnXMd3797FkSNHKFnSn67duuX6jtSpU4fHHnsch8PB2rVrXVu1FTIWwsPDg0uXL2NNs96ZDyYiIv8IbbElIiIiIiIiec5sNt/WNjLFixfHJ4cJYDc3N8qUKQtc+aW+t7d3tmvuN5lck8fWCzlPWiYnJ7Nv3z5ijhzhSMwRYo4cISkpyVX3417wd2K0WCzM+Xw2586do3fvPjRt2vSOxVmxUqUctyO7dOkShw8fBqB+g9y3LDN7eVGoUCFOnz5N4pnEbPUaypQpS4UKuW9R5u/vT0BAADt37syyOiBTiRIlKFu23K18JADq1AmkatWq7Nmzhz27d1O2bFnXuUO//86RmBjKlStPw4bZVwg4nU5Onz7N/v37OPT7IY4dO0pMTCzJyWex2Wy3tX3b8YQEks6epXjxEtStWy/X6x70eRC4UpPEZrNx3333sX//PgBq1Kx53XtnJnCu56GHH861WLl/qSvF588kJpKWloanpyc+Pj7UqlWbw4cPM3XqFBLPJPJ85+evu5pn+PBhrFi+PMdzORWthyurfvz9/XNsU7RoUTw9PUlISCA5+b+rjA4ePIjD4aBy5crZaotczc3NjXr167Fw4Y+cOH4ci8WC0WikdEAAVatWY8OG9bz/wfv07NmTNm2ecq3OERGR/x1KkIiIiIiIiMg9w1CgwA1/yV64cOEstQRycu2WS/FxcYwZM5pdu3Zl20rI29sbm83mKq59t/zdGJ1OJzOmT2fbtm00aNAg1xUDeSVzQv5aFy9e5Pyf5wGYPWsWs2flXCfl2jbXMhYyZlmhcS2DwYChQAEg+4ohuLIV143ek5yYzWYaNXqEPXv2ELEugidbtsRoNOJ0OlmzZg0XrNYsxdkz7dy5k9Bx44iJOZItTi8vL+x2+y3HAldWZVywWrlgtdL2qTY3vN5ms3H58mUuX77M2eRkAHyL+d6g1Y0VMBS4pevd3Nzo178/VmsaK1asYO6cOXz15Zc0bNiQF7t0pW7dutm+6+YHHsg12VHEqwiGHN7nm/k741qZfz+U9C953XcMriRZzGYzDocDp9MJQKFChRg8ZDAXL9rYtm0b40NDmTplCo83b86LL75I5cpV7uh3T0RE8o4SJCIiIiIiIvKvFh8fzzvvvE1sbCylS5emfYcO1KtXH19fX7y9vUlMTHQVyf5fjnHFiuUsWbKYEiVK8Nbb7/ytYvP/a65dVfB3Pdq4MT/88D2/HzzI0aNHqVatGmfOnGHPnj3ZirPDlW3NhgweRHJyMtWqVaNd+w7UqlWTBx8sipeXV5YC3XeDl5fXXbmvyWTigw9H8cJ//sO8efOIWLuWzZs3s3nzZho0aMB777+Pr6+f6/p33h3EO+8Ouiux3ipfXz8++fQzduzYwbxvvmbr1q2sWL6cleHhtGzZkkGDh2hFiYjI/wAlSERERERERORfbdXKlcTGxhIYGMiEiZPuycTB340xPi6OOZ9/DkDfV1/NtRbGP+Hq2hP9+vXn5e7d78h9rFYrZ5OSMBgMFPP9+yskrlaxYkVq1qzF2rVriNqxg2rVqrFnz26OHo3lsccez1Kc3el0svjnn0hOTqZ169YMHzHyluqe3Mh9992Hh4cHJUqU4LPpM7KtXMnNBauVAn+trIhPyF7j5WoXbRe5dPky7gXzfprIzc2NKlWqMnr0GKxWK0uXLmXWzBls27aNcSHjGBsSkuvWXXdKZuIi6cwZnE7ndVd7JCUlYbFY8PX1peA1z8dgMFC/fn3q169PSnIy87+dz7fz57Ns2TJMJk/eHTRIK0lERO5xKtIuIiIiIiIi/2qZk8P16tXPMfGQkpJy12uQ/J0YLRYLoaHjiIuL48mWLQkOfuK698pcbWFLt3Hp0qUcr4k7FofFcnuFtY1Go6tux7FjR13bEt2qkydO5Lh1VqaDBw/wxx9/4OvrS7lyt15r5Hrc3d1p3KQxBoOB337bxvnz54lYGwGQrTi71Wol8cwZAJo0bZpjcuTcuXOkp6ffViylSpXGx8fnlgu8328yUap0aQAO7N9/3fv/tv03LvwD3wGTyUTnzp0ZMfJKEmn//n3ExMTc8fteq1q1ahgMBvbt2098fO7JI6fTyfbftgNXauJcL3Hp7eNDv3796dOnLwC//baNM3+9FyIicu9SgkRERERERETyhbPJZ7Mds9vt/PjDDyT/VavhbrvVGJ1OJz98/z3bt2+nevXqvPbqazesqVCuXDnuN5k4fDia3bt3ZTtvsVhYvnzZ7X8I4NFHH8XT05NNmzaxMyrqtvo4deoUS5csyTHBYrFY+OH777Hb7VSvXiPXuhV/R8OGjShXrjwHDhxg/bp17Nu3N9fi7JnOJmUfv6tjvR3+/v5Ur14Di8XCooULb6mfhg0b4uHhwc6dO4mIWJvjNbGxsaxaufK2YrtdZcqUxcfHh4yMDDIyLv+j94b/ju3Jkyf4+quvcn2mO3fuZN26CIxGI0+2bHnD7xZApUqVuN9kylKzRERE7l1KkIiIiIiIiMi/WkDpAABWr1pF+IoVrgLoKcnJjB8fyvr1626rmHdOnE4nc+fMoVHDBowa9eFNT2bfbowbNmzgiy/mUqRIEfoPGIi3j88N71WlalUqVqiA3W7nk2nT2Lt3r2siNy4ujvffe4/Y2Ni/tU1UzZq1CApqgcVi4Z133mbBggVZVsA4HA6OHj3KhPGhbNiwPsc+TCYT3323gDFjRpNyVXIoLi6OIYMHsW3bNnx8fOj8/PM3NXF9q4oVK0bNmjWxWCyErwwnMTExx+LsJpMJ32LFAFiw4Ft2bN+e7XlGR0fn+jw9PT1dW4RtWL8h20oPd3d3Oj3zDD4+Pixbtox33nmbQ4d+zzL5npaWxsqVKxk3LoS0tDTX8Xr16lMnMBCbzcbECRP4adEi1zvpcDhYv349b77xOiaTifvzuF7GmTNnmDz5Yw4cOOB6n+HKipulS5aQmJhImTJlKFs2b1f/3AxfX1+6vdQNo9HI0qVLGDJkMHFxca7zdrudZct+YcTwYSQnJ/N///ckjRr9NzF26NDvfPLJNOLj4rKMQ0pyMkuWLOaC1UqVKlXxuer7WKyYL15eXlgsFrZEbsnyTDLvOWrUhzRq2IC5c+Zk6XfF8uU0bdKYAf37ZVnZdb2/b67Xn4iI/JdqkIiIiIiIiEies1gs9LhB7YlxoaE33A4qL7Rq3Zpff/2VmJgjDBs2lFGjPsTjvvs4b7FgNpvp1as33323IE+KtCclJREevgK73c7GDRvo2PFpHnrooTsSY3x8PJ9+Mg2bzYbNZqPXKz1z7b906dJMnzETPz8/zGYzz7/wAjExMcTFxfHyXxPFmffz9/enT5++TJ/+2W0/Bw8PDwa+/jpnzyaxefNmJowPZcL4UEwmE+7u7qSmprqurVW7do59VKlSheo1avDN11/z06JFPGA2Y794EZvNBoDZbObddwdRs2bN247zetzc3Ah+IpiVK8PZGRVFkSJFshVnz7zu6U7PsHXrVk6cOEHv3r1cNS6sViv+/v688kovZs2ameN9PD09adasGTujoli+fBkrV4ZTpEgRypYtx8RJk/D09CQwMJA33niTkJCxbNq4kU0bN2IwGPD29ubcuXNkZGQAULdevWx9v/vuIIYMHkR0dDSjR49i9OhReHt7Y7FYyMjIoEGDBjz/wgu8N3Jknj4/h8PB+nXr+ObrrwGyjb2vry/9Bwy4azWBWrZsRUpKCrNmzmRdRATrIq6sFDGZTK7VWgaDgdatW/PW229nSXDZbDYWLVzIF3PnAuDl5cWlS5dcScDKlSvTp2/fLIm74sWL06BBQ+Lj4/n889nMm/cNJpOJ+g0aMHr0GI4cOcLGDRuw2+2Eh6+gzVNPUeyvxNvmyM1YrVb279/PsWNHqVXrynfGarWy7bdtOf59k5KSws6oKOx2O2vWrKF9+/Y3lUAVEclvtIJERERERERE/tVKlizJ7Nmz+c9/XsTHxwebzYb94kUaN2nCZ9On89jjj+fZvYoWLcqTT7bEw8ODJk2bZinmndcxZhZ2vx3BwU8wa/ZsmjRpislkwmazkXH5Mm3btuPTz6ZTsdLNxX09ZrOZyVOmMmr0aGrUqIHRaMRqtXL+/Hl8ff0IDn6C6TNm5ph0AHAzGOjWtRtTpk6lZq1aWNPSsNls+Pn50blzZ+Z/u4AWwcF/O87rqVSpMuXLl8dut1O1WrVca53UrFmTuV98Sdu27TCZTK6J8sznWaVqlevep3Pn53nr7XcoWbIkGRkZnDt3Dh8f7yxFwVu2asX8bxfQsePT+Pn54XA4OHv2LEajkapVq/Laa/0IGRviqjGTKSAggBkzZtK376sEBARgMBhITU3F39+fgQNfZ9JHH1O4cOG/+aSyM5vNtGvfnspVqrjG/s8//6Rs2bK89NLLzJsXRu3adfL8vjfLzc2NF1/skuWZ2mw2kpOT8fLyIjj4CWbMmMkHH45yJbwylS4dQPv2HShbtiwFChQgNTWVjIwMKlepwuuvv8Hsz+cQEBCQ7X4DBg7k5e7dXd9xq9VK0aJFAahYsaKrhs2TT7Z0HQd49JFHMZlMPPzww1lW3JhMJhrUb5Dj3zfe3t7UCQzEw8ODoKAginh734nHKCLyP8/NqTV2IiIiIiIiInKPmD1rFjNmTKduvXpMmvRRtgl/ERERkbyiFSQiIiIiIiIiIiIiIpLvKEEiIiIiIiIiIiIiIiL5jhIkIiIiIiIiIiIiIiKS7yhBIiIiIiIiIiIiIiIi+Y4SJCIiIiIiIiIiIiIiku+4OZ1O590OQkRERERERERERERE5J+kFSQiIiIiIiIiIiIiIpLvKEEiIiIiIiIiIiIiIiL5jhIkIiIiIiIiIiIiIiKS7yhBIiIiIiIiIiIiIiIi+Y4SJCIiIiIiIiIiIiIiku8oQSIiIiIiIiIiIiIiIvmOEiQiIiIiIiIiIiIiIpLvKEEiIiIiIiIiIiIiIiL5jhIkIiIiIiIiIiIiIiKS7yhBIiIiIiIiIiL/KhaLhQH9+9G0SWNWr151t8O562bPmkVgndr07t2LtLS0ux2OiIjIPUMJEhEREREREckzu3fvovnjj9H88cfYvXvXTbUZPnwYgXVqM3z4sDscneQXx44dZf/+/VitVtavX3+3wxEREZF7lBIkIiIiIiIiIvKvUrZsOR5++GFMJhPNmjW72+GIiIjIParg3Q5ARERERERE5F6RkpLCokULiYyMZODA16lZs+bdDklug9lsZuq0T+52GAAcOHCARYsWct5ynvfefx9PT8+7HZL8JT09nWW//MLSpUvp0rUrLVq0uNshiYjIP0wJEhEREREREZG/JCTEMz8sDACn03GXo5F/g8jNm/n5p5+oW6/e3Q5FrmGxWAgLm0dCQoK+7yIi+ZS22BIRERERERERERERkXxHCRIREREREREREREREcl3tMWWiIiIiIiI3POOHz/Ogm/ns3HjRk6dOoXD4cBkMlGzZk3atWtP86AgDIacfwN4+PBh5n3zNZs3byY1NRWDwUDx4sVp0qQJfV99DU9PT2bPmsWMGdOztOvRvbvrzy1btWL06DHEx8czZPAgUlNTGTN2LLVr17npz+BwONixYwfzw8LYt2+vK5ZSpUrRvn0Hnnn2WQoVKuS6/vTp0/Tt05uEhIQb9t2gQQMmTpzE/SYTw4cPY8Xy5a6Yc7J69SoGDxpE6dKlmT5jJn5+ftnuOS40lAb1G/DpZ5/yy9Kl2O12xoWOJygoyNVPeno6P3z/PT///BPHjx/H4XDg5+dHUFALevbsyQNmc5b7Xtt/ixbBRESsZd68eezft4+MjAx8fHwIDg6mS9durrgypaWl8dZbb7Jj+3b69OnLi126EBY2j7CwMM5bLPTr15+Xu3fPct240FCCg58gImItQ4cMoVChQnz08cfUqlU7x2dz7tw5Xh84kP379/H662/QpWvXWx6/q++facf27TRr2sT1/5lxXe3EiRPM+fxzNmxYT2pqKgUKFKBChQq88MJ/aNW6da7veHp6OsuXL2Phjz8SExNDRkYGfn5+tGgRTK/evXNsk9N4BAW1YPmyZXz9zdccO3oUgLLlytG1S9dc73/eYuH7779n+fJlrnfAy8uLatWq0a9ffypXqZLr/a99Vn369KXnK6+wdesWZs+e7XonSpYsSadOz2T7jlzN4XCwfNky5s8Pcz0DLy8vmjZtRo+ePfH393ddm/n+X23woEGuY3Xr1WPSpI9UL0ZEJB9QgkRERERERETuWQ6Hg6+//orZs2Zhs9kAMJlMuLu7k5qaSmRkJJGRkQQFBTFs+AjMV03IO51Ovpg7lxkzppORkYHBYMDb25vU1FROnjxJZGQkXbp2u6VJ0PXr1hEdHQ3AL7/8ctMJEpvNxsgRw1mzZo3rmLe3NxaLhfj4eKZMmcyOqB2MHRtyy5OyRqOR5zo/z/0m0y21uxGr9QJDhg5h65YtrmMOR4brz7GxsYwYPsz1PEx/3f/06dOEhc1j8+ZNjB0bkusE+aVLlxg9ehRLFi/G4XC4nkdycjILFiwgIiLiukmoyxmXmThxAj//9NN/j12+nOvnqVWrNpUqVWb//n1s3Lgx1wTJ7t27OHw4mpIl/WnStClwZ8cPrryry5YtY3zoOKxWa5b+o6Ojee+9kWzZEsnQYcNdzznTyZMnGTpkCPv37wNwvednzpxh3rxvOHLkMBUrVrphDJcuXWL0qFEsXvwzRqMRz8KFOW+xEBsTwwcfvM/p06fp0bMnbm5urja7du1k2NChJCYmAvCA2YyJy2sfAAAgAElEQVT94kXXd7Ntu3Y3TJBc+xzmfP45M2fOwM3NDbPZTEpKCidPnmTKlMnExcUxeMgQPDw8srRLSUlh5IgRbNkSCVz5Tpg8PUlNTWXJksVs3ryJ4SNG0LRps5uORURE8gclSEREREREROSe5HQ6mTtnjmuytFOnTvTu3QdvHx8ArFYrixYuZPbsWaxZswZPz8JZJk937NjOV199ibu7O2++9TYdO3bEw8MDp9NJQnw8K8JXuH4R/0qvXrzSqxe7d+/izTfeAMhxlUGzxx4jPHwFqamptGnT5qY/y+XLl7GcP0/lypXp++qrNGjQEA8PDxwOBz/88D1Tp0xhS2Qka9b8Srt27QHw8/Pjp58X59ifxWJhyOBBbNu2ja7dutH0r4n8vLRx4wZO/fEHH308mSZNmmRZPZA5KR8Tc4Rq1aoxbPhwqlSpCkBcXBxjx4wmKiqKqdOmEho6PsekweLFi4k5coShQ4fRuk0b19hs3rSJCRPGc+LECSaMH8/kKVMpVqxYtvYHDxzg2LFjDB8+wtX+eooUKULdenXZv38fu3buxGKxZEmowZV3bkvkFux2Ow0bNiQgIAC49fHz9PRk5sxZAK7VSddblbB69SpCxo7BbrfToWNHBvQfwANmMw6Hg4iICELHhbBq1SrKl69A9x49XO0sFgtjRo9i//59+Pv78+Zbb7vGym63s3zZMj797FN27dp13WcDsGDBAtL+/DPLeJ85c4bxoaFERKzlm2++pmatmtSrV99172lTp5KYmMiTTz7JW2+97fpuWiwWwsNXUNiz8A3ve7V169eRkpyc5Z2wWq18Mm0aP/74A0uXLqFmrZqu7whcWYEyYsRwtm7Zgr+/P++88y6PNm6Mm5sbKcnJTJo0kfDwcD795FPKl69AyZIlCQ5+guDgJ7KtoLl2RY+IiPz7qQaJiIiIiIiI5DmLxUKP7t0JrFP7hv+tWL48xz4OHTrEokULAejVqzeDhwx1TcDClRULXbp2ZfCQIRiNRtas+ZU9e3a7zu/etZu0tDQerl6dNldNoLu5uRFQpgx9+vTNceL9egICApj/7QKWrwi/pe21DG5uBLcIZs7cL2jSpKkrFoPBwLPPPkdQUBAOh+OmJrKdTidfffkl27Zto0GDBnTu/HyWX/XnlV07dzJs2HCaNWuWJTnidDr/2srpCNWrV2fKlKmu5AhAmTJlGDZsOGXKlGFnVBTbt/+WY/+Hfv+dDz74kA5/Ja7gytg0btKEcaHj8fX1JTo6mjW//ppj+x07dtC7d58s7W8kKKgFPj4+xMbGcvhwdLbzp06dYseO7dxvMhEUFOR6rnk5ftdKSU5mflgYNpuNLl26MmzYcNfWZAaDgaCgIPr3H0DBggVZuXKla7UGwLJlv7B9+3Z8fHwY+d77WcbKw8OD9h06MC5kXK7bUl3t9KlTDBs+IksfxYoVY+Drr1OuXDnS0tLYvHmz6/pjx44SFxeH2WzmmWefzfLdNJvNPPdcZxo2anRLzyI+Lo4BAwdmGVOTycRr/fpRJzAQh8PBpo2buHTpkqvN6lWr+G3bNkqUKMFHH0+mcZMmrnHz9vHh3UGDCQwMJCbmCGuvWgEkIiICSpCIiIiIiIjIPWrTxo0kJiZSvXp1nnn22VyTAI8/3pw6deqQlpbGr1dNpmf+Uj/9wgUuXrz4j8Scm/tNJjo980yOE9Vubm6UKlUauDJBn5aWdt2+VqxYznffLcDX15f+AwZmWwWRVxo0aEiNmjWzHT916hTr1kVgMBjo0LFjlonxTAFlylC3Xj3sdjtbt27Nsf9HHnmUBg0b5niuSpUqNG58pV7Hzp07s0yIZ6patSpNm93alklly5alcuXK2Sb7M23f/hvHjx+nYoUKVKn636RPXo7ftXZE7eDAgQOULOlP23btcnzPGz3yCGXKlCEhIZ7o6EPAlW2/tm3bhsPh4Km2bQkMDMyx/zqBgTRu3PiGcTz22OPUqZM96VeqVCkeevhhAM6ePes6XshYCA8PDy5dvow1zXpTn/VG6tSpw+OPN8923NPTk4YNrrwr5/887/o+p6WlEb4yHIfDwRP/93+UL18+W1uz2ezqc0fUDtdWfSIiIqAttkREREREROQOMJvN1y2EfbXMouJXu3TpEocPHwagRs2a100CFCpUiBo1ahIZGcnxhAQuWK3cbzJRq3ZtfH19OXDgAG+9+QavvtaPunXr5lro+p9gt9uJjY0l+tAhfj/0O0cOH+b06USSks7cVPv4+Hi+/OILAPr170/Vqybx81qNGjVwd3fPdvx4QgJJZ89SvHgJ6tatl2v7B30eBK7UJLHZbBiNxiznGzRokGP/cCXpULt2bRYu/JEzZ86QlpZGkSJFslxTsVKlW04OFSpUiBbBwWzdupVdO3dx7tw5V7+XLl1i08ZNOBwOHn+8eY59/93xy8nBgwdxOBxUr/6wa0uvaxmNxiv1Pex2Tp44CUBycjLHjh7jfpOJ+n9te5WTqxM411O7du1ck5AlS5QEICkpibS0NDw9PSkdEEDVqtXYsGE973/wPj179qRNm6ey1Ui5FQ89/HCuq138S10psn4mMdEVQ1JSEidPnOABs5lHH809CfRg0QeztL32XRQRkfxLCRIRERERERG551y8eJHzf54HoExAmRteX6bslWsyHA4cTidwZYXB0KHDGDt2DPv27aNvn974+vrRsWNHOuay8uFOcTgchM2bx9wv5nLeYsly7uqC2NeTnp7O5I8/JjY2lnbt2tOiRfCdDNk1qXyt83+e54LVygWrlbZP3bgOi81my7F4usnz+hPpBd2vTFmcP2/JcQVQZgLmVtWrV59SpUpx+HA0+/btdRXuPnLkCHv27M5SnD1TXoxfbjJXZYSHhxMeHn7D6zNXqCQlnSEt7U9M99+Pl5fXbd37apnP+2YVKlSIwUMGc/HilZUs40NDmTplCo83b86LL75I5cpVbnnrtwKGArd0vcWSyoULFzhvsfBKzx43vD63d1FERPIvbbElIiIiIiIi/1qNmzThhx8XMmTIUMqWLUti4mmmT/+M9u3bsXDhjzj/SqbcSZnF5qdOnYI1LY0nW7Zk/ISJLFn6C5sjt7A5cgsvPP/CDfsImzePTZs2Ur16dfr163fTdTf+1xmNRgoWzLvfdxYvXpy6da9s/7Vp4ybXOxC1YwfJyclZirND3ozfneThcR+ehW+tGHpe8fX145NPP2P6jJk8+uijXLp0iRXLl9PlxRd5b+QIrNa82XpLRETkTtEKEhEREREREbnnFCxY0LUNzunE0ze8Pu5YHJDzZLrpr/oRT3fqRHT0IaZPn86mjRv5aNIkHnywKM1usY7FrTp16hTLly+jYMGCDB06jKfatr3lPnZGRTF/fhhFihSh/4CB/+jql2vdd999eHh4UKJECT6bPgNfX987cp8Tx08AUKRIEe6/iSLjN8vNzY2goCBWhK9gz549nDlzBpPJxKbNm7IVZ4e8Gb/rydyS6qm2bXn//Q9uul2BAgUpUKAAf6b9SWJiIiVLlsz1WuuFO5eoMBgM1K9fn/r1618pOP/tfL6dP59ly5ZhMnny7qBBt7yS5GZl1kHx9vbmo48nU7169TtyHxER+ffSChIRERERERG55xiNRipUqADAb9u2YbnO9kXp6ens3bsHgAoVKuRaX8DNzY0qVaoyblwojzzyCDabjYiItXkf/DXOnEkkNTUVPz8/6tXPXivC6XSSlJSUa/v4+HhCQ8fx559/0rnz87kW486UOeF+0XYxx+LmAAcOHLiFT5BVqVKl8fHx4dy5c5w69cdt93O9GNLT09m5MwqASpUrc//fqGuRkypVq1KxQgUSEuI5ePAAv/9+kEO//56tODv8/fG7kapVrtzvVgu8Fy9enAcffJDzFgsH9u/P9TqLxcLePXtuO75b4e3jQ79+/enTpy8Av/22jTNnbr8+y40U8/XF19eP1NTUv/UuiohI/qUEiYiIiIiIiNyTgoJa4OPjw759+/jh++9z3Q4rImItO3fuxNfX96bqchQqVIjyfyVf/sl6BOnp6VhSU7Md37lzJ+vWReTYxm6389WXXxIbG0vz5s15sUuXG94nc8J9z57dHDlyJNv5+Lg4Nm7YcIvR/5e/vz/Vq9fAYrGwaOFC7Hb7bfWz5tdfiY2NzfFc5ph6enry6KOP3nasuTGbzTz+eHPsdjsRa9eyadMm0tLSci3ODrc3fjejVu3alCzpz949e4hYe/MJOx8fH6pXrwHA0qVLiI+Pz/G6tWvWsG/fvtuO73ZUqlSJ+00mHA7HHd3GrkiRItStVxeHw8GPP/xw3USqiIhITpQgERERERERkXtS1apVefbZ5wCYNWsm40LGkpKc7DpvtVr55uuvGRcSgt1up2PHp6lSpYrr/M8//5xt0tTpdLJ37142btiAwWCgXr16We5ZrJgvXl5eWCwWtkRuweFwZDkfHx/PC893plXLJ9m1a+dNfY7MPpOSkpg9e7brF/UOh4P169czZvSoXLcg+vHHH1i6dAnly5fn1dduru5I5oR7cnIykz/+iLi4ONdnP7B/P8OHD/tbtSHc3d3p9Mwz+Pj4sGzZMt55520OHfo9y0R4WloaK1euZNy4kFxXRVy4cIE333id9evXu56z3W7nu+8WMC4kBJvNRovgYGrVqn3bsV5PYN26+Pj4sHv3brZu2ZpjcXb4e+MHEFAmAIPBwJHDh3NcNRMQEEDbtm25fPky48aF8Mkn07K8506nk1OnTvH57Nks+PZb13E3Nzdat2mDj48PsbGxDB82lAP797vGwWq1MnPmDKZNm0rFSpVu+znl5tCh3/nkk2nEx8VlGfuU5GSWLFnMBauVKlWq4vPXdnC38925GW3btqN8+fJERUXR77VX+e2337J8b202G1u3bOH9998jMTExS1tPT0+K/bVF3Ib1G0hPT8+zuERE5H+DapCIiIiIiIjIPcnNzY2u3bpx/vx5Fiz4lh9//JEff/wRk8mEu7s7qX/9mr9AgQJ0796Drt26ZZmoTjpzhhkzphMSMhaDwYC3tzfnzp0jIyMDg8FA23btaNmyVZZ7Fi9enAYNGhIfH8/nn89m3rxvMJlM1G/QgNGjx7B+3Tqio6MB+OWXX6hdu84NP0eJEiVo0+Yppk//jIiItURErMXb2xuLxUJGRgZBQUEUL16CefO+ydIuKiqKL7/4AofDQWxsLB07tM/1HnXr1WPSpI/w9PSkTJkydHy6I599+ilRUVE83bGDa9stq9VKjRo16NqtG5MmTry5gchBYGAgb7zxJiEhY9m0cSObNm7M9owz48pNl65dWbVyJW++8ToFChTAbDaTkpLiOh8UFMSAAQNxd3e/7Tivp2LFigQG1uXXX1dToEAB2rZtl6U4e6bbHb9MtWrVpmLFikRHR/Nq3z54eXlx6dIlRowcSXDwE673/NTpUyxZvJgv5s7li7lzMRqNmEwmkq9KlmRuXZWpZs2arnE4ePAgXbt2yfIsDQYDvXv3weFwEH3oUJ4+P5vNxqKFC/li7lwA1+fKTL5VrlyZPn37usbvdr47NyMgIIAhQ4cybOhQDh48SN8+vYErK2ysVis2mw2A0qVLZ1vN4unpSbNmzdgZFcXy5ctYuTKcIkWKULZsOSZOmoSnp2eexCgiIvcurSARERERERGRe5aHhwdvvvUWX3/zDcHBT+Dl5YXVanXVhGjfoQPzwubT99VXs62uaNioEcHBT/Dggw/icDg4e/YshQsX5pFHHuHjjyczbNjwbG3c3NwYMHAgL3fvjo+PDzabDavVStGiRQFo9thjVK5cGV9fX9q0aXPTn+Pl7t2ZOm0aNWvVokCBAqSkpODn58fAga/zwYejcpyI/emnRVkmx29Ft24vMWXqVGrXroPRaMRqtWI0GvnPf15kypSprs/zd7Rs1Yr53y6gY8en8fPzcz1jo9FI1apVee21foSMDcl1krlkyZLMmDGT//znRby8vEhJScFoNFK7dh1CQ8czLnR8rttd5QV3d3caNmoIXBn3xk0a57oS5HbGL1OxYsUICRlH06bNMBqNpKamYjQaKexZ2HWNh4cHw4ePYOq0aTzyyCOYTCZsNhvJyck8+OCDPPLII4wLDaXbSy9l679lq1Z8PmcurVu3xsvLi4yMDC5cuEDt2nWYOm0aPXr2vCNF0kuXDqB9+w6ULVuWAgUKkJqaSkZGBpWrVOH1199g9udzsiScbve7czNq167DggXf8dJLLxMQcGXFTuZ3p1y5cnTt1o2p0z7Bz88vW9vOnZ/nrbffoWTJkmRkZHDu3Dl8fLwpWFC/KRYRyQ/cnHdyM0gRERERERERkb+cPn2avn16k5CQwLjQUIKDn7jbIYmIiEg+phUkIiIiIiIiIiIiIiKS7yhBIiIiIiIiIiIiIiIi+Y4SJCIiIiIiIiIiIiIiku8oQSIiIiIiIiIiIiIiIvmOEiQiIiIiIiIiIiIiIpLvuDmdTufdDkJEREREREREREREROSfpBUkIiIiIiIiIiIiIiKS7yhBIiIiIiIiIiIiIiIi+Y4SJCIiIiIiIiIiIiIiku8oQSIiIiIiIiIiIiIiIvmOEiQiIiIiIiIiIiIiIpLvKEEiIiIiIiIiIiIiIiL5jhIkIiIiIiIiIiIiIiKS7yhBIiIiIiIiIiIiIiIi+Y4SJCIiIiIiIiIiIiIiku8oQSIiIiIiIiL/Gk6nk00bN/LC852pVzeQenUD+eqrL+92WNmcPn2aDu3bEVinNqtXr7rb4YiIiIjkSwXvdgAiIiIiIiLy77F79y7efOMNLBZLtnMGg4FSpUrR7LHHeO65zvj5+eXpvZ1OJ3M+/5yZM2fgcDhcx+0X7Xl6n/9lVquVVStXsnTpEmJiYrBara5xadWqNc8++ywPmM037Cc9PZ3ly5ex8McfiYmJISMjA6PRSKVKlejVuzeNGj2SY7vDhw8z75uv2bx5M6mpqRiNRurWq0fXLl2pExiIm5tbju0cDgdr16xhwYIF/P77QWw2Gz4+PgQHB9Ola7c8f5dEREQkf1CCRERERERERP4RDoeD+Ph4vv7qKxb//DNDhw6jRXBwnvV/6NAhFi1aSMGCBenVqzfdXnoJg0EbJ1xtflgYM2ZMz3Isc1ymT/+MtWvXEDIulICAgFz7iD50iJEjRxITcyTLcZvNxt69e9m/b3+OCZIVy5cTEjIWq9Wapc2mjRvZEhlJnz59ebl792xJErvdTmjoOJYsXpwl8ZWcnMyCBQuIiIhgzNix1K5d55aehYiIiIj+pSgiIiIiIiJ5zmw2M2fuXKJ27iJq5y62bN3GTz8v5vXX38BsNmOxWJgyZTKxsbF5ds/du3aRmJhIpUqVad+hg5IjOShcuDB9+77K8hXhrrHZviOKCRMn4uvrS3R0NJM//pj09PQc28fHxzNixHBiYo5QvXp1vvjyK7bviCJq5y42R25h9OgxOa7miIqK4uOPP8Jms/Fy9+5s2LiJqJ27iIhYR4eOHXE6nXz11Zds27o1Szun08nXX33FksWLKVq0KBMmTnTdL2z+fKpVq0ZiYiJTJk8mJTn5jjwzERER+ffSvxZFRERERETkjvPw8KB06dJ06dqVCRMmYjab+eOPP1i7Zk2e3SMtLQ0Af/+SeHl55Vm//yadn3+enq+8gq+vr+uYwWCgefMg+vcfgIeHB/v37yMmJiZb2/T0dCZ//DGxsbE81bYt02fMpEaNGq5ElNFopGWrVjzVtm22dvO++Ybk5GSefroTr73WD5PJBMADZjPvvjuI5s2bk5aWxg8/fI/NZnO1zVwV5OHhwaDBQ2jePMh1vypVqvL+Bx9SokQJDhw4wOpfV+f58xIREZF/NyVIRERERERE5B/10MMPU71GDQDiE+LzvH83gyHXWhaSu9p16uDn50dKSgqnT5/Kdn5dRARbt26hQoWKvPJKLwoVKnRT/UZHH2LPnt34+PjwVNu22cbGw8ODjh2f5n6TiQMHDhAfF+c6t2njRhITE6lTpw7169fP1nf58uUJatECh8NBZGRkluSKiIiIyI0oQSIiIiIiIiL/KKPRSOHChe92GJILg8GAwVAgyzGbzUb4ynDsdjtt2rShZMmSN93f7wd/x2KxULVaNcqVK5fjNeUrVMC/ZEmSkpI4evSo6577D+wH4JFHHs01IVOnTh08PDw4dvQYydpmS0RERG6BirSLiIiIiIjIP+rcuXMcTzgOQEDpnIuBnzhxgjmff86GDetJTU2lQIECVKhQgRde+A+tWrd2bbN0+vRp+vbpTUJCgqvtiuXLWbF8OQClS5dm+oyZeHp68tZbb7Jj+3b69OnLi126EBY2j7CwMM5bLPTr15+Xu3d39eFwOFi+bBnz54cRExNDRkYGXl5eNG3ajB49e+Lv759j3IcPH2beN1+zefNmUlNTMRgMFC9enCZNmtD31dfw9PTMsV3m/b7+5muO/ZUgKFWqFB06dOS5zp3x8PBwXet0Ovli7lxmz55Fq9atGTRocJbzt8uSmkp6ejq+vr7ZEhmnTp0iNiaGokWL5riS43oOHDwAQNmyZTEajTleYzab8fcvxeHDh12rilJTU0mIj+d+kynXxApAqVKl8fHx4c+0P0lMTLyl5I2IiIjkb1pBIiIiIiIiIv8Yp9PJml9/5eDBA/j6+tK4SZNs53/55RdeeL4zS5YsJjU1FW9vbwCio6N5772RjBg+DKvVetsxXM64zMSJE5j+2Wect1iuHLt82XU+JSWFAf378957I4mOjsbd3Z0HzGZSU1NZsmQx3V9+iQ0b1meLe+6cObz4nxdYtmwZ58+fd8V98uRJIiMjXTVSrnXp0iVGjxrFe++N5HhCAgULFsThcBAfH8/kyR8zLiQEu93uuj4pKYnw8BXY7XY2btjAkSNHbvtZZHI4HCxfsZykpCQaNGyYLQF09OhREhMTKVWqFMVLlLjpftPS0khKSgKgTECZXK9zd3fH2+fK8zpx4gQAp0+fwmKxYH7gAYpdVTPlWoULF6Zw4cKct1hITj5707GJiIiIaAWJiIiIiIiI3HF2u53jCQnM/3Y+S5cswcPDg+eff4EqVapkuW716lWEjB2D3W6nQ8eODOg/gAfMZhwOBxEREYSOC2HVqlWUL1+B7j164Ofnx08/LwZg9qxZzJgxnZatWjF69Jgs/V6dnDh44ADHjh1j+PARtG7TJsvqi7S0NEaMGM7WLVvw9/fnnXfe5dHGjXFzcyMlOZlJkyYSHh7Op598SvnyFVyrFXbs2M5XX32Ju7s7b771Nh07dsTDwwOn00lCfDwrwle4Vr1ca8GCBaT9+ScffTyZJk2aYDAYOHPmDONDQ4mIWMvKleEEtWjBo48+CkDRokV58smWzJ49iyZNm1KxYsXbHhebzca+fXuZHzafTZs28uijjzJgwEDc3d2zXHc0NhaHw4Gvnx9Go5FFixayYMECjh09isPhwM/Pj6CgFvTs2ZMHzGZXu0uXLmFLv1IXxORpum4sD/o8CIDT4cDpdHLRdpFLly/j7u5+3XonRqPRdc/Lly7nep2IiIjItZQgERERERERkTxnsVjocdWWVVerUKEi/fv3dyUeMqUkJzM/LAybzUa3bi/Rf8AA13mDwUBQUBAXrFbGjh3DypUrad2mDb7XWVmQmx07djB06DCeats227nVq1bx27ZtlChRgo8+nkz58uVd57x9fHh30GCSkpKIiopi7Zo1dOnaFYDdu3aTlpZG3Xr1aHNV0sXNzY2AMmXo06dvrvGcPnWKkHGhBAYGuo4VK1aMd959l+PHjxMTc4Tt239zJUjc3Nzo3qMH3Xv0uOXPDleSUIMHDcpyrHjx4rz33vtZti+72sk/TgKQ9mcaw4cNZc2aNVk/w+nThIXN49dfVzNm7Fhq164DwMWLFzl/3nJL8Z1NTsZqtXL+z/NcsFrBx+em22auPpH/Z+/O46Kq/j+OvxhkBEEHRQQDFQVT3AFxx33PtMzK/H5bXMr6frPSyrKszMylvmm7S7ZYVpZlbimaW664gJKi4gooAiLKKMg46MzvD2J+EaC4hcv7+Xj0eNQ995z7mfHR9c79nPM5IiIiUhIqsSUiIiIiIiL/mK5duzF9xgzaREQUSI4AbIveRlxcHH5+/vTu06dQO0DLVq0ICAggKSmR+Pi9VxRDcHAwbdu1K3Q8KyuLyGWR2Gw2unbrViA5ks9kMtGhQ0dHvBZL3uqI/L1Fcs6e5dy5c5cVT/v2HQgNDS103MfHh+B6wQCkHz+O3W6/rHEvR0pKCu9Nfo/3p0xxlB37q/wSZFFRm9gUFcUTQ4eydt16omO2s3VbNJOnvI+/vz9paWm8+847HD9+/LrFKiIiInKtKEEiIiIiIiIi15zJZOLzL74o9AJ9+fJlvDLqZcxFvITfvXs3NpuNhg0bUKNG0Zu355dTslqtJB9NvqLYat95J6a/lIHKl56eTvLRo1QwmWjduk2x/St755WCOp6W5ijd1SQkBB8fH+Li4nh+xHC2bNmCzWYrUTwhISFFJoMA/O7IK+GVv6riWujSpSvRMdsd//y+dh3jxr2NV6VKfPvtbJ599hlSU1OL7HvhwgVGDB/B0KFP4u6eVzLLYDDQrl07Xn9jDF5eXuzfv59NmzZecXze3t7FbmZ/KQE1i9/nREREROTvVGJLRERERERErqv8F+gBNWowYsRwNm/ezLSpUxn50ksFEgMnTuRtsB0ZGUlkZOQlxy1u0/NLyd/r4u/M5kzOnj3LabOZx4dcunyVxWJxrKwIDg7mlVdeZfz4t9m5cydPPTkUHx9f+vbtS9++fal0kTJRZVxK96e5h4cHPXr2pHmLFrw08kViYmKY9dVXhf58AOrVq0/7Dh2KHCc0NJTw8HAiIyPZunUrffrcQ7ly5ahcuTJJSUmXjOPEnxuslymT9314eVUusJ9JcSwWC6fNZgwGAwaD8xBtKyQAACAASURBVCXPFxEREcmnFSQiIiIiIiLyj6gREMC///0wBoOBZcsiiYmOLu2Qrqk2ERHM/elnRo16hZo1a5KWlsrUqZ9yzz19+Pnnn65riaxroVKlStx1Vy8AduzYTkZGhqOtRvW8FT3+/n54enoW2d/JyYmAgJpA3n4yZ7OzMRqNlPtzpUnC4YRir52bm8vJjJMFruVerhxljUbMZjOpqSnF9j1z5gxnzpzB09OTKlWqlPTjioiIiGgFiYiIiIiIiPxzunTtSuSySLZt3crs2bOpV78+bm5uAI6STXf37s2YMW/+47G5ubphNBqpVKkSk6e8T8OGDS97DHd3d/rdfz/39etHfPxepk6dyvp165j83ntUruxNuyL2PrmRuHvk/Rn8dXUMQK3AQAwGA6dOnSLn7FlH0qPYcdw9cDEacXFxoWbNmqxft459+/aRm5uLi4tLofPNZjNHjx7BaDQSGJS390sVHx98fHzZtWsnCYcTaNIkpMhrHTmSREZGBgEBAVStWvVKP7qIiIjchrSCRERERERERP4xHh4eDBjwL1xdXYmK2sSa1asdbcF18zYkT0lJueLyWVcj/4V8ZmYmKSnHrmosJycn6tYNZuLESbRq1QqLxcLq1auuUaTXT3ZW3j4nFSqYKFu2rON4rVq18PHxISEhkZSUoldz5Obmsm/fPgD8/P0ciZDQ0FCMRiPx8fEkJxe9b8zBAwc4mpxM9eo1qFOnLgAVK1akbnDev2/evJnc3Nwi+8bExGC1WmnYsBFeFyllJiIiIvJ3SpCIiIiIiIjIP6ply5a0adMGq9XKN998zfHjx4G8jc79/Pz5IzaW1av++WRCxYoVaRreFJvNxk9z5xa5kfzlcnNzIzAoCKDAiowbkdlsZsmSXwFoGt6UihUrOtr8/f1pGh5OWloq3377LVartVD/P2JjiY7ehoeHB61bt3Ycb9y4CcHBwSQnH2XZsshCpcasVivz5v3M2exs2kS0wcfHx9HWuXNnPDw82Lw5ij9iYwtd8+DBg6xcsQIPDw+6dO1S7Gb3IiIiIkVRgkRERERERET+UUajkYcGDMBkMhEfH8+C+fMBqFGjBr179+b8+fNMnDiBjz/+iJN/2QfDbreTkpLCzM8+Y87331+X2Hr37kNgYCDR0dE8/d//sGXLFmw2m6PdYrEQtWkTY8a8QVpamuP4/PnzCyVV7HY7f/zxB+vWrsVgMBAeHn5NYrTb7Xzx+ee0bNGct94aW2SyoihrVq9m9OhX2bVrZ4E+VquVzZs38/R//0N0dDSBgYH07t2nQF8XFxcefLA/Pj4+LFq0kHfemeT4s7HZbPz++++MHfsmZrOZzl26FCiHZTKZ6Hf//bi6uvL1rFnMmDGd7Oy8lSonMzJ4551JrFq1iqCg2vTte1+B6zZu3IROnTpjNpsZO/ZNfv/9d2w2G3a7nbhduxjzxuscO3as0DVFRERESkJ7kIiIiIiIiMg/rnHjJnTr1p0ff/yBX36ZR5uICIKDg3nk0UdJSU1h4YIFfPnFF3z5xRe4urri7u5eYNPwJ5986rrEVaNGDUa98gqvvvIKu3fv5qknhwLg5eVFdnY2FosFgOrVqxdYCZF+/DjTpk1lwoTxGAwGKlWqxKlTp7hw4QIGg4HeffrQo0fPaxJjeno6kZFLsVqtrFu7lr5976N+/fqX7Jd7PpelS5awdMmSYs8JCqrN2LFjqVGjRqG24OBgRox4nvHj3+aXefP4Zd68Qud06tSJZ555ttA+I9279+DIkSPM/OwzZkyfzozp0wu0+/v78+ro0fj5+RU4bjQaeXrYMFJSjrFlyxZGDH+uxNcUERERuRQlSEREREREROQf5+TkRL/772f9+nUcO3aMH36Yw6uvjsZoNDJ69Gt07tyZ7779ltjYWEdionLlytx555307tOHdu3aX7fYQkJCmTPnB2bNmsXq1as4cuQIGRkZuLq6UqtWLdpERNC37334+vo6+rRo2ZKDBw+yfXsMJ06c4MSJE3h6elKvXj0efLA/rVq3xmC4NkUcvL296d69B599NoOItm2pXbt2ifq1atWa0aNfY9GihSQmJpKZmQngiDP/ezUajcWO0blLF+oGB/P5zJmsXfs7mZmZuLq6Ehxcj/79+9OxU6ciP6fBYOCJJ4bSqFEjPp/5OXv27MZiseDr60unTp0ZMmQIFUymIq9ZqVIlJk95n7k//sj8+b9w5MgRnJycCAoKYsCAf9Hzrruu2XcrIiIitxcn+9+Lf4qIiIiIiIiIiIiIiNziNMVCRERERERERERERERuO0qQiIiIiIiIiIiIiIjIbUcJEhERERERERERERERue0oQSIiIiIiIiIiIiIiIrcdJUhEREREREREREREROS2owSJiIiIiIiIiIiIiIjcdpQgERERERERERERERGR244SJCIiIiIiIiIiIiIicttRgkRERERERERERERERG47SpCIiIiIiIiIiIiIiMhtRwkSERERERERERERERG57ShBIiIiIiIiIiIiIiIitx0lSERERERERERERERE5LajBImIiIiIiIiIiIiIiNx2lCAREREREREREREREZHbjhIkIiIiIiIiIiIiclv57bflhIWGMHToE2RlZZV2OCJSSsqUdgB/d+TIEZZFRrJmzWqSkpLIzs4GwN3dnerVq9O8eQvuufdeqlWrVsqRisitzmazsX79Opb8uoTt22M4ceKEo83T05OqVavywosv0qRJSLFjZGdns3r1apZFLmX37t1kZmYCefe0oKAg7r67N127dcPd3b3EcSUkJPDMsGEkJx+la9dujH3rLVxcXK78g4rITedkRgbz589nxcoVJCYkYLFYcHZ2JigoiPv69aNnz7twc3O75Dg5OTksWfIrP//0EwcOHODChQu4urpy55138sTQobRs2arIfvv27WP2N1+zYcMGMjMzcXV1pWl4OI88/AihYWE4OTkV2c9ms7Fq5UrmzJnDnj27sVgseHl50aVLFx5+5FF8fX2v6nsRkRvDjh3bGTF8OGazuVCbwWCgWrVqtGvfngcf7K//78m7N27bto15P/9c4JnT09OT1q1b8++HH+HOO++86Bipqal88/Us1qxZQ2pqKs7OzjRo2JABDw2gY6dOGAzFz428mr4iItfD6NGvsnTJkkueN3HSJLp06foPRCQitzLnMWPGjCntIADS0lJ5a+ybTJo0kS1btgDQpEkTmjQJoW7duvj4+pJ89CgbNqznhx/msGvXLuoF18PT07OUIxeRW1FycjIjhg9n1ldfcejQQc6ePVug3WKxcOLECVq1akVgYGCh/na7ncWLFjF8xHCWLvmVI0eOYLFYHO25ubmkpaWxdu1aFixcQEVPT+68885iXyr+1ZrVq1m8eBEAmZmZNGvWHG9v76v8xCJyM3l7/Nt89923ZJw4wfnz54G8+05GRgbr1q0jPn4vrVq3xtXVtdgx4vfu5dlnn2XBgvlkZGRgt9sBOH/+PGlpaVSvXoOwsLBC/ZYuWcLIF18gLi7OcV87f/48SUlJLFmyhDLOZWgSElLofma1WpkwYTyffvIJKSnHHHHn5OSwa9cuVq5YQb369ahateo1+Y5EpPSkpqaybNkyzp07V6jNbrdjNpuJjY3l18WL8fPzo1YRz1K3k9jYHbz4wgvs3r27wDOnxWJh//79RC5diq+vL7Vr1y6y//btMTz7zDA2b97smAFtt9tJS01l1aqVHD9+nJYtW+Ls7HxN+4qIXC+rVq3iwP79lzyvc5cuRf4eL6lDhw6yYsUK7vDzo1u3bhiNxiseS0RuXjfECpKtW7fwxuuvk56eTtt27Rg27BkCAgKKPPdkRgZffPkFCxcsYODAx3h51Ci6dOlaopeKIiIlcfz4cV584Xni4+Op5OXFgw88SJeuXfHx8QEgIyOD3bvj+G35cpycCs+os9vtfD5zJtOnT8Nms1HJy4t+/frRqVMn/P3zVr+lpaXx2/LlzJs3j7S0VMaOfZO0tDQGDxly0ftZTk4OK1euoILJRGCtQLZvjyF62zbq1at3fb4MEbkhVfGuwqhRr9Cla1dMJhOQl4D45Zd5fPLxx2zYsIFpU6cy8qWXirynJCYm8tprozl48CANGzZkxPMv0KBBAwwGAxaLhdWrVjkSGH8VHR3NlCmTsVgsDBw0iIEDB+Hu7s5ps5kPP/qQBfPnM2vWV9SrV48WLVs6+tntdr6eNYuFCxbg7e3NCy++SPv2HTAYDOzdu4e3x41j9+7dfPD++0yePIVKXl7X78sTkX+MyWRi8pQpjtW2VquV1NRUfl+zhi+//AKz2cwHH7xPzVq1ruoF119t2rSRBfMX4O7hzmuvvX5NxrzenJ3L0LlzF/rccw/BwcGOFRsJCQm8M2kimzdv5qOPPiSgZk2Cg4ML9E1MTGTC+PGkp6fTo2dPRgwfQSUvL3Jycvjm66+ZNesrFi5YQIP6Dbi3b99r1ldE5J/Qo2dPxo17u7TDEJFbXKmvIImOjuaVUaOwWq28MWYMTz31HypWrFjs+W7lytGqVWuaNWtGVNQmfl28mKp3VKV27YsvORYRKal5P//Mr78uxsvLi4kTJ9GrVy88PT0pU6YMZcqUoUKFCgQGBtKla1dq1apVqP/SpUv48MMPyM3NpUOHjnz44UdERERQqZKXYwxPT09Cw8K45957SUk5xv79+9m1a+cl72f79+/n29mzqeLtTc+77iJq0ybOnj1L+w4dLjpTXERuLc1btKBe/foF/r93dnamQYMGnD9/nm3btpGdnU37Dh3w8PAo0DcnJ4e3x41jx47t3N27NxMmTsLf39+RSClTpgy1a9emTp06hfpNmTyZvXv3cP/9DzB8+AjHLLuyrq60aNGShMOH2bt3L2fPZtOuXXvKlMmbi7N3714+eH8K58+f540xb9KhQwfH9SpX9qZx4yZs2LCew4cP41vVlwYNGly3705Err/8FSQA3bp3x9c3b2WYs7MzJpOJxo0b06BBA9auXcuJEyfw8vIqcsXalZg+fRrLlkVSs1YtOnbsdE3GvN58fHyIaNuWKlWqFEhqe3p60qhxY7Zs2czRo0e54447CAn5/9Kudrud6dOmsX79OiIi2vLmm2OpUKECAC4uLoSGhZGdnc2OHds5fjydDu3b41au3FX3FRG53vJXkNSuXfu63su1gkREoJQ3aU9MTGTSxAkAjHnzTbp27VbilSD1GzRg/ISJVKpUifenTCE2NvZ6hioit5H4ffEAhIeHExoaell9ExISmDZ1GhaLhebNm/Pa669TqVKlYs93d3dn5Esv07x5cywWC19+8QVHjhwp9vyVK1eQkZFB8xYt6NChA7VqBbL/wAH27tlzWXGKyK0rvFk4JpOJU6dOkZJyrFD7mtWriYraRFBQbR5//IkS7VUCEB+/l9jYHXh5eXF3796FntmMRiN9+95HOXd34uLiSExIcLStX7eOtLQ0QkNDadasWaGxAwMD6dS5MzabjY0bNxYoSSgit6b6DRrQsFEjABKTEks5mhtXtWrVqFO3LgAHDx0s0JaSksLmzVEYjUZ69+ld6H7u5OTE3b17U7VqVQ4dOsiuuF3XpK+IiIjIraTUEiRWq5XPZ37G4cOH6d//Idq2bedos9lsLF60iAceuJ/wpmF06NCeTz75mK1bt9CxQ3s+mzEDgDp16jBo0GBOnTrFnO+/Jzc3t7Q+jogIAIsWLSQ5+Sg+Pj4Me+ZZR+mbizGZTDwxdCgmk4lDhw6xZvXqIs87deoU27Zuo5y7Oy1btKRKlSo0btyYs9nZrFy50rF/gIgI5M3UdnYuWE3VYrEQuSwSq9VKr1698PPzK/F4e3bvwWw2E1yvXpGr5wACg4Lw9/MjPT2dQ4cOOa6Z/2KtVavWxSZkQkNDMRqNHD50mIyMjBLHJSI3J1dXV8qXL1/aYdxU8lfl5TtwYD8pKSkEBATQsGGjIvtUrVqVwKAgrFYru3fvviZ9RURERG4lpZYgiY3dwe+//05oWBgPPPig47jVamXcW2/xxhuvk3Umi27du9OkcRO+/+47Zs6cidlsLlAqomOnTjRs2JDo6G3sL8EGTiIil1K5cmUA/vjjD8cLvpIwm81sj4kBoE2bCOr+OduvJOrXb0BYWFMAtkVvK3L29I4d29m3L57aQUHUDQ7GycmJNhFtMBqNxMbGcvz48RJfT0RuXadPnyYnJ4c77vDD39+/QFtKSgoHDxzA29u7yJUcFxO3Ow6AmjVrFlvSz2QyOfZayp8RnpmZSVJiIuXc3YtNrABUq1YdLy8vzmSdIS0t7bJiE5Gbz6lTpziSlLdqtkb1GkWec/ToUd4cM4ZOHTsQFhpCs/CmDHioP4sXLcJmsznOS01N5d57+hAWGsLSJUsAWLpkCWGhIYSFhtCxQ3t27Nhe6NzfflvOabOZCRPG07pVS8KbhvHBBx/QskVz2rWNYOvWLcXGn5uby6iXXyYsNISPPvoQyNvwvGeP7gx4qD+JiddmVYzFYuHMmTMANGncpEBb/N54rFYr/v7Vip2U4+rqSs2aNQE4kpTkmFBzNX1FRG5EVquV335bzuNDBtM2os1F/94oqX379vH6a6Mdfw+FNw2j9929ePedSWRlZRXZZ+/ePTz37LOOGFq3asmQwYPZtGmj7qMiN6hSS5CsWLGCs2fP0rNnT0fCI38Dz0WLFtK9e3fm/vQT48a9zZT33+eDDz5k/759AFT2ruwYx2Qy0bJlKzIyMojdsaNUPouI3Fo6dOiIl5cXx44dY8Tw54j5M+lxKakpKRw7dgyDwUDT8KYlLhkIebWe8zdaT0pMJDMzs0C73W5n08ZNWK1WQkJDHT9kGzZsxJ131uHQoYNERW0q8fVE5NaUk5PDooWLOH/+PO3atSu0r9uhQ4dIS0ujWrVqVL3jjhKPm5WVRXp6OgABNQKKPc/FxYVKXnllBY8ePQpAamoKZrMZU4UKVPHxKbZv+fLlKV++PKfNZjIyTpQ4NhG5+djtdlauWMHu3XH4+PjQJiKiUPvixYsZ8FB/Fi5cQGZmpqNkaXx8PG+88TqvjX6V7Ozsq4ojO/sso14ZxU9z52KxWLDZbAQE1CA4OJisrCyioqKK7Xvo4EG2b4/Bw8ODFi1aALB48WLS0tKIj4/n9zVrriq2fNu2bmXH9u0EBdUm/G+J7fxEtJ+/Hy4uLsWO4VMl7957IiPD8Z1dTV8RkRvNyYwMHh8yhJdfeomYmBhycnKoVKkSdrud+Ph43nxzDBMnTChx5Rm73c4Xn3/Ov/81gF9//ZXTp087/h5KTk5m48aNhRIkNpuNmZ99xiMPP8y6dWsdMVitVrZvj+GZYcP4+OOPsFqt1/zzi8jVKXPpU669U6dOsXfPXnx8fGjUqLHjeGJiIgsXLiQgIIAnn/oP7u7ujrb8GrVbNm+mbNmyBcarU7cORqPRsW+AiMjVaNy4McOHj2DChPEcPXqUJ4c+QYcOHXjqP/8lIKD4F4Npx9Mwm82UL1+eKlWqXPZ1/avlzfTOfxHp6+vraEtMTCQqKqrAj3CAihUr0jS8Kbt27WT9uvX07HnXRX/kisitKSsri61btzDrq6+Ii4ujd58+/Pvhhwudd+jgQWw2Gz6+vri6ujJv3s/MmTOHw4cOYbPZ8PX1pVOnzgwZMoQKf5lRnJubiyUnb2Wbu4d7oXH/qrJX3kQWu82G3W7nnOUcuefP4+LictH9TlxdXR3XPJ97/rK/AxG58VmtVo4kJfHd99+xaOFCjEYjDz00oNCq299+W86E8W9jtVq5t29fnhn2DBVMJmw2G6tXr2bSxAksX76cwMAgBg0ejK+vL7/MXwDA6NGvsnTJEnr07Mm4cW9fNJ5169aScuwYk6e8T0REBAZD3vzB42nHiY2NZdvWbZw6dapQshlgy5YtpKen06pVKxo0aAhAr1692LRxI56enrRr3/6KvyebzUZCQgK/Ll7M3Lk/4uHhwcujXi5QFjE3N5dzlnMAuJe7xH35zwmGtgsXsNlsV9VXRORGZM3N5fRpM82aNeOp//yXBg0aYDAYyMnJYeZnn/H117NYtiySLl27EB5+6VXU27ZtZdasr3BxcWHE8y/Qt29fjEYjdrudpMRElkYudfydke+rL79k+vRpGI1Ghgx5nIcfeQQ3NzesVivz5s3jow8/YM7331OnTh26du12vb4KEbkCpZIgOZ6WRlpaKrVq1cLnLy8RN23cSHLyUR4bOJBq1aoV6JNfo9bNzY0KFSoUaKtQoQJubm5kZ2WTm5url4MictV69OxJzVo1mThhAjt37mTFihWsXr2aDh06MOyZZwuVrQE4d+4cVqsVb+8qeHtffoLEy6syFUwmLly4wIULBV8O7ti+neTkozQNDyc4uF6BthYtWvDT3LnExu5g//79jpUoInJr+2zGDKZNm1rgWJ06dfjwo49o0aJlkavYko8lA5B1JovRr77CypUrC7Snpqby7bezWbHiN94eP56QkFAg7/52+rT5suLLn218+sxpzmZng5dXifvmrz4RkZub2Wxm8KBBRbYFBdVm2LBhtG7TpsD96mRGBt99+y0Wi4VHH32MYc8842g3GAx06tSJs9nZjB//NsuWLeOuXr3wucjqtIvZHhPDu+/+j7CmTQscb92mDXPn/sihw4fYFx9P879MToG8pPT6DesxGAx07tLFkfwNCQllydLIK4olNTWVp54cSlJSkuOYq6sr99x7L0OfGFogaQ1/3pfPnL6sa5w4cYKzZ89iMBiuuO/ff4uLiFxPS5cscZRO/Lum4eG8995kPDw8MBgMPPrYQHr37l0gceHm5sbAQYPYFbeLbVu3smvnrhIlSHZs30FWVhZNw8Pp1asXRqMRACcnJ2oEBPDkk08VOP/gwYP88ss8AF544UXu7dvX0WY0GnnwwQcxmzOZMX06ixYuJCKi7UUnDonIP6tUSmxlnz3LOauVSl5elPvLKpG43XGUc3en2UVuVkVtOJrv9JnTnDt37prHKyK3p7p1g/niy694882xVK9enQsXLrBixQoGPNSfWbO+KnYWnbOzAWdn52sWR05ODitXrgCgTes2BfZhAggOrkfd4GAyMjLYsH79NbuuiNx84uPjeWvsW3zz9dfk5OQUaj9/Pi/5GhW1iU1RUTwxdChr160nOmY7W7dFM3nK+/j7+5OWlsa777yjvY1E5Lro2rUb02fMoE1ERKFk7rbobcTFxeHn50/vPn2KTPa2bNWKgIAAkpISiY/fe8VxNG/egkaNGxc6Xrt2bcLCmnI2O5tVq1cVat+zZzd79+yhVq1AWrRoecXXvxSLxcLcH39k9OhX2bt3z3W7jojIza5KlSrcc889hVZ1AHh4eODt7Q3AwUMHSzRe/m/unLNnS/SecdXKlRw7doyGDRvSsVOnQu1OTk60b9ceb29v9u/fT9I12qdKRK6NUllBkpFxgtPmgrMQ80vKuJcrh6enZ6E++ZvT/fXG9nfe3t6FXhyKiFwNg8FAr7vvpmu3biz59Vc++fQTTmZk8PFHH5GUlMRLL73smE2Sz2w2k5qaUqBEVknk3xu9vb1xc/3/2STx8XuJi4vDy8ur0AxHyHt4a9O6Ddu2bmXTpo088OCDxW62KSK3jsefeILHn3jC8d8ZGRmsWPEbM2fO5IMP3icubhevvf5Gkc9GFy5c4KXhIwrMbjMYDLRr1w4PDw9GvfwS+/fvZ9OmjfTpc88VxXc1z2UBNYsvZygiNw+TycTkKVNo0iQEm83GunXrmPze/1i+fBlmcyYTJk4q9Myye/dubDYbDRs2oEaNojdvzy/JZ7VaST6afMXxNWrUqMjqAy4uLnTt1pU1a1azY/sO0tLSCqxS2bBhA1lZWTQJaXLFq1f+7q9lwiCvHNm+ffF8PvNz1q9fx65du3j99Tdo36HDFV+jio/PFd+Xr6aviMiVKkm5xL+yWCzExcVx4MB+9sXHEx8fT3p6OidOXN7+dk1CQvDx8SEuLo7nRwznP/99mqZNmxaZgMnNzWXfn3smN2vevNjf4iZPT9zc3EhNTSXteBp1/lZeUkRKT6kkSC7Gzc0NUxEJkqysLI6npRXZJyPjJGfOnKFy5cpFtouIXC2j0cg9995Lx44dmTRpIpGRkSxcsIAG9Rs4XjB6e3tjMpk4c+YMGRknL/saR4/klZSpWLEiXn+5n61btw7zn0nlh//9r4uOsWfPHmJjd9C2bbvLvr6I3Ny8vLx48MH+NA1rysiRL7Jq1SoaN2nCgAGF7xv16tUv9iVbaGgo4eHhREZGsnXrVvr0uYdy5cpRuXLlAqVfinPizw3Wy5Qp82dclQuVhimKxWLhtNmMwWDAYLh2q/BE5MaQn4QNqFGDESOGs3nzZqZNncrIl14qsEok/yVWZGQkkZGXLlf1901yL0f+/hpFqVevPtWr1yApKdGxmTxAWloamzZuwsPDg86dO1/xtS/FaDTSoEFD3ps8menTpjFz5mfMmDGdevXrU6VKFdzd3alcwtKFJ9LzvlNngwGDkxNu5cpdcV8RkRtRTk4OUz/9lJ9//gmLxVKgzd3dHXd3d7Kzs0s8XnBwMK+88irjx7/Nzp07eerJofj4+NK3b1/69u1Lpb/cQ/9a8vCzGTP4bMaMS46v6jciN5ZSKbGV/xIxf/POv8rJycGcmVmoz+HDhzh27FiRM1d27vwDQHX3ReS6q2AyMfq112nbth02m43IZZGOH+b+/tXw8fHBZrOxOSqq0P3tYnJzc9m9ezcAAQE1HbNOTp06xbat20o8jtVqZf269Zd1bRG5tQQGBRHRtm3evWjz5gI/EmtUz5uN7e/vV+SKXcgrARAQUBPI2wvgbHY2RqPRURY14XBCsdfOzc3l5J8J4vxruZcrR1mj0bG6rjhnzpzhzJkzeHp6UqXK5e/jJCI3hxoBAfz73w9jMBhYtiySmOjo0g6pSD4+PrSJesFSMwAAIABJREFUaIPVamX1qlWOZ6vdu+NISkqkUaNGjs3ZryeDwUD3Hj2oWrUqhw8fdpTacnJywqN8eQASky5eqiXteN5Ewyo+PpRzd7+qviIiNxqr1cq777zDt9/OxtnZmX7338+HH33MkqWRbIrazNp162nb7vInELaJiGDuTz8zatQr1KxZk7S0VKZO/ZR77unDzz//pN/cIreQUllBYjJ5Uq5cOY4eTSYzM5OKFSvi4eFB1apV+SM2lmMpxwosNbPb7axetRq73c7xtDSysrIcSZL8GTy1agXSuHGT0vg4InKbcXNzo127dqxd+3uBe5KXlxcNGzZi3759bNq0kUOHDhEYGFiiMePidhEdvQ2DwUCLli0c5R527NjOvn3xVK1alY8+/oSaNWsWO8Y3X3/N++9PISoqisTERAICVKJG5HblXi7vJZbFYnHsOwJQKzAQg8HAqVOnyDl79pIvu9zdPXAxGnFxcaFmzZqsX7eOffv2kZubW2RZGrPZzNGjRzAajQQG5d3/qvj44OPjy65dO0k4nECTJiFFXuvIkSQyMjIICAigatWqV/rRReQm0KVrVyKXRbJt61Zmz55Nvfr1HZvVuv95X7q7d2/GjHmzNMOkU6fOLFq4kF27dpGSkoK3tzfLly3n/PnzBTZnv97c3NxwcXHBarUWmHUcXDcYgCNJRzh16hQVK1Ys1NdisXD48GEA6txZ55r0FRG5kezeHceaNasxmUy8++7/iixLfaXc3d3pd//93NevH/Hxe5k6dSrr161j8nvvUbmyN+3ataNMmTK4uroC8PTTwxg4aNA1u76I/DNKbQWJn78/R44kkZj4/7MQ2/2Z0Z3744+OcjJ2u53FixaxZ89uwsKacvLkSRL+fEizWq1MnzaNQ4cO0r9//2tW/1VE5Eo4OTlxb9+++Pj4cOzYMWZ99SVWq/WS/cxmMzOmT8dsNlO/fn0i2kQA+cnhVVitVoKD6+Hv73/RcZo1a4a3tzcpKceIjd1xTT6TiNycss/mlRCoUL4CZcuWdRyvVasWPj4+JCQkkpJS9GqOv9ZR9vP3cyRCQkNDMRqNxMfHk5xcdM3/gwcOcDQ5merVa1CnTt5kl4oVK1I3OO/fN2/eTG5ubpF9Y2JisFqtNGzYCK8Sln4RkZuTh4cHAwb8C1dXV6KiNrFm9WpHW/6L+5SUlKsqn3Ut1KpVi+B69Thy5Ahbt24hOTmZuLg4qlWrRnh4s38sjpycHHJzcynn7k6F8hUcx4ODg/H29iYh4TAHDuwvsm9KSgoHDxzAy8uLxk2aXJO+IiI3kvT0dMxmM7XvvLPIfT2Kq1RzOZycnKhbN5iJEyfRqlUrLBYLq1evAvL2xcqfyHj48CGtLBG5CZVKgiR/Q2Gz2cza39c6bh6tW7ehR4+ebN68mYf692f06Fd55OF/886773D/Aw/QtWtXrFYr48a9xRtvvM5jjz7CokUL6d2nD3f16lUaH0VEbjFZWVl8NmMGR48eLfYcs9nM8uXLAKheo0aBMjV169alb9/7MBgMLF26lHFvjb1ordOTJ0/y1tixbN68GVdXVwYOGuyoZ5qYmMiOHbEAtG7dusjZ2n9VKzCQkJBQbDYbq1atKlR7VURuD4kJCaxbuxaDwUCbiDYF7h3+/v40DQ8nLS2Vb7/9tsgk7h+xsURHb8PDw4PWrVs7jjdu3ITg4GCSk4+ybFlkoR9/VquVefN+5mx2Nm0i2hSYuNK5c2c8PDzYvDmKP2JjC13z4MGDrFyxAg8PD7p07VJgPwIRuTW1bNmSNm3ySlh9883XHD9+HMjbGNfPz58/YmNZvWpVqcbo6upKx44dAYjaFMW6tWtJTj5K06bh/9hKN7vdzvLly0hJSaF2UBB1g4MdbfnPfllZWSxauLDQPd1ut7No4UJSUlIIC2tK7dq1r0lfEZEb0WmzucjfwKtXryImJuaaXMPNzY3AoCCAAqu0W7dujYeHB+vXr79hS0eKSPGcx4wZM6Y0LmwymdiwfgO7d8fRuHETfH19cXZ2pml4OLm5ucTtjiNu1y48PDx48cWRdO3alRoBAbiUcWFbdDQ7//iDChUq8Nxzwxk8eIhjI1ARkathtVr56qsv+fSTjzl8+DBlypTBw6M8bm5umM1mdmzfzri3xhITE4OrqytPD3uGoD8fkCBvZkmDhg05ceIE8fHx7Nu3j5UrV2C32R3lBM+dO0dCwmHmzp3L2LFvsmf3blxdXRk+fAQ9evRwvBhcs3o1ixcvws/Pn4GDBhW7X0A+Z2dnsrOzWLduHVlZWTRv0QJvb+/r+n2JyD/v229nsyxyKVWr3oHJZHLcMywWC78tX85bb40lKSmJZs2aMWTI444l/5B3n/Dx8WXDhvVs376djIwMGtRvgFu5cthsNtauXcvEiRNIT0+n51130a/f/Tg7522Y7urqiovRhU0bNxIbG8v5C+cJDg7GaDRyMiOD9z94n8ilSwkMDOK54cOpUOH/Zzl7e3tzLPkYsbGxbN++nTvu8KN69eoA7I6LY9y4tzh06FCha4rIzSk1NZVly/Imk3Tr3h1f38LJBGdnZ7y9vfl9zRqSk5Mp71GesLAwTCYTZ7Oz2bp1C5s2bSInJ4egwCDcypUD8l7cp6am8sOcOezbt48GDQvuA3LwwEG2bdvG+dxcmoY1pVKlSgXas7Ky+HXxYsxmM527dLlkOdSKFSsSFRVFcvJRjh07Rk5ODk/95yn8/Aqv7N2+PYbBgwby66+LaRoefslnN8grGT32zTHY7HZ8fX0xGo2Oz5mUmMiHH37InO+/p2zZsjz51FM0/MvndXZ2pmLFimzcuIGdO3cWuKdnZ2fz5Zdf8N2332IymRjx/PPccccd16SviMj1tmrVKg7s30/t2rXp2LHTRc89c+Y0v69ZQ2pqKucs5wgJCcFoNGK1Wlm4YAGffvIJTk5OnDt3rtB4hw4dZMWKFdzh50e3bt0c9+D58+eza+dO/Pz9Hc/SdrudnTt38vWsWZw+fZqHHnqIun+uWPnrs+7atWsp++eqkvzxbDYbhw8fZuZnM7hw4QI1aqgctsiNpNSyCgEBAfR/qD9TJk9m2tRPeXv8BCpVqoS7uzvDR4xg+IgRhfoYjUYGDR7MoMGDSyFiEbkdGJycKGs0YrFYWLpkCUuXLCnyPHd3d5597jnatm1bqM1oNPLqq6OpXr06n8+cSVJSEv/737v873/vFjlWzZo1GfH8C7Rq1cpxLCcnh5UrVwBQv359/Pz8ShR/eHgzqlWrRmJiIitXrqBevXol6iciN4+z2WeZM2cOc+bMKfac5s2b88aYMZhMpkJtwcHBjBjxPOPHv80v8+bxy7x5hc7p1KkTzzzzbKGVa9279+DIkSPM/OwzZkyfzozp0wu0+/v78+ro0YXuWUajkaeHDSMl5RhbtmxhxPDnSnxNEbl1NW7chG7duvPjjz/wyy/zaBMRQXBwMI88+igpqSksXLCAL7/4gi+/+AJXV1fc3d3JyMhw9H/yyacKjdkmIoJffplHQkICDzxwP15eXpQpU4bxEyYUuwfSxfj4+NCyVUu++fprjh07RqtWrYrdnH3x4sWkpaWRlpbG72vW8Mijj15yfLvdzv79+1m5cmWx5+Q/d/bo0bNQW2hoKMOGPcPEiROKvKebTCZGjnyJxo0bX9O+IiI3ivr1G9ChY0fm//ILP/74Az/9NBdPT08y/yyr9cCDD5JxIoPfflte4jHTjx9n2rSpTJgwHoPBQKVKlTh16hQXLlzAYDDQu0+fAvdko9HIs889x4kT6WzYsIF335nEu+9Mwt3dHRcXF0cskLdSUkRuLKW2ggSgTp26pB9PZ9WqlWyP2U5oSEiJZtmIiFwvLkYjnTp3pl69+thtdrKzs8nJOYvdbsfd3Z2goCAefLA/Y8a8SVhY02LLwDg5OdGkSRP69OlDhQoVyMo646gfDVC5cmWaNGnCf59+mueff6HQhupxcbuY/c035ObmMuBf/6Jevfolit/Dw4NDBw+xZ89u7HY77Tt0KDB7XERufjUDAoq9r7Ru3YYXR45kyOOPU758+WLHqBUYSKfOnTmbfZa0tDQsFguurq40bNiI4cOH8/gTQ4vcfNjJyYmwsDAaNmpISkoqmZmnOH/+PL6+vvTpcw/jxo2jeo0aRV7Tzc2NTp06U758eVJTUzhz5gwGg4E777yTZ555lqf+899/bMNjEbm+SrKCBPLuKVWrVmXDhvWkpqaSez6X1q3bYDQaadu2LQ0bNSQzM5OTJ0+Sk5NDTk5OgWeoPvfcU2jFmbe3Nw0aNiQhMYET6elkZ2fj6+tL9x498fLyuuwVJJC32mLNmjVYrVYee2xggVUcf1WhQnk2b96Mv78/g4c8XqLftuXKlSMwMAjrOWuB505XV1cCg4Lof4nnTicnJ+rUqUPr1q1JP55ORsYJcnNz8fT0pGvXbrw1blyxL+Oupq+IyPV0OStInJ2diYiIwN/PnyNHj5B56hQWi4WatWrx7DPP8uijj/H72t+LHK+4FSRGo5Hs7GxOnzaTnZ3N2bNnMZlMhIaG8vzzL/Cvf/27UCUbV1dXunXvTvXq1ck4cQKz2UxOTg5Wq5UqVXxo1aoVL44cSZs2bVROVuQG42Qv5d2DrFYrH3zwPj/+8ANubm482L8/D/V/yFGD/+/ylxofOHiQTp0ufpMUERERERERuRpRmzbx0ksjMZk8+fCjjwpNbBERERGRm1epJ0ggL+mxYf163n9/CocPH8ZgMODtXYW6devg6VkRAGuulX379pGakkJ2djY9evZk3Li3SzlyERERERERuVVZrVZeG/0qK1as4L77+jHqlVc081dERETkFnJD7Gzu5OREm4gIWrVuzbZt21i0cCG7du1k/fr1XLhwAchbqublVZnmzVvQrn17IiIiSjlqERERERERuZXFREcTFRWFh4cHXbp2UXJERERE5BZzQ6wgEREREREREbmRxO3axeuvv0ZCQgL33HsvL788ChcXl9IOS0RERESuoRtiBYmIiIiIiIhIaUtNTeWpJ4eSlJTkONa8eXOeeeZZJUdEREREbkFKkIiIiIiIiIgABoPBkQjx8vLi3r59eeSRR3F3dy/lyERERETkelCJLRERERERERERERERue0YSjsAERERERERERERERGRf5oSJCIiIiIiIiIiIiIicttRgkRERERERERERERERG47SpCIiIiIiIiIiIiIiMhtRwkSERERERERERERERG57ShBIiIiIiIiIiIiIiIitx0lSERERERERERERERE5LajBImIiIiIiIiIiIiIiNx2lCAREREREREREREREZHbjhIkIiIiIiIictuxWq289dZYWrZozldffVna4YiIiIhIKShT2gGIiIiIiIjIrWPHju2MGD4cs9l80fOahofz3nuT8fDw+IciK+jkyZPEREdjtVrZtGkT/frdX2qxXI6cnByWLPmVn3/6iQMHDnDhwgVcXV0JDq7H4CGDadGiJU5OTiUez263M2H8eH7++SeqV6/O1GnT8fX1vWQ/m83GwoUL+eSTjxk5ciRdunS96DVioqP55ptviImJJjs7G3d3d0JDw3jyqSepWze42L6pqal88/Us1qxZQ2pqKgCenp60bduOwUOG4O/vf9E49+3bx+xvvmbDhg1kZmbi6upK0/BwHnn4EULDwi76XV1NXxEREbk5KEEiIiIiIiIit51KlSoRGhZGamoqLVu2vCmSI3Fxcbzx+mscPny4wHGLxcL27TE8M2wHvfv04aWXXsZoNJZozNjYHaxY8VuJY7BaraxatYovv/iCAwf2X/L8nJwc/ve/d1m4YAE2m81xPDs7m3Xr1rJ16xaefPIp/v3ww4USDt9/9x1Tp35KdnZ2geOZmZksXLiAlStXMGrUK/To2bPIay9dsoQJE8YX6G+xWFi/bh2bNm7kySefYuCgQUUmOq6mr4iIiNw8lCARERERERGRa85kMjF5yhSaNAkp7VCKZDQaee2113nttddLO5QSO3YsmaSkJO666y4efWwgtWrVwsnJiezsbL788gu+njWLhQsWEBgYyIAB/7rkeFarle+/++6Sq30A4vfuZf78+UQui+S02YyLiwsGg6FA0uPv7HY7n82YwfxffsFkMjFs2DPc1asXRqOxQMwzZ35G7dq1adGyZYH+cbvjKOvqyqDBg7n33r6YTCYAEhISeGfSRDZv3sxHH31IQM2aBAcXXIUSHR3NlCmTsVgsDBw0iIEDB+Hu7s5ps5kPP/qQBfPnM2vWV9SrV6/Qda+mr4iIiNxctAeJiIiIiIiIyE3A09OTyZOnMPatcQQGBjpWL7i7u/Pf/z7Nfff1w2azseK330qU9Ni0aRPr16+nZs2alHN3v+i5a9eu5ccffyDrzBnad+jAJ59OvWR5qz179rB48SJcXV154cUXubdvX8fKlvyYBw8ZQlZWFj/88AM5OTkF+jdo0JDZs2fz2GMDHckRgICAAMa8OZY6deqQlpZWaAVMTk4Os7/5hoyMDO67rx///e/TuP/5+SqYTIwc+RIdO3YkKyuLuXN/xGKxXJO+IiIicvNRgkRERERERETkJhAe3ow2ERFFtjk5OdG+fXvKubtz7NgxUlNSLjrWyYwMvvzic0wmE/0fGoBLmYsXmHAxutCjZ0++mT2b//3vPfz8/C4Z7+aoKDIyMggNDaVDh45FxtytW3f8/PzZs2c3SYmJBdr79++Pj0/R+6FUqVKFZs2bA3DgwIECiYr4+L3Exu7Ay8uLu3v3LlQGy2g00rfvfZRzdycuLo7EhIRr0ldERERuPkqQiIiIiIiIiNwCyrqWxaVMGaxWKzmWnGLPs9vtzJ49m7i4OPr1u5+goMBLjv3YYwMZN+5t6tYNLvG+GwcPHQQgMCgINze3Is/x8/OjTp06pKens2fPnhKNm8+9XN7KDovFwvnz5x3H9+zeg9lsJrhePWrVqlVk38CgIPz9/EhPT+fQoUPXpK+IiIjcfJQgERERERERkVKTk5PD8OeeIyw0hOHPPVeozBLA8ePHGfBQf8JCQ5g+fRp2u53U1FTuvacPYaEh/Pbbcux2O6tWrWTQoIE0C29KWGgIXbt05t13JpGamlrktUePfpWw0BA+mzGjwPG/j33abGbChPG0btWS8KZhrFy5ssD5NpuNxYsWMeCh/o5rd+rYgTfHjOHo0aOFrrt9eww9e3RnwEP9SfzbqomrYbPZsQPlypXDZPIs9ry1a9fyww9zCAkJ4b5+/a7Z9YtT1J9pPhcXF8q6lgUgNa3oP6fiXLBdAKBC+QqULVvWcTxudxwANWvWxNXVtci+JpMJf/9qACQmJV6TviIiInLzUYJERERERERESo2bmxuPDRyIl5cX69evI3Lp0gLtdrudX36ZR3x8PGFhYfTv/1ChFQy5ubmMG/cWL40cSeyOHZhMJpydncnIyGDOnDkMGvgY27fHXFF82dlnGfXKKH6aOxeLxYLNZsP254t5gJMnT/LMsGG88cbrxMfH4+LiQgWTiczMTBYuXMCggY+xdu3vBcZcvHgxaWlpxMfH8/uaNVcUV1Hidu3itNmMn78/3t7eRZ6TmJjIJx9/RNmyZRk69MkCe3tca5UrVwbgWHJysUmSnJwczJmZAEUmk4qTk5ND3K5dANx55524uLgAkJWVRXp6OgABNQKK7e/i4kIlr0oFrns1fUVEROTmpASJiIiIiIiIlKrGjRvTv/9DAMyd+yPHjx93tO3du5cF8+djMpmKfaG/YMEC1qxezSuvvMqmqM38tmIlm7ds5YMPPsTf35+0tDTefeedAuOW1Lp1a0k5dozJU95n67ZoomO206VLVyDvhfprr41m06aN+Pv788EHH7J+w0ZWr17Db7+toHv37mRkZPDJx5+QnJzsGLNXr174+PhQp04d2rVvf9kxFSU5OZnFixdjMBho164dHh4ehc6xWq3M+uorDh8+zIAB/yI0LOyaXLs4jRs3xmg0EhMTw+rVq4o8Z/XqVcTEXH7yat26tcTExODj41NgX5bc3FwsOXn7kbh7XHzj+cpeeQkcu82G3W6/qr4iIiJyc7r4LmwiIiIiIiIiV8BsNjN40KBi2ydOmuRINADc168fUVGbiI6OZsH8+Tz+xBNYrVa++vIL0tLSeGLo0GJf6O/ds4e33x5f4EW5k5MTbSIi8KpcmedHDCc+Pp6VK1bw0IABl/U5tsfE8O67/yOsadNCbb8tX86WzZu54447mDzlfQID/38vj0peXox86WXS09OJjo5m1cqVPPzIIwCEhISyZGnkZcVxMdnZ2Xz6ycccOLCf5s2bc9ddvQqdY7fb+XrWLBYtWkh4eDj3P/BAifcSuVItWrSkRYuWrF37OxMnTODokaM82L8/JpMJs9nMD3PmMHv2N7i6uhbYZP1S4vfuZfq0aVitVvr2vY+6des62s6dO8fp0+bLivNERgbZ2dlX1beohJSIiIjc+LSCREREREREREqdyWRi0KDBeHh4sHDhAg4ePMiaNatZv359saW18rVq1ZrmLVoU2Va3bl3atMlLnMTExJCbm3tZcTVv3oJGjRsXOp6VlUXkskhsNhtdu3UrkBz562fq0KEjANuit11WEqCkTp48yRuvv05kZCSBgYG89PKoIlfZLF26hC+//IKaNWsWe8615ubmxgsvvkiDBg3Jzs5m+vRpdOzQnrDQEDp2aM/06dNo0KABvXrdXeIxY2JiGDnyRRISErj77t488uij1z3RIyIiIrcurSARERERERGRa85kMjF5yhSaNAkpcZ/mLVpw3339mDXrKz6f+RnJycdKtFdG8+bNHXtQ/J2TkxMhISH8/PNPHD9+nKysLCpWrFjimBo1alTk2Onp6SQfPUoFk4nWrdsU27+yd14ppuNpaWRlZRW78feViImJYfzb4zh8+DDNmzfnjTFj8PHxLXRedHQ070+ZAsB/nx5GjRo1rlkMl+Ln58e06dOZ++OPzJ//C0eOHMFms+Hn50e/fvdz/wMPMGnSRABqVC8+LpvNxjfffM3nM2disVgYMuRxBg8ZgtFovOoYvb298fDwICsr64r7ioiIyM1JCRIRERERERG5ITg5OdH/oYeIitrEsmXLAC5aWivfpfaLKOOS99P39Gkz586du6yY8hMcf2c2Z3L27FlOm808PmTwJcexWCycP3/+sq5dnL8nCwYNHsygQYNxc3MrdG5iYiKTJk7g1KlTDB36JG3btr0mMVwONzc3Hnn0UR559NFCbbm5uWRnZQMUu7H8yZMnmTRxAqtWrcLb25u3xr1N27Zti1w5Uq5cOSpXrkxSUtIl4zqRcQKAMmXKXHVfERERuTnpb3IRERERERG5YZQvXx4fH1/i4+MxGAyUL1/+mpVQcnV1velfaFutVj744H1+/OEHvL29GT9+QoG9V/5u+bJlHDx4EICpUz9l6tRPiz3XbDZzV88eADz55FM8/sQT1zb4Yq559OgRTCYTATUDCrUnJyfzyqhR7Nq186KrZPIZjUbKueclzBIOJxR7Xm5uLiczTgL/v3LlavqKiIjIzenmfjIUERERERGRW8r33/0fe3ceF1XZ/nH8yyjT4KAoKKCIuGaYS4JrueSaWpqZ2m5pptne8zxZuZRbaYst9pRbmltlm63uCyagWKLihuCKQIKKMjYj46Azvz/4OU8EKCpLyuf9evlH59zLdc5MDJxr7vv6QlFRkWrUqJFSU1O1aOFCNW8eptDQ0CseMyU5RZJUpUoVVchnlcWV8DJ5yWg0ytfXV++9/4GaNGlSJONejMPh0JTJk/Xjjz8oPDxcEydNumiy4Fqwc+cOHT58WKGhoapTp26uc0lJSXrpP//WoUOH9NjgwRo+/MlLbqllMplUp04dRUVGKjExUdnZ2flukXYhMWM0GlWvfr2r7gsAAK5NFGkHAAAAAPwjxMbGavHiLxUYGKhx48arb997lJ6erlkzZyorK6vAfrt37y7wXFZWlrZujZUk3diwoXuFwNXyDwhQQECgMjMzdfToH0Uy5qWsXx+hlStzirGPHjO2UMmRJ4YNU+zWbRf9N2fuXPn4+KhWrVpaumy5YrduK5HVI1lZWfrpx5/kcDjUqVPnXHVmsrOztWDBfB04cEC9e/cpVHLkgrCwMBmNRiUkJCg1NTXfNgf271dKaqpq1QpRw4Y3FUlfAABw7SFBAgAAAAAodRaLRXM+na1Tp07pgQcfVL369XX/Aw+oYcOGioqK1PffLymw79o1a9zbSP1dRMQ6bd26Vd7e3rrtttuKLN4qVaqoRcsWcjqd+vabb2SxWIps7PxkZWXp559ykglDn3iiRAutFweXy6XPFy1SVFSk6tdvoM5duuQ6v2/fPkVu2KCQkBANfeKJyyrG3qzZLQoNDVVqaopWrlwhl8uV67zD4dCSJd/pjM2mdu3bKSAgoEj6AgCAaw8JEgAAAABAqXK5XFq8+Ett3rxZYeHh6tPnbkmSv7+/HnjgQZUvX16LFi5UfHx8vv3PnDmjf734gn799Vc5nU5JOQ+yv/pqsaZMniy73a6u3brplluaF2ncffrcrXr16ik2NlbPPP2UfvvtN/f8Uk5h9phNmzRu3OtKT093H9+2bat69eyhBx+4X0lJSYWa6+TJk0pKOqKKFSvK39+/SK+jOE378EP98MMPstvt7mPJycmaOGGCZs6cIaPRqMeHPq6goKBc/ZIOH1ZGRoaq+furUqVKlzWnj4+P+g8YIJPJpAXz52vWrJmy2XIKwZ/MyNDbb7+ldevWqX79BurX794i6wsAAK491CABAAAAABQ5i8Wix4cMuWibKW+9pW7dumtzTIy++PxzeXt7a/Bjg+Xt7e1uc0ePHoqKitSaNWs0a+ZMvTl5srz+VkfkkUGDtGrlSv3rxRdUrlw5+fj46OTJk+7zXbp00XPPPZ9vPYmrERISoldHjdLoUaO0Z8/JzCAiAAAgAElEQVQejXhyuCTJz89PNpvNnRSoVatWrpUIv/zyi9LT05Wenq5f16/XoEcfveRcx48fk9X6Z6HuqyS1aNlSU6e+l+teloZjx49p/vx5mjhhfJ5zvn5+euWVV9Xlb6tHJCklJaduzJbff1fHDgUXob/g70Xle/ToqeTkZH06e7ZmzZypWTNn5mpfs2ZNjR4zJk9i5mr7AgCAawsJEgAAAABAqTl27JimTftQVqtVAwfep9Zt2uQ6bzQa9eBDD2vbtm3urbYefPChXG2CgoI0Y8ZMffrpp1qxYrkyMjJkMpkUGtpI999/vzp36SKDoXg2UGjePEyLF3+l+fPnKyJinZKTk93z161bV+3at1e/fvcqMPB/9ULuuusubdq4UZUrV1bH228vlrj+Kbp27SZLZqbi4uJks9lkMBgUHBysXr3u1MCBA1XpL3VHipLBYNCwYcPVtGlTzfl0juLj98hutyswMFBdunTV0KFDC5z7avoCAIBri4fr7xtqAgAAAADwD5eWlqYRTw7XkSNH3CtRAAAAgMtBDRIAAAAAAAAAAFDmkCABAAAAAAAAAABlDgkSAAAAAAAAAABQ5pAgAQAAAAAAAAAAZQ4JEgAAAAAAAAAAUOZ4uFwuV2kHAQAAAAAAAAAAUJJYQQIAAAAAAAAAAMocEiQAAAAAAAAAAKDMIUECAAAAAAAAAADKHBIkAAAAAAAAAACgzCFBAgAAAAAAAAAAyhwSJAAAAAAAAAAAoMwhQQIAAAAAAAAAAMocEiQAAAAAAAAAAKDMIUECAAAAAAAAAADKHBIkAAAAAIBrhsPh0MSJE9S2TWvNm/dZkY69fNkydWjfTs8996ysVmuRjg0AAIB/nvKlHQAAAAAA4Pqxffs2/evFF2WxWOTt7a13p05Vy5atLmuM33//Tf/5979ltVrVomVLTZ36nry9vSVJJ0+e1NbYWDkcDm3atEn9+w9wn7ta0RujZbPZtGvnTu3fv0+33NK8SMa9Xo0ZM1rLly27rD61atXS9Bkz9d//fnTFfQMDA93vM0l67/33S/y1SklJ0fvvvyeb1aZ3p0695HswMTFRixYuUHR0tDIzM2UymdSiZUsNemSQwsLD5eHhUUKRAwCAv2IFCQAAAACgWFitVq1etVoul6vQfbKzs7V06dICV3D4+voqLDxcRqNRbdu2LbLkiCTdduttMpvNatykierXb1Bk4+L6kZycrDcmTdJ9AwdofUSEXLr0e3v5smUa+vgQLV26VJmZmZIku92uqMhIjRjxpD6bO/ey/h8BAABFhxUkAAAAAIAiZzQa5enpqZiYGCUlJal27dqF6rdv3z5tjI6W2WxWdnZ2vuOOHfuaxo59rahDVs9evdSzV68iH/d6NWnSG5o06Y1cx9LS0jTiyeE6cuSIprz1lrp1617kfUtaVlaWVq1aqe+XLNHu3bvldDplNBoL1Tc2Nlbvv/+e7Ha7Bg8ZosGDh8hsNuu0xaJpH03Tjz/8oPnz56lRo0Zq07ZtMV8JAAD4O1aQAAAAAACKnJeXl6pUqaLU1BRFbthQ6H5r165RRkaGgoNryeFwFGOEQOFYLBbN++wz7dy5U5WrVNHY117XY4MHX7JfVlaWFi1cqIyMDN17b389/fQzMpvNkqRKPj4aOfJlde7cWVarVd9887XsdntxXwoAAPgbEiQAAAAAgGLRunUbSVJExDpZLJZLtk9PT1dUZJS8vb3VPIz6H/jnqBEUpFdfHaUffvhRffv2lcHj0o9TEhL2Ki5uu/z8/NS7T588dUaMRqP69btXFcxm7d69W0mHDxdX+AAAoAAkSAAAAAAAxaJVq1aqX7+B4uPjtTE6+pLtV61cqf379yksLFwNb2xYAhEClxYYGKiPP/5E/QcMcK8AKYz4PfGyWCwKbdRIdevWzbdNvfr1VTMoSMePH9fBgweLKmQAAFBIJEgAAAAAAMWiarWqate+nRwOh5YtW6qsrKwC21osFkVErJPRaFSfu/vo/PnzBbYdM2a0wsOaa/asWbmOp6Wl6Z6+dys8rLlWr14lp9OpX37+WQMHDlDLFuFq2SJcAwcO0C8//yyn05ln3NWrVyk8rLmGDx+Wq0i81WrV8OHD3HP+fdzbbm2r559/Tvv27XP3OXHihN584w116dxJ4WHN3W327o3PM+/27dvUudPt6tzpdm3fvi3fa/57DPnFfU/fu5WWlqaUlBSNHzdOHdq3U3hYc/XpfZcWLljg3rLM5XJpzerVeuThh9SqZQt3mwXz51/0NbqWORwOTZw4QW3btNbcOXNKpCj67j27JUl16tSRyWTKt42Pj49q1gyWJCUdSSr2mAAAQG4kSAAAAAAAxaZLl67y8/PTjh07tGvXzgLbbd0aq/j4eIWGhiosLFzHjx+/qnmzs7M1aeJEvf76a0pNSZF3xYpyOp06sH+/xo8fd8UPyc+dO6c33pik8ePHKSU5WR4eHrLb7YqKjNTTT41QbGysduzYoceHDNZ3332rs2fPymQyuds89+yzio2Nvapru5gdO+I07Imh+uWX/yWBUlNT9cEH72vK5Mmy2Wx699139Oqrr2jv3r0ye3u723z44Qd65+23r8vaL/v27VPkhg1yOBxasWL5Vb+/LsVqtbrnqB1Su8B2np6e8vXzlSSlpKQUa0wAACAvEiQAAAAAgGLToEEDhYe3kNVq1epVq/NNSjgcDq1YvlwOh0OdOnWWj4/PVc+7ePFibd++Te+9/4Eio6IVEbFey1esVKdOneV0OrVw4QJt2fL7ZY+7es1qxW3frjlzP1P0xk3a/Nvv+mzefNWuXVsZGRn6+L8f6d1331H58uX12bz5ioyKVlT0Rs2cOUs1a9ZURkaGvv3mG2VnZ1/1Nf7dyZMn9eEHH6hHj55a/+sGRUVv1IbIKD366GMyGAxavnyZpkyerB++/16PPDJI63/doIiI9doQGaWBA++TwWDQ2rVrFBe3vchjK20NGjRQ+w4dZDQa1aNHT1WrVq1Y58vOzpY9K6foutn74ttyVfWrKklyOZ0lsrIFAAD8DwkSAAAAAECx8fT01N133y1vb2/FxMQoKSnvNkJxcdsVExOjoKCaat+hQ5HMm3b0qEaPGauOHTvKYMj509ff31/Pv/CC6tatK6vVquhC1EX5u8xTp/Tqq6PUtGlTeXh4yMPDQ02bNtUzzz4ro9GouLg4pR09qlGjx+Rq06JlSz3yyCBJ0s6dO4pltYDValV4eLieHDHCXSvDbDbriWHD1KZNG/dWZ3fc0SNPm6FPPKHQ0NArvi//dEajUWPHvqZNMZs15PHH8xRML2pnz57V6dOWy+pzIiNDNputmCICAAD5IUECAAAAAChWzW65RU2bNlVqaooiN2zIdc7lcmn1qtWyWq3q2rWrQkJCimTO22/vpLCwsDzHg4ODdXPjxpJy6oRcrvDwFmrarFme4zfe2FDVqvlLktq0aZPv3A1vukm+vr46c+aMLJbMy577UiqYzbrzzrtkNBpzHffy8nJfs4+Pj/rc3SdPGz8/P9WtV0/Sld0XAACAaxEJEgAAAABAsfLy8lLXbt3cWzidzMhwn0tKSlJMTIz8/PzUtVu3Ivtmf/PmzQscK6hGkCTp+PHjuYqxF0a9+vXk6emZ57iPj4+q16guSQoNbZTv3NWqVZO3t7eyz53TWfvZy5q3MKpUrqKawcH5nqv3/8mPgIAAd1Hwv7twX87azxbLFmC4uAvvDwAAUHJIkAAAAAAAil2bNm1Vt2497d69W5FRke7jP//8k1JTUxQe3kINGjQosvnKe5YvsrH+qpyh3CXbVK1W9aLnz9hsOv3n6aIKya1cOYPKlbt4fJV8fGQymS7a5vSfp3X2bNEncMqSChUqqGrVi78PLjiRkbNip3z54nnPAgCAgpEgAQAAAAAUu4CAAHXt2lVOp1NrVq9WVlaW0tPTFRUZJaPRqO53dM93ZQZwLTIajarw/zVeDh86XGC77Oxsncw4KUkKqVU028sBAIDCI0ECAAAAACgR3bp3V1BQTe3YsUO7du1UTMwmHTx4QKGhoQoLCy/t8IAiYzKZVKdOHUlSYmJigVuWWSwWpaQky2g0ql79eiUZIgAAEAkSAAAAAEAJCQkJUZs2bWS1WrVs6TKtW7dOktS7dx/5+PiUcnSlx8vkJaPReNHaJMePH1dqSkoJR4arERYWJqPRqISEBKWmpubb5sD+/UpJTVWtWiFq2PCmEo4QAACQIAEAAAAAlAgPDw91695N3t7eWrt2jX7bvFl169bTrbfdVtqhlSr/gAAFBATqjM2mtWvXyuVy5Trvcrm0atVKHT16tJQixJVo1uwWhYaGKjU1RStXrsjzujocDi1Z8p3O2Gxq176dAgICSilSAADKLhIkAAAAAIAS07hxE4WFhctms8nhcPBgWFKVKlXUomULSdLSpb/oq6++ksPhkCTZbDbNmjVTX3/1lSpVqlSaYV7THA6HJk6coLZtWmvunDl5khXFwcfHR/0HDJDJZNKC+fM1a9ZM2Ww2SdLJjAy9/fZbWrdunerXb6B+/e4t9ngAAEBe5Us7AAAAAABA2eHl5aU+d/dRTMwmVaxYUV26dC3tkP4R+vW7VzGbYrR3b7zeefstTX33HVWuXFmZmZkyGo167LHB2hK7RVt+/720Q/1HsVgsenzIkALP+/j46L3335enp1GRGzbI4XBoxYrluqt3b/n7+xd7fD169FRycrI+nT1bs2bO1KyZM3Odr1mzpkaPGaOgoKBijwUAAOTFChIAAAAAQIkKCwtXaGiowsNbqEGDBqUdzj9CUFCQpk+froceeliBgYFyOp2yWCxq0rSp3p06Vffdd19ph3hNa9Cggdp36CCj0agePXqqWrVqJTKvwWDQsGHDNe2jj9S8eZhMJpMkKTAwUA899LAWLlykpk2blkgsAAAgLw9XSawrBQAAAAAAAAAA+AdhBQkAAAAAAAAAAChzSJAAAAAAAAAAAIAyhwQJAAAAAAAAAAAoc0iQAAAAAAAAAACAMocECQAAAAAAAAAAKHNIkAAAAAAAAAAAgDKHBAkAAAAAAAAAAChzSJAAAAAAAAAAAIAyhwQJAAAAAAAAAAAoc0iQAAAAAAAAAACAMocECQAAAAAAAAAAKHNIkAAAAAAAAAAAgDKHBAkAAAAAAAAAAChzSJAAAAAAAAAAAIAyhwQJAAAAAAAAAAAoc0iQAAAAAACuew6HQxMnTlDbNq01b95nRTKm1WrV8OHDFB7WXKtXryqSMa91f70ns2fNKu1wAAAALqp8aQcAAAAAALj+ZGVlad26tVqxfLn27NmjzMxM97mqVauqbt26euWVVxVSu3aJxHPy5EltjY2Vw+HQpk2b1L//AHl7e5fI3Lh+paSk6P3335PNatO7U6fyngIA4BpDggQAAAAAUKR27NihCePH6dChQ/meP3HihLKzs3Uq85RCVDIJEl9fX4WFhystLU1t27blQTauSnJyshbMn69ly5bKbrerRcuWpR0SAAC4AiRIAAAAAABFJj4+Xq+8PFLp6emqVauWHnroYd16222qWrWqHA6HMjIytDU2VlFRkfLwKLldn41Go8aOfU1jx75WYnPi+pKVlaVVq1bq+yVLtHv3bjmdThmNxtIOCwAAXAUSJAAAAACAIuFyufT9kiVKT09XvXr19M67UxUSEuI+bzQa5e3trZCQEN3Tr18pRgpcPovFonmffaYjR47I189PTz/9jNLT0zRr5szSDg0AAFwhEiQAAAAAgCJhs9mUdCRJktS5S5dcyRHgelAjKEgPPfSwevbqJbPZTCF6AACucSRIAAAAAAAALiEwMFAff/xJaYcBAACKUMlt+AoAAAAAuK7dcMMNqlSxkiQpZtMmnczIuKJxUlJSNH7cOHXp3EnhYc3VqmULPfjA/frl55/ldDrztJ89a5bCw5pr+PBhOm2xKCoyUvcNHKjwsOZ6asSTOmOzSZLGjBmt8LDm+X7r3+l06rffftMLzz/vnrdli3D1u6evFsyfr6ysrCu6lvxYrVYNHz7MHYvL5dKmTRs1ZMhgtWrZQuFhzdWn910FzvvX67VarfnOsX37NnXudLs6d7pd27dvu2j/vXvj9fzzz+m2W9uqZYtwDRw4QMuWLZXL5ZIkORwOffvNN+p3T1+1bBHublPQ6/F327ZtdY8fHtZcHdq302tjxygxMfGi/bKysrRg/nz3vOFhzXVnr556b+pUnbZY8rRfvXqVwsOa656+dystLU1798ZryJDBatkiXPf2u0fp6elyOByaOHGC2rZprblz5rivEQAAlE0kSAAAAAAARcLT01PduneTyWTSzp079eKLLyrp8OFC93e5XPrll1/04AP366efflRmZqZ8fX0lSQkJCXr99dc0dsxo2f4/4ZGftWvX6uWXR2r//n2SpPNOp5yXeAhut9v1yssjNeLJ4YqM3OCe18PDQ0lJSfrwww/08ssjC0xGXA2Xy6U5n36q5559Vrt27pSPj48kKTU1VR9++IHeefttORyOIp/3ghUrVmjYE09o08aNcrlccjqdOrB/v15/7TXN+fRTnTp1SmNGj9LkyW8qJSVFFSpUcLcZP37cRZMMLpdLc+fM0fBhwxQVGSnjDTfIZDLJZrNp6dKlGvr4EC1ftizfvgcOHNDjQwbrww8/UFJSkry8vGQ2m5WWlqbPP1+kwYMfU8LevQVe166dO/Xcs88qbvt2OZ1OOZ1OuVwu7du3T5EbNsjhcGjFiuU6fvx4kdxHAABwbSJBAgAAAAAoMt26ddfjjw9VuXLltGvXTj344AOaPPnNQq0mWb16lSa/+YaysrJ0T79+iohYr9Vr1ipm8296+5135efnp1WrVumrxYvz7X/aYtHixYvVs1cvrV69RrFbt2nmzFny9va+6Lznzp2T5fRpNWzYUB98+KE2xWx2zzvy5ZdlMpm0aeNGrV275oruycWs/3W9vv32G40aNVpR0Ru1es1abYiM0sCB98lgMOjnn3/S8uX5JxGuVtLhw5o9a6aeevoZRUVv1MZNMVq9eo169Oghp9Opr7/+SlOmTFZ0dLReGvmyoqI36tcNkVq+YqU6deosp9Opn376SUlJSfmOv3nzZi1atFCPDx2qDZFRiohYr+iNm/T5F1+oUaNGstls+uijaYqPj8/VLzU1VaNefVUJCQlq1KiRPv/iC22IjNKGyCh9t+R7hYeH6/Dhw5r20bR8k1bZ2dn64ssvdPPNjfXdku8Vu3Wbvv/hRwUGBqpBgwZq36GDjEajevToqWrVqhXLvQUAANcGEiQAAAAAgCLj4eGhwUOG6L333ledOnVkt9v17TffqHfvuzR58pv5bo0kSSczMvTF55/LbrfrkUcGafToMar0/6spDAaDunTpomeffU7ly5fXypUrlZ6enmeMxMRENWx4o0aOfFm+fn6Fjtng4aFuXbtpztzP1L59zsPzC/MOHHifunTpIqfTqW3btl1ipMuXdPiwnnv+ed3Tr597XrPZrKefeUZh4eFyOp2KioxSdnZ2kc99/Phx9bv3Xt13333uuX39/PTc8y+ofv0GysjI0Lq1azV48JBcbfz9/TVixAgFBAQqNTVF2wu4Lzt2xOmpp57WsGHDZTab3cdvuilUU997Xw0bNlR6erp++OF79zmXy6Xvvv1W+/fvU5MmTfThh9N0002h7vO1a9fW6NFjVLt2bW2NjdXvv/+WZ96jR4+qfLlyGjd+vGrXrp3rnNFo1Nixr2lTzGYNefxxeXh4XPkNBAAA1zwSJAAAAACAIuXh4aF27dtr4aLP9fzzL8jXz8+dKLm3/71avXpVnm2ZtsRu0e7duxUUVFN97r473wfXbW+9VbVr19aRI0lKSMi7vZK3t7d69+njfpBfWBXMZvUfMEBeXl75XktwcC1JOQ/ei3qbrbCwMHXq1DnPcW9vb7Vp3UaSdPrP0zp79myRzitJ1atXV/fud+S51/7+/qpfv54kKTg4WL3uvDNPm+rVq6t27RBJKnCbqiZNmqhb9+75vpb+/v7q2bOXJGlv/F6dOnVKUs49Xr8+QgaDQff065dvoiukdm21aNlSDodDMTExec4bDAbdeddd7u3KAAAAClK+tAMAAAAAAFyfvLy8NOjRR3Vv//76fNEiLVq0UCczMjR61CglH0nW4CFD3A/P9+zZI6fTqSZNGiskJCTf8Uwmkyr5+MjhcCg1JTXP+Ro1aqhOnbpXHK/D4dCBAweUsHev4vfGa19iotLS0nX8+LErHvNSbm7cON/EjCTVDK4pSTqWni6r1XrJrcIuV/Xq1eWXTwLCw8NDtWvXkSQF16rlrgPzVxXMZnfywnYm/5owTZs1u2iS4ubGjVXJx0cZGSeUmZmpKlWqKPnIER0/cULVq9dQixYtC+xb1a+qJCktLU12u10mk8l9zs/PTzc1vKnAvgAAABeQIAEAAAAAFCuz2axhw4er1513asL4cYqNjdX8+fPUqFEjtWnbVpJ04sQJSTlFw1esWHHJMfNbyVHJxyfXg/LCcjqd+nzRIs39bG6eLcBMJpO8K1YscGuwq1XOUK5Yxi0MQ7lyMhguvrFExYoVL3lPL7x2f2euYM73uHt+g4c8JJ05c0YWS6aknNUyZ2w2nbHZ1Kf3XRftL0l2u13nzp3LdczLy0s+lStfsi8AAABbbAEAAAAASkTNmjU16Y031bBhQ1mtVi1btjTPVlslzeVyae6cOZo27UPZrFb16NlTb7/zrn76+RdFb9yk6I2b9OADD5ZqjNc7o9EoL1P+q2gAAACKEytIAAAAAAAlxt/fX61at1ZCQoLSjx2TzWaTt7e3u4h37z59NG7c+BKL5+jRo1q2bKnKly+vUaNGq3efPiU2d1mXkXFSf/75p2rVqqXKVapIkm644QYZjUbVqFFDn0yfoYCAgFKOEgAAXM9YQQIAAAAAKHWhN4VKKp5C6Bdz7Fi6MjMzFRgYqJatWuU573K5CixCXlou1CKxZ9mVnZ2db5vDhw7LUkzbghVWYmJigfG5XC5tjomR0+lU3br13HVOgoNryc/PT6dOndLRo3+UZLgAAKAMIkECAAAAACgS6enpmjlzxkXrdSQlJWljdLQkqXbt2u6H/bc0b66goJraEReniHXrSiTev8rKypIlMzPP8a1bt2r9+ogSj+di6tatqwpmsxITE7R9+7Y85y0Wi5YtW1oKkeX222+bFbtlS77nLtxXg8Ggdu3bydPTU1LONmxNmjSVxWLRku++k8PhKMmQAQBAGUOCBAAAAABQJFwul1YsX667+96tt6ZMUWxsrDIzM+VyuZSRkaHly5bp3/96UQcOHFBAQID69r3H3TckJER9+vTRuXPnNGXKZP33vx/pZEZGrrGPHj2qT2fP1uIvvyyymP39A1S5cmUdP35cs2fP1rFjxyTlFG7/9ddf9cakifLw8Ciy+YrCTaGhalC/vhwOh/770UfasWOHu5bL4cOHNe7113XgwAEZjcZSjTNn27JX9f2SJe5Eh9Pp1Lp1azV2zGhlZGSoVevW6tKlq7uPp6en+g8YID8/Py1dulQvvfQf7d0bn6tWjdVq1cqVKzVlyuTLXm3kcDg0ceIEtW3TWnPnzCn1GjgAAKB0UYMEAAAAAFAkDAaDPD09ddpi0ddff6Wvv/4q33YBAQEaNWq0QkND3cc8PDw06NFHdTTtqH768Ud9NneuPps7VyaTSWazWRl/SZY8+eSIIou5Ro0auuuu3po+/RNFRKxTRMQ6+fr6ymKx6Pz58+rSpYuqV6+hRYsWFtmcV8vHx0cPPPig9u/fr8OHD2vwY4/KZDLJeMMNOm2xqGbNmnryyRGaPv2TUo3zrrt669Chg5o0aaLefPMNVa5cWZmZmXI6nZKkxo2baNSo0e5VRBeEh4frxRf/pcmT31RUZKSiIiNlMBjk6+urU6dO6fz585KkFi1bXnZM+/btU+SGDXI4HFqxYrnu6t1b/v7+V3+xAADgmkSCBAAAAABQJPz9/fXZvPmKiIjQyhXLlZiYqBMnTkiSKleurJCQEPXu3Ufd77jDXZT9r4xGo8aMGauuXbvqi88/V1xcnGw2m+x2u6pWraobb7xRfe6+Wx073l6kcQ8eMkShjUI1e/Zs7dq5UydPnlRQUJD69x+gAQMHatHCf05y5IJu3borODhYM6bP0NatsbLZbCpXrpz69Llbjw8dqhMnSr9uire3t956+x198/XX+vbbb5Samqpy5cqpYcOGurd/f/Xqdae8vLzy7duzVy81adpU8+fN08aN0UpLS9OJEydkNptVq1Ytde7cRX379s2TXLmUBg0aqH2HDlq2dKl69OipatWqFcWlAgCAa5SHi/WkAAAAAAAAAACgjKEGCQAAAAAAAAAAKHNIkAAAAAAAAAAAgDKHBAkAAAAAAAAAAChzSJAAAAAAAAAAAIAyhwQJAAAAAAAAAAAoc0iQAAAAAAAAAACAMocECQAAAAAAAAAAKHNIkAAAAAAAAAAAgDKnfEEnYmNjSzIOAAAAAAAAAACAEsMKEgAAAAAAAAAAUOZ4uFwuV2kHAQAAAAAAAAAAUJJYQQIAAAAAAAAAAMocEiQAAAAAAAAAAKDMIUECAAAAAAAAAADKHBIkAAAAAAAAAACgzCFBAgAAAAAAAAAAyhwSJAAAAAAAAAAAoMwhQQIAAAAAAAAAAMocEiQAAAAAAAAAAKDMIUECAAAAAAAAAADKnPKlHQAAAAAAoOSdzH6ktEMASoSv58LSDgEAAPxDsYIEAAAAAAAAAACUOSRIAAAAAAAAAABAmUOCBAAAAAAAAAAAlDkkSAAAAAAAAAAAQJlDggQAAAAAAAAAAJQ5JEgAAAAAAAAAAECZQ4IEAAAAAAAAAACUOSRIAAAAAAAAAABAmUOCBAAAAAAAAAAAlDkkSAAAAAAAAAAAQJlDggQAAAAAAAAAAJQ5JEgAAAAAAAAAAIBAfG4AACAASURBVECZQ4IEAAAAAAAAAACUOSRIAAAAAAAAAJQpq1evUnhYcw0fPkxWq7W0wwFQSsqXdgAoe05bLPr44/9qy5Yt+viT6QoMDLxo+8TERC1auEDR0dHKzMyUyWRSi5YtNeiRQQoLD5eHh0eh5k1JSdH7778nm9Wmd6dOlbe3d1FcDsoIi8WiF194XnFxcWrWrJne/+BD+fj4lHZYAOB2uZ9zRfX5CgCF4XRKK35O1qczEvTcv2/W7V2r52nzxmvbtWZFaqHHbN6iqia+HS6z9//+rD2WZtdXiw4oekO60tOyJEk+lY26tV2AHh5SXzVqVrjqa/kj5YymT4vXGes5Tfjb/AXJyjqvNctT9fOSIzp44LTOn3fJZCqneg0q6dEnGqhlm2qFmtvplCLXHdWSr5OUuDdTdvt5lSvnobr1Kune++uoW68gGQr4GmTctpMaOzJWf1ocBY6f3z0tKI5LvZ5XwuWSPpiySz99n6SawWZN/biN/ANNRTI2gGvHmDGjtXzZsku2m/LWW+rWrXsJRATgekaCBCXmZEaGvvrqK339zdc6bbGoVq1al+yzfNkyTZ78pmw2m/uY3W5XVGSkNm3cqCefHKHBQ4Zc9CFOcnKyFsyfr2XLlsput6tFy5ZFcj0oW/bGx2vf/v2SpPj4eG3dGqtOnTqXclQAcGWfc0Xx+QoAheFwOBUZkaYv5h3QwQOni3TsylWMMt5Qzv3f3y0+rM9mJshmO5ernSXToeW/JGtDxFG9MLKJuvascUXzpSaf0VcLD2r1ihTZ7efVvEXVQvXbn3Bak8fF5bl+u/28du88pfhdlkIlSI6l2fXGa9u1Y3tGruPnz7u0L9GiKRO2K2LNHxo1/hZV8vHM0/9UxtmLJkcKozhfT0nateOU1q87WuTjAgAAFIQEySVkZWVp6S+/6Oeff9Yjgwapa9eupR3SNSU7O1tRUZH6fskSxcTE6Pz58zIajYXqGxsbq/fff092u12DhwzR4MFDZDabddpi0bSPpunHH37Q/Pnz1KhRI7Vp2zZX36ysLK1atVLfL1mi3bt3y+l0Fnpe4O9cLpfWrl2rMzabbrvtNkVHR2vTxk26/fZOPDwEUCqu5nPuaj5fAaCw9iec1tIfk7V29R/60+KQp6dBBoOHnE5XgX1GT7hFoyfcctFxE/ee1tiXtshuP697BtaWp+f/fhfbuydTRlM5PTS4vu68u5Y7SXDksE0fvbtLW347odmf7FWtOt668aZKhbqOrKzzilj9h5b+kKy9ezLldLpkNJa7dMf/l5xk05uvb9ehg3+qUeMqeurFRgq9ubIMBsludyoqIk3nzjkLNVZ6epaSj1jVok01PfbEje5xHA6nlv6YrDmf7NXmjcf02cxEPffSzSro19QudwRp9IRbCjyfnyt5PS+Xw+HUksWHdPoqkzgArh89e/XSpElvlHYYAK5z1CC5BIvFos8/X6Rdu3bK5SrcL674n7Nnz2rx4sWKjo6WyWTSiBFPadSo0Zfsl5WVpUULFyojI0P33ttfTz/9jMxmsySpko+PRo58WZ07d5bVatU333wtu92eq7/FYtG8zz7Tzp07VblKFY197XU9NnhwsVwjrn/Hjh1TXFycqlWrpo633y4fHx/FxMQoKSmptEMDUEZd6efc1X6+AkBhbYw8ph++PSzbn9lqd3ug3v6otWoEXd32Vi6XtPT7IzqWnqXO3WqocdMquc6HNq6iGfPa6YFB9XKtoKhV26yRr92iBjf66Fh6ln5dW/gVCn9asvXl/APas+uUfKoY9dLopnrg0XqF6puVdV4zpsXr0ME/1eOuYL37cWvd3KSyewssk8mgrj1rqEfvmoUaz2Qqp6dfaKS3P2yVaxyj0aB7BoToseE3ymDw0G8bjys5yZan/x8pZyRJHh66rOSIVDyv59/9HnNCMdHHFFLbWxXMfJcTAACUDBIkKHaVK1fWiBFP6YcfftTQJ56QyevSe8gmJOxVXNx2+fn5qXefPnm+pW80GtWv372qYDZr9+7dSjp8OM8YNYKC9Oqro/TDDz+qb9++MnjwdseViYnZpIMHD6hJk6bq1q27br75ZqWmpmj7tm2lHRqAMuxKPueK4vMVAArD0+ihrj2CNGN+O014K1w1alz9w/QL2y/5B3ipZ5/gPA/5+w0MkX9A/n9rVPO/QWGtcrbEOnjgT9nthf/yW2BQBb34chMt+raTet0dLEMhswvR69O1ZfMJ1a1XSYMebyAvr8KvPMlPg4aV1KVHjQKTGy1b+8vf36QTJ+xKSc6bIDl3Lme1R/nyl/93UXG8nn91KsOhL+btVyUfo/rdX+eKYgQAALgSfC0Dxcrb21tvvfX2ZfeL3xMvi8Widu3bq27duvm2qVe/vmoGBSkxMVEHDx5Uw5tucp8LDAzUxx9/csVxAxdkZ2crKjJKTqdTt912mypVqqRWrVpr48aNWrt2je7o0UNeXl6lHSaAMuZKP+eu9vMVAArrgUGFW2VRWNnZLi37MVmnLQ517lZbDRoWbousv6pQIefP37P28zp/zqnCfF/QP9Ckd6a1uuy57Han1q7+Qw7HeXW/M0jVg4r/90Uvr3Iq72mQw3FejrPn85w/78xJClW/guRGUb+ef+VySd98cVB792RqyPCGqlOvYrHNBQAA8HelkiCZPWuWZsyYrhYtW2rq1PeUmZmpOZ9+qrVr18hms8lsNqtLl656fOhQ1ayZe7lxWlqaRjw5XEeOHNGUt95Sly5dtWzpUi1YuECHDh6UJNWpW1eDHhmkXnfeKYMh7y+9WVlZWrZsqb779lvt379f58+fl9lsVv369fXEsGFq2/ZWrV69Sq+8/HKufq+8/LL72IXYvb293eedTqe2bNmiLz7/XDt37lBmZqaknIcYbdq21X333a8bb7wxTzx/v6bWrVrr408+1i8//yyHw6Epb72tLl26SJIcDod+/XW9vv7qKyUkJMhms6lcuXKqX7++HnzwoQKvWZJOWyyaP3++IiLWKTk5WZIUHBysBx98SH3uvlsTJozX8mXLCtzj0el0atnSpfrii8/d961y5crq0KFjvq/V1di9Z7ckqU6dOjKZ8v8WmI+Pj2rWDFZiYqKSjrDVEYrHvn37FBe3XUFBNXVL8+aSpFatWqlatWpKSEjQoUOH1KhRo1KOEgAKh89XANeqvXsytTEyXb5+N6hH75qXvUWU9L8EQcWKnrmKuxeH9KNZOrz/tKpWMym8ZeGKuV+t8+ddcp6XKpjLq2LFvEXaL2yx9U+zMfKYvv/msJre4qve/Wop6bC1tEMCcA26mudlBUlMTNSihQsUHR2tzMxMGQwGVa9eXe3bt9eIp57O9Uzwgr174zVj+gxt3Rorm80mk8mk0NBGenzo42rTpi11TIF/oFJfQbJt21ZNnDBBGRkZ8vX1ld1ul81m008//ajdu3fpnXenKiQkJN++2dnZmjRxon788QeZTCZ5V6yo0xaLDuzfr/HjxyktLU2PDx2a64dPUlKSXn3lZSUkJEiSe99tm82muLg47dq5S23b3nrZ13Hy5Em9+cYbiohY5z7m5+cnm82mtLQ0/fD991qxfLmefHKEHn7kkQJ/INpsZ/TqqFcVs2mT+5jTmfPtn5MZGXrxxRe1a9dOSZLBYJCvr68yMzOVkJCg8ePHaceOHXpp5Eh5eub+hXjbtq0aPWqU0tPTJUnlypWTj4+PkpKSNHnym9qzZ4/OZZ+76PW9NnasNm3aKEkymUwye3srMzNTP/30o6KjozRm7Fh16NDxsu/d31mtVh0/flySVDukdoHtPD095evnK0lKSUm56nmB/MRu2aKMjAx1736HgoKCJEl169VTkyZNtW7dWq1du4YECYBrAp+vAK5VLpe0ZlmqTlsc6nFXsOrWv/zVI1lZ57V3d84X2Oo1qJSruHtxSDr0p44ds6tJM18FVC+Z1cb7953WiRN2BQR6KSjYXGC7qlVvKJF4CiM5yaY5n+yV8YZyevSJG3PVjgGAwrqa52X5cblc+mzuXM2YMV3nz5/PNV5qaqo2btyoRwY9mudL03PnzNGsWTPz9Nm2bauee3a7Bj36qIYPf1JGo7HY7gWAy1eqCZI/UlP11pQp6tCxo54a8ZR8/fzkdDq1auVKvf32Wzpw4IBmTJ+uCRMn5vsDbPHixbL++afee/8DtW/fXgaDQceOHdPbb72liIh1WrhwgZrd0kwtW+Ysic7OztaM6dOVkJCg8PBwjRo9RrVr5zwgsNvtili3TufO5SQJunXrrm7duudZ3dGtW/c8cVgsFo0ZPUqbN2+Wr5+fnn7qafW68073D7zk5GRN/+RjrV69WjNmTJdfVT/16nVnvvckMnKDjv7xR65rusCRna3Tpy1q1aqVRjz1tBo3biyDwaCsrCx9Onu2FiyYr5UrV6hb927ua5ZykkKT33xT6enpatSokV555VU1uvlmeXh4yGazadGihVq0aJGyHY58Y7JarRo7doxiNm1SzZo19dJLI3Vbu3by8PDQyYwMTZ36rlasWKGP//ux6tWr736IfKWys7Nlz8opCmv2LvgXe0mq6pfzbSyX0ymXy0UmHkXKYrEoImKdDAaD2rRt4/455OnpqXbt22n9+ght+X2LTp06pSpVqlxiNAAoXXy+ArhW7Us4rZiNx+Tt7anuvYKuKLkRE3VMO7adlH+Al9q08y+GKHM7fNAqp9OlagEm3WAqp1++P6IlXx9W0qGc4wGBXurQqboeGVJfFYsgKWCzntNPS5LkcJxXeKuqeZIyWbbzyjx5VpL0zps79M6bOyRJZnN51b/RR30HhOjWDgEyGkuu9ofD4dTiBQeUdNiqx564Uc3CfEtsbgDXlyt9XlaQLVt+1/z58+Tp6al//fs/6tevn4xGo1wul44kJWn5iuV5VqPM++wzzZw5Q0ajUUOHPqFHBg2Sl5eXHA6HlixZoo+mfajFX36phg0bqnv3O4rrVgC4AqVa+eyPP/5Qq1atNXLky/L188sJyGBQj5499cADD0qSdu7cUeC3F9OOHtXoMWPVsWNH9w8mf39/Pf/CC6pbt66sVquio6Pd7TMyMrR3b7wkacDAge7kiJSzIqJnr17q3afPZV/H0qW/6Pfff5efn5+mTHlLfe+5J1c2ODg4WOPGT1Dv3n1kt9v17TffyGKx5DvWtq1bNXr0mFzXdIHBYNCjjw3Wx59MV9OmTd3nvby8NHjIEIWFh8tqtWrXzl3uPi6XS4u//FIHDhxQvXr1NOmNN3Vz48buBx1ms1nDhz+pkS+NLPDhx+pVq/Tb5s2qUaOG3nv/A7Vr397d1tfPTyNffkXh4eHav3+f1q1de9n37+/Onj2r06fzvz8FOZGRIZstbyFC4GrsjY/Xvv37FRwcnOeXqGbNblH16jWUmJig7dsp1g7gn4/PVwDXql/XHtWx9Cw1alJZN91c+bL77084rXmzEuVwOHVX31pXVL/kch39I2c7K5v1nN58bbumTt6pQwf+lNOZUyg9PS1L33x5UEMfjtSO7Sevai6Hw6kv5h/Q1t9OqE7diup3X+08W5A5XS6dz6cuvc12TnHbMjR+1Fa9MDxGR1OzriqWwnK5pK8WHtSKpSkKa+Gnu/uHXNG2aQCub8uXLVN4WPN8/w0fPkxWa86WfFfyvOxitm/bLqvVqsZNmuiuu+5yP+Pz8PBQSO3aevLJEfL3/1+y/cCBA/r++yWSpP/85yUNGz7cXavUaDTqvvvu06BHH5XdbtfPP/2krKyS+VkLoHBKNUHi5+en/gMG5Lu0rE3btvL19dWZM2dksWTm2//22zspLCwsz/Hg4GDd3LixJOnEiRPu4+XLl3fvt23JvLwHBAWxWq369ddf5XQ61btPH4WHh+fbzmg0qv+AAfLz81N8fLzi4rbn26516zZq2qxZvuf8/f3Vt2/ffPdM9Pb2VrVq1SRJBw4ecB/PyMjQ9u3bZDAY9NDDDxe4XVmHjh0VGhqa7/WtWLlCTqdT3e+4Q/Xq5S3O5+Pjo06dOkuStsRukd1uz3cO4Fricrm0du1anbHZ1KJFS1WvXj3X+ZCQEN1ySzM5HA5FrFsnl8tVSpECAABcv46l2xUTdUwGg4c6dqkuL6/Lqx0St+2kXn9lq44kWdXjzpq675G6JfIg/ty5nGzEls3H9fvm43r0iRu1NKKHIn67U2tj7tSkd1uqRpBZx9Kz9N939+j4sbNXNE9W1nnNnBavxQsPqHIVo54b2VjBIXlXCZq9y+u9T1or4rc73f/Wbb5TC76+XX3715bJVE7xu0/pvbd2ymYteOvlorJmRaq+mL9fIbW99dxLjdlaC8BVuZLnZRdzYeusrDNndPbspX8+r1u7Vn/88YeaNGmizv9fQ/ivPDw8dHvH21WtWjXt27dPR5Ko8wf8k5TqFlshISEFFvauVq2avL29deTIEfd+2X/XvHnzAlc9BNXI2ebp+PHjslqt8vb2lp+fn265pbkSExM1bdqHSj+Wrgfuf8C9euVKHD9+XKkpKapgNqvVJZbp1apVS3Xq1tWW33/Xgf0H8q3X0bRp00vuh2i327V7927t379PiQkJSkhI0PHjx3Mlgy44cuSI0tLTFRAQoKZN80+8SDlJjhpBQYqLi8v3+ir5+Oi229oV2L9qtZytOI6lp8tqtRZY+LW4XHi/AEXl6NGj2rLldxmNRrW9NW8hNQ8PD3Xq3FmrV6/W9u1xSkpKyrUqDQCuB3y+Aihtu3ec0uFDfyqopllhLQpf7NzplL7+/KAWzd0nu/28HhnSQA8PqV+iW0hJOYXTn3+uke68J9h9zGCQbuvgL7N3eU0cvVUH9p/W7zHH1KtP8EVGyiv5sE3vvLFDO+NOqm69Snp1XDPVv4zVMR4eUnBts54febMaNams9ybv1NbfTujXdUcvO5bLsX3rSc2YlrOzw+NP3ZRvQgcAJKlnr16aNOmNQre/nOdlF3NL8+YKCAjQ7t279e9/vainnn5GLVq0yDcBk52drcTERElSq9at5ePjk++YPpUry8vLS2lpaUo/lq6GN910WTEBKD6lmiAxlCuX7w+XwirveXnhe3h46Jlnn5XNZtXy5cs1d84czZ83T23atNHDjwwq8IfdxVgsmTpz5ox8KlWSf0DARdv+NWt9odbJ311INOQnKytL0z/5RN99922eVRpms1lmsznPNhgZGSd02mJRYECAKlasWJhLyuXC9Z22WPTE0Mcv2d5utxd4bYVVoUIFVa1aVUeOHLlk2xMZOR9y5cuX6lsZ16Hff/9NycnJcjqd+s+//33RtqmpKdq0cSMJEgD/aHy+ArjWZGe7FLk+TU6nS83D/Qpd7PzUSYemvbNLGyLSVLWaSa+Ob65b2/uXyhZODUMr67bb8/87sVlzXzVvUVVrV6Zq25aMQiclXK6cbcemTd0tyymHuvYI0nP/vvmqapnc3rWGotana0PEUe3cfqrYEiTJSTZNe3uXMk859NgTN+rW9sVfDwbA9e9KnpddTGhoqEaNGq0333xDO3fu1IgnhysgIFD9+vVTv379cn3R+uzZszr952lJ0uxZszR71qxLjl+YVSkASk6Z+6vXbDZr/ISJevChh7Ro0SJFrFun6OhoRUdHq3Xr1np93DgFBASWdph5OBwOvfP22/rxxx9kNpvVf8AAdejQUfXr11eVKlVkNBo1ZsxoLV+2LN/+3t7e+W5l9k9kNBpVwZzzLaLDhw4X2C47O1snM3L26w2plf/WYcCVyM7OVlRklJzOfDZqLsDGjdHqe8897n1GAeCfhs9XANeaP1LOKH7nKRmN5dSibbVCJTiOpmZp4phtit99Si1aVdVLY5vJP6BkV7dLUnCtnNV3NWpWkE/l/P8O8/CQaoXktMs8eVZZtvPyMl98CzGXK2dlzLxZiSpXzkMvjGysu+6pddXJH09PD9VrUEkbIo66twcrDhGrj+rQwT8lSXNnJmjuzIQC2562OHRfn5wal4OHNdSgofWLLS4A166rfV5WkHbt2+ubb7/T8mXLtHjxlzp06JCmT/9ECxbM1/MvvKB+/e4tcFcbANeWMpcgkXJWktx0U6gmTXpDNptNP//8s2bNnKHNmzdryuQpenPy5EI/5PQyecloNMp25oxOnTqlOnXqFNjWarW6twu73O0q9uzZrfXrI+Tj46N33nlX4S1aFKqfwZCzSufEiRM6c+aMKlXKf8l1dna2ztrzZrAvXJ+vr6/ee/8DNWnS5LLivhImk0l16tRRVGSkEhMTlZ2dne+2YxaLRSkpyTIajapXP29tFOBK7du3T3Fx21XBbNa777yr1m3aFNg2ImKdRr36qnbs2KFdu3bmKeYOAP8UfL4CuNbsjjuptLQs1a1XSQ1D89+y5K+Sk2x6/eVYJR226sFH6+vRJxqU+JZaF9Su6y2DwUOWU2dlP3PpxEcFs6fKXyJWl0taNHe/5s1OVM1gs8ZOan5ZW2pdyvnL+HIQAPxTXOnzssK4kHC5t39/JSTs1fTp0xUVGan3pk5V1arV1LFjx1z1jp955lkNHjKkyOYHUDJKtUj7P4HZbNb999+vsa+9JqPRqF27dmr//v2F7h9Yvbpq1Kih0xaLoqOjLtr2/9q7/7iq6juO428vgde4evkNDoMLooJLEdRHJqhL7NfcxLSyVra1+Whta+1XPZZY9nul1VbtsZVl9VBrD1OXztIAQ5NALQV9yNBZiCDcEuQK17xCl8HdHyTFLj8EEfRxXs/Hg38833PO95x/jve8z/fzOXr0qI6UlspisShuRPe+fjl+/LicTqdGjBzZbp3C+vp6Oeu8m9mHhYUpICBAx44d08GDBzo8vt1u16FD3l/vhIWHKzw8QnV1dfrii8+7NedzkZycLD8/Px06dEh2u73dMYdLSlRptysqKlqjRlG7Eb0nPy9PDodDsTGxGjlqVKdjx4wZK5vNplOnTmnXrl19NEMA6BmerwAuFo2NHu3Z3VLuL27kEIWGdb4KpLHRo7ffLNWR0i913cxh/RqOSFJ0zGCFhZl1tNylY8dOtzumsdGjw5+1lGUZGnmpfH07/xK5uKhWG9aVKSDQT79bOKZXw5H6+ib9p7jl92RwyPlbcXPHgrg2jeLb+3vx1ckaYvXTsMv89fbGNG37ZCarRwB0qKfvy7rjzIfWTz+9RJMnT1ZDQ4O2bdsq6ZuPkCTpyJFSeTyeczoXgL5n+IDkDJstRsHBwWpqalJT09n30LBarbrqqumSpHc3blRBQUG749xut9atXSuHw6Hk5PG6/PKercQ46XR61VOUWr5iLyws9Pr3uLg4xcfHy+12a+2aNXI6nV5jPB6PNv7rX7LbK722BQYGasLECWpubta6tWvb3f98SEwcp4SEBNntlcrKyvR6wLjdbr3zzj912uVS6pRUhXfR/wU4W06nUzt37pAkJSUnKTAwsNPxISEhmpySIknakZ/f7eZvANCXeL4CuFjUnvhKhz9tCQ8Sk4K6LCFVWnJSO/OqdFmURfN/1r/hiNRSWmvchBBVV9Vr3T+OyO32Xp1RvL9W+wodslh8dcXk0E6P5/FIWzbZdcLxldLn2jQuOahX55v34THt33virOYCABei7r4v64lBgwZpeFxLYPvt/rspKSmyWCzKy8tTYQfvBQFcuAwVkFRXV+v55/+i4uLiNr0FXC6X3t24UVVVVbLZbIqJiW3dZrFYWpuv527PVX19vddxZ6Wn64orrpDD4dADD/xRG9avl9vtbt1eUVGhRx5erHff3ajg4GDdPn9+t/sUhIaGymq1qqSkRK8tX97aXMrtdmv9O+/oxRde0MCBA732GzRokH44a5bMZrM+/vhjPfLwwyor+6bu+AmHQ08++YQ2bXpP0dHt1xmfNStdw4cPV0FBge751S/1ySeftLl/DQ0N2rVzpx555GFVVVV167o6YrVadeNNN8lsNmvlihV65ZVlrdd8wuHQ0qVLtHXrVsXFjdCcOXN75ZyAJP3n4EF9VlIii8WilK+Dj65MmjRJFotFZWVlKiraf55nCAA9x/MVwMWiouyUamoaNNjqp8ho/7MY79IJx1cKCTNr8JDuNSvfv++E5v1wq+66PU8V5WffxLczvr4DdMPNNoWFD1Lmpkr99dli1TpafiM2N0v5udV65on9Oul0a1raUF2e2BJ4eDzSW28c1rWpmXr2yaLWYOXUl40qLzslSYqydX0//t/2nGN6YvE+HSyuaxPWVFc16K/PHdCfnypSQ0OTZlwXqXHjgzs50tlzu5v17JNFujY1U2+9cVh8VA3gfOjp+7LObNiwwesjYY/Ho/379+uj3FyZTCZNnDixdVti4jilpc2Q0+nU/fffp9WrV7dpCt/c3KzS0lI9s3SJcnO3n+MVA+hthupB0tzcrO0ffqhVK1dKaimv5evrq7qvl9qFh4fr1/feK6v1m/q2FotF06ZNU2FBgTZv3qSsrEwFBgYqJiZWzz73nCwWi6xWqxY9+JAWP/SQ9u3bq8cff0yPP/6YgoOD5XK5WhPs8PBwZWQs0vjx47s99+9+93JdNX26NqxfrzVr3ta6dWsVEBDQOveb582To8ahLVuyvfa9+uprVFlRqZdffkm5uduVm7tdZrNZfgMH6qTTKX9/fy1cmKH8HfkqLy+Xv3/b/3BHR0drYUaGFmVk6MCBA/rF3T+XJK/ri4qK6tWlhNddd70qKiq0/NVX9cqyZXpl2bI224cNG6ZFDz6oyMjIXjsnkJOTo9MulxITEzVyZOfltc5ISBit+IQE7dm9W9lZ2UpNndJuXX8AuBDwfAVwMSg7ckqnXf9VVLRFQ79zaZfjP7e3lLHau6dGP5ie1eX4bzf9zt5kV3VVvaqr6rUjt0rz5sd2sffZGRk/RL/8TYL+vOTfem/DUb234ajXmGnTh+que+Jby2vVHP9KOVl2ud1N2plXpR/cEKX40VbVn26So6bld9ejGYV6NKPzcw+7RmNdjQAABVtJREFUzF/P/W2SwiJaymV5PB7lZNqVk9l+eUUfnwG66dZYLfjVqHNu+H5GacmX2plXJbe7STlZdl0zc5hCw7r3khIAunIu78s6cry6Wi+//JKeeupPMplMCgoKUm1trZqammQymTQrPV3XX//91vF+fn76zW9/q5qa48rPz9czS5fomaVLvN47StK4pKTeu3gAvcJQAYnValX67NnKzs5WeVmZXC6XfHx8FBMTo2nTvqfbbrtNQcHeX8vccsutMpl89I+33pTdbldtba0mTAjSJZd8c/siIyP16vLlysx8X2vXrNGnn34qh8MhHx8fjRo1SjNmXK0bb7xRQ6xdNxdsj6+vrxYtelBJ45K0ctVKHSktVV1dnWJiY3XH/Dv0/ZkztXjxQ+3uO2DAAN35058qMTFRq1atUmFhQeu1T5kyVXf/4m7Fxycof0e+JCkkOMTrGElJyVq9+m2tWLFC27ZtVUVFhRwOh8xms2JjY5U6ZYrmzJmriIiIHl1fe0wmk+666+caO3asXlv+mg4ePKCGhgZFREQoLW2GFixY0OP7CXRkz57dkqSk5OQ2YWlnLBaLUlNStWf3bhUXF8tut8tms53PaQJAj/F8BXAxOFresloiONQsf//z+7P1mpmR2r3ruKxWP02e2rulBafNGKoR8Va9+XqJduRVyVnnltnso5HxAZpzc7SmTB8q07fqOoSEDlTatZFa+dpnujI1XLFxg3tlHmPGBemW+cO186MqVVa41NTkkck0QBERg5Q0MUQ33GzT8BG9c64zYuMG68rUcG153660ayMVEko4AqD3ncv7so5MuvJKHT58WHv3FqqmpkY1NTUKCAjQ6NGjNW/eLZqckiKTqW1RHqvVqudfeLHNe0GXyyWTyaTw8AiNHTtWc+bO1YRebCIPoHcM8NA9CJJOnjypP/z+dyosLNR9992vW3/0o/6eEgAAAIDz6ETj/P6eAtAngnxX9fcUAADABcpQPUjQscrKSpWXl+tSf3/FxvbOknIAAAAAAAAAAC5UBCRQfX293nj9dTkcDo2Ii1N8QkJ/TwkAAAAAAAAAgPPKUD1IjOrDbdv0Qc4HSk9P15gxY2U2tzTqc7vd2rt3r176+99UVFQks9msH//kzrPuuwAAAAAAAAAAwMWKgMQAGv/bqPc3b9b7mzd3OMZqteqBhQs1derUPpwZAAAAAAAAAAD9gybtBuByuZSdlaUtW7J16NAh1dXVSZLMZrOibTbNSJuh2bNnKyg4uJ9nCgAAAKCv0KQdRkGTdgAA0BECEgAAAAAwIAISGAUBCQAA6AhN2gEAAAAAAAAAgOEQkAAAAAAAAAAAAMMhIAEAAAAAAAAAAIZDQAIAAAAAAAAAAAyHgAQAAAAAAAAAABgOAQkAAAAAAAAAADAcAhIAAAAAAAAAAGA4BCQAAAAAAAAAAMBwCEgAAAAAAAAAAIDhEJAAAAAAAAAAAADDISABAAAAAAAAAACGQ0ACAAAAAAAAAAAMZ4DH4/H09yQAAAAAAAAAAAD6EitIAAAAAAAAAACA4VzS0YaCgoK+nAcAAAAAAAAAAECfYQUJAAAAAAAAAAAwHHqQAAAAAAAAAAAAw2EFCQAAAAAAAAAAMBwCEgAAAAAAAAAAYDgEJAAAAAAAAAAAwHAISAAAAAAAAAAAgOEQkAAAAAAAAAAAAMMhIAEAAAAAAAAAAIZDQAIAAAAAAAAAAAyHgAQAAAAAAAAAABgOAQkAAAAAAAAAADAcAhIAAAAAAAAAAGA4BCQAAAAAAAAAAMBwCEgAAAAAAAAAAIDhEJAAAAAAAAAAAADDISABAAAAAAAAAACG8z9F8IRuOqL4wgAAAABJRU5ErkJggg==;" parent="yHopBrNq2CKKIhyN5AHE-2" vertex="1">
                    <mxGeometry x="-31890" y="-13610" width="1309" height="399.7" as="geometry"/>
                </mxCell>
                <mxCell id="LKdT17IyZ69jJRfu61l2-1" value="" style="edgeStyle=none;rounded=0;orthogonalLoop=1;jettySize=auto;html=1;exitX=1.007;exitY=0.271;exitDx=0;exitDy=0;fontFamily=Comic Sans MS;fontSize=25;fontColor=#000000;strokeColor=#001DBC;strokeWidth=6;fillColor=#0050ef;exitPerimeter=0;shadow=0;sketch=0;hachureGap=1;startArrow=none;startFill=0;endFill=0;endArrow=none;" parent="yHopBrNq2CKKIhyN5AHE-2" edge="1">
                    <mxGeometry relative="1" as="geometry">
                        <mxPoint x="-30560.004999999997" y="-13460" as="sourcePoint"/>
                        <mxPoint x="-30240" y="-13460" as="targetPoint"/>
                    </mxGeometry>
                </mxCell>
                <UserObject label="&lt;font style=&quot;font-weight: normal; font-size: 52px;&quot;&gt;Internet&lt;/font&gt;" tags="" id="2">
                    <mxCell style="ellipse;shape=cloud;whiteSpace=wrap;html=1;rounded=0;glass=0;labelBackgroundColor=default;sketch=0;fillStyle=auto;strokeColor=#000000;strokeWidth=8;fontFamily=Comic Sans MS;fontSize=31;fontColor=#000000;fillColor=none;gradientColor=none;opacity=70;fontStyle=1" vertex="1" parent="yHopBrNq2CKKIhyN5AHE-2">
                        <mxGeometry x="-27290" y="-13831.5" width="1080" height="184" as="geometry"/>
                    </mxCell>
                </UserObject>
                <mxCell id="3" value="" style="verticalLabelPosition=bottom;html=1;verticalAlign=top;align=center;strokeColor=none;fillColor=#00BEF2;shape=mxgraph.azure.user;dashed=1;strokeWidth=2;fontFamily=Comic Sans MS;fontSize=31;fontColor=#CC6600;" vertex="1" parent="yHopBrNq2CKKIhyN5AHE-2">
                    <mxGeometry x="-26695" y="-13922.5" width="77" height="75" as="geometry"/>
                </mxCell>
                <mxCell id="yHopBrNq2CKKIhyN5AHE-3" value="PLS-Standard-LB" parent="0"/>
                <mxCell id="344DAT9HO2-L15dEumNX-44" value="" style="rounded=0;whiteSpace=wrap;html=1;glass=0;labelBackgroundColor=none;labelBorderColor=none;comic=0;sketch=1;jiggle=2;fillStyle=solid;curveFitting=1;sketchStyle=rough;strokeColor=#CC00CC;strokeWidth=6;fontFamily=Comic Sans MS;fontSize=25;fillColor=none;disableMultiStrokeFill=1;disableMultiStroke=1;align=left;gradientColor=none;" parent="yHopBrNq2CKKIhyN5AHE-3" vertex="1">
                    <mxGeometry x="-28540" y="-13076" width="1274" height="949" as="geometry"/>
                </mxCell>
                <mxCell id="344DAT9HO2-L15dEumNX-45" value="" style="rounded=0;whiteSpace=wrap;html=1;fillColor=none;strokeColor=#0000CC;strokeWidth=5;fontFamily=Comic Sans MS;sketch=1;curveFitting=1;jiggle=2;disableMultiStrokeFill=1;disableMultiStroke=1;hachureGap=-1;fillWeight=-1;shadow=0;labelBackgroundColor=none;labelBorderColor=none;sketchStyle=rough;hachureAngle=-41;fillStyle=auto;" parent="yHopBrNq2CKKIhyN5AHE-3" vertex="1">
                    <mxGeometry x="-28369" y="-12998" width="930" height="698" as="geometry"/>
                </mxCell>
                <mxCell id="344DAT9HO2-L15dEumNX-46" value="" style="aspect=fixed;html=1;points=[];align=center;image;fontSize=12;image=img/lib/azure2/networking/Virtual_Networks.svg;rounded=0;glass=0;labelBackgroundColor=#66B2FF;sketch=1;fillStyle=hachure;fontFamily=Comic Sans MS;fontColor=#000000;opacity=70;shadow=1;labelBorderColor=none;fillWeight=-1;hachureGap=-1;jiggle=2;disableMultiStroke=1;disableMultiStrokeFill=1;sketchStyle=comic;strokeColor=#FFD966;strokeWidth=5;fillColor=#A9C4EB;" parent="yHopBrNq2CKKIhyN5AHE-3" vertex="1">
                    <mxGeometry x="-27630" y="-12972" width="129" height="77.01" as="geometry"/>
                </mxCell>
                <mxCell id="344DAT9HO2-L15dEumNX-47" value="&lt;font style=&quot;font-size: 25px;&quot;&gt;&lt;b&gt;red&lt;/b&gt;&lt;/font&gt;" style="rounded=0;whiteSpace=wrap;html=1;shadow=0;labelBackgroundColor=none;labelBorderColor=none;sketch=1;fillWeight=-1;hachureGap=-1;hachureAngle=-41;jiggle=2;disableMultiStroke=1;disableMultiStrokeFill=1;fillStyle=auto;curveFitting=1;sketchStyle=rough;strokeColor=#b85450;strokeWidth=5;fontFamily=Comic Sans MS;fontSize=12;fillColor=#f8cecc;gradientColor=#FF3333;" parent="yHopBrNq2CKKIhyN5AHE-3" vertex="1">
                    <mxGeometry x="-28182" y="-12472" width="120" height="60" as="geometry"/>
                </mxCell>
                <mxCell id="344DAT9HO2-L15dEumNX-48" value="&lt;b&gt;&lt;font style=&quot;font-size: 25px;&quot;&gt;green&lt;/font&gt;&lt;/b&gt;" style="rounded=0;whiteSpace=wrap;html=1;shadow=0;labelBackgroundColor=none;labelBorderColor=none;sketch=1;fillWeight=-1;hachureGap=-1;hachureAngle=-41;jiggle=2;disableMultiStroke=1;disableMultiStrokeFill=1;fillStyle=auto;curveFitting=1;sketchStyle=rough;strokeColor=#82b366;strokeWidth=5;fontFamily=Comic Sans MS;fontSize=12;fillColor=#d5e8d4;gradientColor=#4D9900;" parent="yHopBrNq2CKKIhyN5AHE-3" vertex="1">
                    <mxGeometry x="-28005" y="-12472.5" width="120" height="60" as="geometry"/>
                </mxCell>
                <mxCell id="344DAT9HO2-L15dEumNX-49" value="&lt;font style=&quot;font-size: 25px;&quot;&gt;&lt;b&gt;blue&lt;/b&gt;&lt;/font&gt;" style="rounded=0;whiteSpace=wrap;html=1;shadow=0;labelBackgroundColor=none;labelBorderColor=none;sketch=1;fillWeight=-1;hachureGap=-1;hachureAngle=-41;jiggle=2;disableMultiStroke=1;disableMultiStrokeFill=1;fillStyle=auto;curveFitting=1;sketchStyle=rough;strokeColor=#6c8ebf;strokeWidth=5;fontFamily=Comic Sans MS;fontSize=12;fillColor=#dae8fc;gradientColor=#007FFF;" parent="yHopBrNq2CKKIhyN5AHE-3" vertex="1">
                    <mxGeometry x="-27807" y="-12472" width="120" height="60" as="geometry"/>
                </mxCell>
                <mxCell id="344DAT9HO2-L15dEumNX-50" style="edgeStyle=none;sketch=0;jumpStyle=none;jumpSize=2;orthogonalLoop=1;jettySize=auto;html=1;shadow=0;strokeColor=#001DBC;strokeWidth=5;fontFamily=Comic Sans MS;fontSize=25;fontColor=#000000;startArrow=none;startFill=0;endArrow=none;endFill=0;rounded=0;fillColor=#0050ef;" parent="yHopBrNq2CKKIhyN5AHE-3" edge="1">
                    <mxGeometry relative="1" as="geometry">
                        <mxPoint x="-28369" y="-12855" as="sourcePoint"/>
                        <mxPoint x="-27429" y="-12855" as="targetPoint"/>
                    </mxGeometry>
                </mxCell>
                <mxCell id="344DAT9HO2-L15dEumNX-51" value="Web Subnet" style="text;html=1;align=center;verticalAlign=middle;resizable=0;points=[];autosize=1;strokeColor=none;fillColor=none;fontSize=34;fontFamily=Comic Sans MS;fontColor=#000000;strokeWidth=5;fontStyle=1" parent="yHopBrNq2CKKIhyN5AHE-3" vertex="1">
                    <mxGeometry x="-28371" y="-12573" width="230" height="50" as="geometry"/>
                </mxCell>
                <mxCell id="344DAT9HO2-L15dEumNX-52" value="GatewaySubnet" style="text;html=1;align=center;verticalAlign=middle;resizable=0;points=[];autosize=1;strokeColor=none;fillColor=none;fontSize=34;fontFamily=Comic Sans MS;fontColor=#000000;strokeWidth=5;fontStyle=1" parent="yHopBrNq2CKKIhyN5AHE-3" vertex="1">
                    <mxGeometry x="-28366" y="-12378" width="280" height="50" as="geometry"/>
                </mxCell>
                <mxCell id="344DAT9HO2-L15dEumNX-53" value="" style="aspect=fixed;html=1;points=[];align=center;image;fontSize=12;image=img/lib/azure2/networking/Load_Balancers.svg;rounded=0;shadow=0;labelBackgroundColor=none;labelBorderColor=none;sketch=1;fillWeight=-1;hachureGap=-1;hachureAngle=-41;jiggle=2;disableMultiStroke=1;disableMultiStrokeFill=1;fillStyle=auto;curveFitting=1;sketchStyle=rough;strokeColor=#6c8ebf;strokeWidth=5;fontFamily=Comic Sans MS;fontColor=rgb(0, 0, 0);fillColor=#A9C4EB;" parent="yHopBrNq2CKKIhyN5AHE-3" vertex="1">
                    <mxGeometry x="-27990" y="-12757" width="90" height="90" as="geometry"/>
                </mxCell>
                <mxCell id="344DAT9HO2-L15dEumNX-54" style="edgeStyle=none;rounded=0;orthogonalLoop=1;jettySize=auto;html=1;exitX=0.516;exitY=0.945;exitDx=0;exitDy=0;entryX=0.5;entryY=0;entryDx=0;entryDy=0;strokeColor=#2D7600;fontFamily=Comic Sans MS;fontSize=12;fontColor=#FF3333;exitPerimeter=0;startArrow=diamond;startFill=1;strokeWidth=5;" parent="yHopBrNq2CKKIhyN5AHE-3" source="344DAT9HO2-L15dEumNX-53" target="344DAT9HO2-L15dEumNX-47" edge="1">
                    <mxGeometry relative="1" as="geometry"/>
                </mxCell>
                <mxCell id="344DAT9HO2-L15dEumNX-55" style="edgeStyle=none;rounded=0;orthogonalLoop=1;jettySize=auto;html=1;exitX=0.522;exitY=0.967;exitDx=0;exitDy=0;strokeColor=#2D7600;fontFamily=Comic Sans MS;fontSize=12;fontColor=#FF3333;exitPerimeter=0;startArrow=diamond;startFill=1;strokeWidth=5;entryX=0.5;entryY=0;entryDx=0;entryDy=0;" parent="yHopBrNq2CKKIhyN5AHE-3" target="344DAT9HO2-L15dEumNX-48" edge="1">
                    <mxGeometry relative="1" as="geometry">
                        <mxPoint x="-27947.02" y="-12669.97" as="sourcePoint"/>
                        <mxPoint x="-27946.55" y="-12487" as="targetPoint"/>
                    </mxGeometry>
                </mxCell>
                <mxCell id="344DAT9HO2-L15dEumNX-56" style="edgeStyle=none;rounded=0;orthogonalLoop=1;jettySize=auto;html=1;entryX=0.5;entryY=0;entryDx=0;entryDy=0;strokeColor=#2D7600;fontFamily=Comic Sans MS;fontSize=12;fontColor=#FF3333;startArrow=diamond;startFill=1;strokeWidth=5;" parent="yHopBrNq2CKKIhyN5AHE-3" target="344DAT9HO2-L15dEumNX-49" edge="1">
                    <mxGeometry relative="1" as="geometry">
                        <mxPoint x="-27950" y="-12667" as="sourcePoint"/>
                        <mxPoint x="-28100" y="-12517" as="targetPoint"/>
                    </mxGeometry>
                </mxCell>
                <mxCell id="344DAT9HO2-L15dEumNX-57" value="" style="aspect=fixed;html=1;points=[];align=center;image;fontSize=12;image=img/lib/azure2/networking/Load_Balancers.svg;rounded=0;shadow=0;labelBackgroundColor=none;labelBorderColor=none;sketch=1;fillWeight=-1;hachureGap=-1;hachureAngle=-41;jiggle=2;disableMultiStroke=1;disableMultiStrokeFill=1;fillStyle=auto;curveFitting=1;sketchStyle=rough;strokeColor=#6c8ebf;strokeWidth=5;fontFamily=Comic Sans MS;fontColor=rgb(0, 0, 0);fillColor=#A9C4EB;" parent="yHopBrNq2CKKIhyN5AHE-3" vertex="1">
                    <mxGeometry x="-27990" y="-12757" width="90" height="90" as="geometry"/>
                </mxCell>
                <mxCell id="344DAT9HO2-L15dEumNX-58" style="edgeStyle=none;rounded=0;orthogonalLoop=1;jettySize=auto;html=1;exitX=0.516;exitY=0.945;exitDx=0;exitDy=0;entryX=0.5;entryY=0;entryDx=0;entryDy=0;strokeColor=#2D7600;fontFamily=Comic Sans MS;fontSize=12;fontColor=#FF3333;exitPerimeter=0;startArrow=diamond;startFill=1;strokeWidth=5;" parent="yHopBrNq2CKKIhyN5AHE-3" source="344DAT9HO2-L15dEumNX-57" edge="1">
                    <mxGeometry relative="1" as="geometry">
                        <mxPoint x="-28122" y="-12472" as="targetPoint"/>
                    </mxGeometry>
                </mxCell>
                <mxCell id="344DAT9HO2-L15dEumNX-59" style="edgeStyle=none;rounded=0;orthogonalLoop=1;jettySize=auto;html=1;entryX=0.5;entryY=0;entryDx=0;entryDy=0;strokeColor=#2D7600;fontFamily=Comic Sans MS;fontSize=12;fontColor=#FF3333;startArrow=diamond;startFill=1;strokeWidth=5;" parent="yHopBrNq2CKKIhyN5AHE-3" edge="1">
                    <mxGeometry relative="1" as="geometry">
                        <mxPoint x="-27950" y="-12667" as="sourcePoint"/>
                        <mxPoint x="-27747" y="-12472" as="targetPoint"/>
                    </mxGeometry>
                </mxCell>
                <mxCell id="344DAT9HO2-L15dEumNX-60" style="edgeStyle=none;rounded=0;orthogonalLoop=1;jettySize=auto;html=1;exitX=0.522;exitY=0.967;exitDx=0;exitDy=0;strokeColor=#2D7600;fontFamily=Comic Sans MS;fontSize=12;fontColor=#FF3333;exitPerimeter=0;startArrow=diamond;startFill=1;strokeWidth=5;entryX=0.5;entryY=0;entryDx=0;entryDy=0;" parent="yHopBrNq2CKKIhyN5AHE-3" edge="1">
                    <mxGeometry relative="1" as="geometry">
                        <mxPoint x="-27947.02" y="-12669.97" as="sourcePoint"/>
                        <mxPoint x="-27945" y="-12475.5" as="targetPoint"/>
                    </mxGeometry>
                </mxCell>
                <mxCell id="344DAT9HO2-L15dEumNX-61" value="" style="aspect=fixed;html=1;points=[];align=center;image;fontSize=12;image=img/lib/azure2/networking/Load_Balancers.svg;rounded=0;shadow=0;labelBackgroundColor=none;labelBorderColor=none;sketch=1;fillWeight=-1;hachureGap=-1;hachureAngle=-41;jiggle=2;disableMultiStroke=1;disableMultiStrokeFill=1;fillStyle=auto;curveFitting=1;sketchStyle=rough;strokeColor=#6c8ebf;strokeWidth=5;fontFamily=Comic Sans MS;fontColor=rgb(0, 0, 0);fillColor=#A9C4EB;" parent="yHopBrNq2CKKIhyN5AHE-3" vertex="1">
                    <mxGeometry x="-27990" y="-12757" width="90" height="90" as="geometry"/>
                </mxCell>
                <mxCell id="344DAT9HO2-L15dEumNX-62" style="edgeStyle=none;rounded=0;orthogonalLoop=1;jettySize=auto;html=1;exitX=0.516;exitY=0.945;exitDx=0;exitDy=0;entryX=0.5;entryY=0;entryDx=0;entryDy=0;strokeColor=#2D7600;fontFamily=Comic Sans MS;fontSize=12;fontColor=#FF3333;exitPerimeter=0;startArrow=diamond;startFill=1;strokeWidth=5;" parent="yHopBrNq2CKKIhyN5AHE-3" source="344DAT9HO2-L15dEumNX-61" edge="1">
                    <mxGeometry relative="1" as="geometry">
                        <mxPoint x="-28122" y="-12472" as="targetPoint"/>
                    </mxGeometry>
                </mxCell>
                <mxCell id="344DAT9HO2-L15dEumNX-63" style="edgeStyle=none;sketch=0;jumpStyle=none;jumpSize=2;orthogonalLoop=1;jettySize=auto;html=1;exitX=0.005;exitY=0.656;exitDx=0;exitDy=0;shadow=0;strokeColor=#001DBC;strokeWidth=5;fontFamily=Comic Sans MS;fontSize=25;fontColor=#000000;startArrow=none;startFill=0;endArrow=none;endFill=0;rounded=0;exitPerimeter=0;fillColor=#0050ef;" parent="yHopBrNq2CKKIhyN5AHE-3" edge="1">
                    <mxGeometry relative="1" as="geometry">
                        <mxPoint x="-28369" y="-12616.812" as="sourcePoint"/>
                        <mxPoint x="-27439" y="-12621" as="targetPoint"/>
                    </mxGeometry>
                </mxCell>
                <mxCell id="344DAT9HO2-L15dEumNX-64" style="edgeStyle=none;sketch=0;jumpStyle=none;jumpSize=2;orthogonalLoop=1;jettySize=auto;html=1;exitX=0.005;exitY=0.656;exitDx=0;exitDy=0;entryX=1.009;entryY=0.695;entryDx=0;entryDy=0;shadow=0;strokeColor=#001DBC;strokeWidth=5;fontFamily=Comic Sans MS;fontSize=25;fontColor=#000000;startArrow=none;startFill=0;endArrow=none;endFill=0;rounded=0;entryPerimeter=0;exitPerimeter=0;fillColor=#0050ef;" parent="yHopBrNq2CKKIhyN5AHE-3" edge="1">
                    <mxGeometry relative="1" as="geometry">
                        <mxPoint x="-28360" y="-12405.812" as="sourcePoint"/>
                        <mxPoint x="-27421.63" y="-12404.89" as="targetPoint"/>
                    </mxGeometry>
                </mxCell>
                <mxCell id="344DAT9HO2-L15dEumNX-65" value="NAT Subnet" style="text;html=1;align=center;verticalAlign=middle;resizable=0;points=[];autosize=1;strokeColor=none;fillColor=none;fontSize=34;fontFamily=Comic Sans MS;fontColor=#000000;strokeWidth=5;fontStyle=1" parent="yHopBrNq2CKKIhyN5AHE-3" vertex="1">
                    <mxGeometry x="-28358" y="-12915" width="230" height="50" as="geometry"/>
                </mxCell>
                <mxCell id="344DAT9HO2-L15dEumNX-66" value="" style="edgeStyle=none;sketch=0;jumpStyle=none;jumpSize=2;orthogonalLoop=1;jettySize=auto;html=1;exitX=0.005;exitY=0.656;exitDx=0;exitDy=0;shadow=0;strokeColor=#001DBC;strokeWidth=5;fontFamily=Comic Sans MS;fontSize=25;fontColor=#000000;startArrow=none;startFill=0;endArrow=none;endFill=0;rounded=0;exitPerimeter=0;fillColor=#0050ef;" parent="yHopBrNq2CKKIhyN5AHE-3" target="344DAT9HO2-L15dEumNX-65" edge="1">
                    <mxGeometry relative="1" as="geometry">
                        <mxPoint x="-28359" y="-12863.812" as="sourcePoint"/>
                        <mxPoint x="-27429" y="-12868" as="targetPoint"/>
                    </mxGeometry>
                </mxCell>
                <mxCell id="344DAT9HO2-L15dEumNX-68" style="edgeStyle=none;shape=connector;rounded=0;sketch=0;hachureGap=1;jumpStyle=none;jumpSize=2;orthogonalLoop=1;jettySize=auto;html=1;shadow=0;labelBackgroundColor=default;strokeColor=#FF8000;strokeWidth=5;fontFamily=Comic Sans MS;fontSize=31;fontColor=#CC6600;startArrow=none;startFill=0;endArrow=oval;endFill=1;targetPerimeterSpacing=1;endSize=23;exitX=0.299;exitY=-0.028;exitDx=0;exitDy=0;exitPerimeter=0;" parent="yHopBrNq2CKKIhyN5AHE-3" source="344DAT9HO2-L15dEumNX-61" edge="1">
                    <mxGeometry relative="1" as="geometry">
                        <mxPoint x="-28145" y="-12810" as="sourcePoint"/>
                        <mxPoint x="-29563" y="-13377" as="targetPoint"/>
                        <Array as="points"/>
                    </mxGeometry>
                </mxCell>
                <mxCell id="344DAT9HO2-L15dEumNX-69" value="&lt;font color=&quot;#ff8000&quot;&gt;&lt;b&gt;.5&lt;/b&gt;&lt;/font&gt;" style="text;html=1;align=center;verticalAlign=middle;resizable=0;points=[];autosize=1;strokeColor=none;fillColor=none;fontSize=48;fontFamily=Comic Sans MS;fontColor=#CC00CC;strokeWidth=5;" parent="yHopBrNq2CKKIhyN5AHE-3" vertex="1">
                    <mxGeometry x="-29659" y="-13425" width="70" height="70" as="geometry"/>
                </mxCell>
                <mxCell id="0INBZHWIvS8p_B03CbXm-14" value="" style="aspect=fixed;html=1;points=[];align=center;image;fontSize=12;image=img/lib/azure2/networking/Private_Link_Service.svg;" parent="yHopBrNq2CKKIhyN5AHE-3" vertex="1">
                    <mxGeometry x="-29494" y="-13410" width="114" height="66.09" as="geometry"/>
                </mxCell>
                <mxCell id="8" value="&lt;font color=&quot;#000000&quot; style=&quot;font-size: 60px; background-color: rgb(255, 255, 102);&quot;&gt;Different Azure Subscription or Tenant&lt;/font&gt;" style="text;html=1;align=center;verticalAlign=middle;resizable=0;points=[];autosize=1;strokeColor=none;fillColor=none;fontSize=31;fontFamily=Comic Sans MS;fontColor=#CC00CC;fillStyle=solid;strokeWidth=5;" vertex="1" parent="yHopBrNq2CKKIhyN5AHE-3">
                    <mxGeometry x="-28480" y="-13140" width="1150" height="90" as="geometry"/>
                </mxCell>
                <mxCell id="0INBZHWIvS8p_B03CbXm-119" value="AFD+PE" parent="0"/>
                <mxCell id="0INBZHWIvS8p_B03CbXm-123" value="" style="rounded=0;whiteSpace=wrap;html=1;glass=0;labelBackgroundColor=none;labelBorderColor=none;comic=0;sketch=1;jiggle=2;fillStyle=solid;curveFitting=1;sketchStyle=rough;strokeColor=#CC00CC;strokeWidth=6;fontFamily=Comic Sans MS;fontSize=25;fillColor=none;disableMultiStrokeFill=1;disableMultiStroke=1;align=left;gradientColor=none;" parent="0INBZHWIvS8p_B03CbXm-119" vertex="1">
                    <mxGeometry x="-28520" y="-14890" width="1274" height="949" as="geometry"/>
                </mxCell>
                <mxCell id="0INBZHWIvS8p_B03CbXm-19" value="" style="whiteSpace=wrap;html=1;fillColor=#dae8fc;strokeColor=#6c8ebf;labelBorderColor=#FF8000;strokeWidth=5;" parent="0INBZHWIvS8p_B03CbXm-119" vertex="1">
                    <mxGeometry x="-30180" y="-14689" width="470" height="260" as="geometry"/>
                </mxCell>
                <mxCell id="0INBZHWIvS8p_B03CbXm-126" style="edgeStyle=orthogonalEdgeStyle;curved=1;orthogonalLoop=1;jettySize=auto;html=1;exitX=0.5;exitY=1;exitDx=0;exitDy=0;entryX=-0.048;entryY=0.834;entryDx=0;entryDy=0;entryPerimeter=0;strokeColor=#FF00FF;strokeWidth=6;fontFamily=Comic Sans MS;fontSize=31;fontColor=#CC6600;sketch=0;hachureGap=1;shadow=0;startArrow=none;startFill=0;endFill=1;endSize=23;targetPerimeterSpacing=1;dashed=1;" parent="0INBZHWIvS8p_B03CbXm-119" source="0INBZHWIvS8p_B03CbXm-18" target="0INBZHWIvS8p_B03CbXm-16" edge="1">
                    <mxGeometry relative="1" as="geometry">
                        <Array as="points">
                            <mxPoint x="-29950" y="-14520"/>
                            <mxPoint x="-29834" y="-14520"/>
                        </Array>
                    </mxGeometry>
                </mxCell>
                <mxCell id="0INBZHWIvS8p_B03CbXm-18" value="" style="whiteSpace=wrap;html=1;fillColor=#d5e8d4;strokeColor=#82b366;labelBorderColor=#FF8000;strokeWidth=5;" parent="0INBZHWIvS8p_B03CbXm-119" vertex="1">
                    <mxGeometry x="-30090" y="-14949" width="280" height="170" as="geometry"/>
                </mxCell>
                <mxCell id="0INBZHWIvS8p_B03CbXm-15" value="" style="aspect=fixed;html=1;points=[];align=center;image;fontSize=12;image=img/lib/azure2/networking/Front_Doors.svg;" parent="0INBZHWIvS8p_B03CbXm-119" vertex="1">
                    <mxGeometry x="-30060" y="-14909" width="102" height="90" as="geometry"/>
                </mxCell>
                <mxCell id="0INBZHWIvS8p_B03CbXm-16" value="" style="aspect=fixed;html=1;points=[];align=center;image;fontSize=12;image=img/lib/azure2/networking/Private_Link.svg;" parent="0INBZHWIvS8p_B03CbXm-119" vertex="1">
                    <mxGeometry x="-29830" y="-14592" width="92" height="84.33" as="geometry"/>
                </mxCell>
                <mxCell id="0INBZHWIvS8p_B03CbXm-17" value="" style="aspect=fixed;html=1;points=[];align=center;image;fontSize=12;image=img/lib/azure2/networking/Web_Application_Firewall_Policies_WAF.svg;" parent="0INBZHWIvS8p_B03CbXm-119" vertex="1">
                    <mxGeometry x="-29950" y="-14909" width="80" height="80" as="geometry"/>
                </mxCell>
                <mxCell id="0INBZHWIvS8p_B03CbXm-120" value="&lt;font face=&quot;Comic Sans MS&quot; style=&quot;font-size: 40px;&quot;&gt;Manged VNET&lt;/font&gt;" style="text;html=1;align=center;verticalAlign=middle;resizable=0;points=[];autosize=1;strokeColor=none;fillColor=none;fontStyle=1" parent="0INBZHWIvS8p_B03CbXm-119" vertex="1">
                    <mxGeometry x="-30105" y="-14669" width="300" height="60" as="geometry"/>
                </mxCell>
                <mxCell id="0INBZHWIvS8p_B03CbXm-121" value="&lt;font face=&quot;Comic Sans MS&quot; style=&quot;font-size: 40px;&quot;&gt;Azure Front Door Premium&lt;/font&gt;" style="text;html=1;align=center;verticalAlign=middle;resizable=0;points=[];autosize=1;strokeColor=none;fillColor=none;fontStyle=1" parent="0INBZHWIvS8p_B03CbXm-119" vertex="1">
                    <mxGeometry x="-30175" y="-15070" width="540" height="60" as="geometry"/>
                </mxCell>
                <mxCell id="0INBZHWIvS8p_B03CbXm-93" value="" style="rounded=0;whiteSpace=wrap;html=1;fillColor=none;strokeColor=#0000CC;strokeWidth=5;fontFamily=Comic Sans MS;sketch=1;curveFitting=1;jiggle=2;disableMultiStrokeFill=1;disableMultiStroke=1;hachureGap=-1;fillWeight=-1;shadow=0;labelBackgroundColor=none;labelBorderColor=none;sketchStyle=rough;hachureAngle=-41;fillStyle=auto;" parent="0INBZHWIvS8p_B03CbXm-119" vertex="1">
                    <mxGeometry x="-28470" y="-14780" width="930" height="698" as="geometry"/>
                </mxCell>
                <mxCell id="0INBZHWIvS8p_B03CbXm-98" style="edgeStyle=none;sketch=0;jumpStyle=none;jumpSize=2;orthogonalLoop=1;jettySize=auto;html=1;shadow=0;strokeColor=#001DBC;strokeWidth=5;fontFamily=Comic Sans MS;fontSize=25;fontColor=#000000;startArrow=none;startFill=0;endArrow=none;endFill=0;rounded=0;fillColor=#0050ef;" parent="0INBZHWIvS8p_B03CbXm-119" edge="1">
                    <mxGeometry relative="1" as="geometry">
                        <mxPoint x="-28470" y="-14637" as="sourcePoint"/>
                        <mxPoint x="-27530" y="-14637" as="targetPoint"/>
                    </mxGeometry>
                </mxCell>
                <mxCell id="0INBZHWIvS8p_B03CbXm-111" style="edgeStyle=none;sketch=0;jumpStyle=none;jumpSize=2;orthogonalLoop=1;jettySize=auto;html=1;exitX=0.005;exitY=0.656;exitDx=0;exitDy=0;shadow=0;strokeColor=#001DBC;strokeWidth=5;fontFamily=Comic Sans MS;fontSize=25;fontColor=#000000;startArrow=none;startFill=0;endArrow=none;endFill=0;rounded=0;exitPerimeter=0;fillColor=#0050ef;" parent="0INBZHWIvS8p_B03CbXm-119" edge="1">
                    <mxGeometry relative="1" as="geometry">
                        <mxPoint x="-28470" y="-14432.812" as="sourcePoint"/>
                        <mxPoint x="-27540" y="-14437" as="targetPoint"/>
                    </mxGeometry>
                </mxCell>
                <mxCell id="0INBZHWIvS8p_B03CbXm-112" style="edgeStyle=none;sketch=0;jumpStyle=none;jumpSize=2;orthogonalLoop=1;jettySize=auto;html=1;exitX=0.005;exitY=0.656;exitDx=0;exitDy=0;entryX=1.009;entryY=0.695;entryDx=0;entryDy=0;shadow=0;strokeColor=#001DBC;strokeWidth=5;fontFamily=Comic Sans MS;fontSize=25;fontColor=#000000;startArrow=none;startFill=0;endArrow=none;endFill=0;rounded=0;entryPerimeter=0;exitPerimeter=0;fillColor=#0050ef;" parent="0INBZHWIvS8p_B03CbXm-119" edge="1">
                    <mxGeometry relative="1" as="geometry">
                        <mxPoint x="-28461" y="-14160.812" as="sourcePoint"/>
                        <mxPoint x="-27522.63" y="-14159.89" as="targetPoint"/>
                    </mxGeometry>
                </mxCell>
                <mxCell id="0INBZHWIvS8p_B03CbXm-117" value="" style="whiteSpace=wrap;html=1;strokeWidth=3;" parent="0INBZHWIvS8p_B03CbXm-119" vertex="1">
                    <mxGeometry x="-28290" y="-14360" width="520" height="190" as="geometry"/>
                </mxCell>
                <mxCell id="0INBZHWIvS8p_B03CbXm-94" value="" style="aspect=fixed;html=1;points=[];align=center;image;fontSize=12;image=img/lib/azure2/networking/Virtual_Networks.svg;rounded=0;glass=0;labelBackgroundColor=#66B2FF;sketch=1;fillStyle=hachure;fontFamily=Comic Sans MS;fontColor=#000000;opacity=70;shadow=1;labelBorderColor=none;fillWeight=-1;hachureGap=-1;jiggle=2;disableMultiStroke=1;disableMultiStrokeFill=1;sketchStyle=comic;strokeColor=#FFD966;strokeWidth=5;fillColor=#A9C4EB;" parent="0INBZHWIvS8p_B03CbXm-119" vertex="1">
                    <mxGeometry x="-27710" y="-14754" width="108" height="64.48" as="geometry"/>
                </mxCell>
                <mxCell id="0INBZHWIvS8p_B03CbXm-95" value="&lt;font style=&quot;font-size: 25px;&quot;&gt;&lt;b&gt;red&lt;/b&gt;&lt;/font&gt;" style="rounded=0;whiteSpace=wrap;html=1;shadow=0;labelBackgroundColor=none;labelBorderColor=none;sketch=1;fillWeight=-1;hachureGap=-1;hachureAngle=-41;jiggle=2;disableMultiStroke=1;disableMultiStrokeFill=1;fillStyle=auto;curveFitting=1;sketchStyle=rough;strokeColor=#b85450;strokeWidth=5;fontFamily=Comic Sans MS;fontSize=12;fillColor=#f8cecc;gradientColor=#FF3333;" parent="0INBZHWIvS8p_B03CbXm-119" vertex="1">
                    <mxGeometry x="-28283" y="-14254" width="120" height="60" as="geometry"/>
                </mxCell>
                <mxCell id="0INBZHWIvS8p_B03CbXm-96" value="&lt;b&gt;&lt;font style=&quot;font-size: 25px;&quot;&gt;green&lt;/font&gt;&lt;/b&gt;" style="rounded=0;whiteSpace=wrap;html=1;shadow=0;labelBackgroundColor=none;labelBorderColor=none;sketch=1;fillWeight=-1;hachureGap=-1;hachureAngle=-41;jiggle=2;disableMultiStroke=1;disableMultiStrokeFill=1;fillStyle=auto;curveFitting=1;sketchStyle=rough;strokeColor=#82b366;strokeWidth=5;fontFamily=Comic Sans MS;fontSize=12;fillColor=#d5e8d4;gradientColor=#4D9900;" parent="0INBZHWIvS8p_B03CbXm-119" vertex="1">
                    <mxGeometry x="-28106" y="-14254.5" width="120" height="60" as="geometry"/>
                </mxCell>
                <mxCell id="0INBZHWIvS8p_B03CbXm-97" value="&lt;font style=&quot;font-size: 25px;&quot;&gt;&lt;b&gt;blue&lt;/b&gt;&lt;/font&gt;" style="rounded=0;whiteSpace=wrap;html=1;shadow=0;labelBackgroundColor=none;labelBorderColor=none;sketch=1;fillWeight=-1;hachureGap=-1;hachureAngle=-41;jiggle=2;disableMultiStroke=1;disableMultiStrokeFill=1;fillStyle=auto;curveFitting=1;sketchStyle=rough;strokeColor=#6c8ebf;strokeWidth=5;fontFamily=Comic Sans MS;fontSize=12;fillColor=#dae8fc;gradientColor=#007FFF;" parent="0INBZHWIvS8p_B03CbXm-119" vertex="1">
                    <mxGeometry x="-27908" y="-14254" width="120" height="60" as="geometry"/>
                </mxCell>
                <mxCell id="0INBZHWIvS8p_B03CbXm-99" value="&lt;b&gt;AKS Subnet&lt;/b&gt;" style="text;html=1;align=center;verticalAlign=middle;resizable=0;points=[];autosize=1;strokeColor=none;fillColor=none;fontSize=34;fontFamily=Comic Sans MS;fontColor=#000000;strokeWidth=5;" parent="0INBZHWIvS8p_B03CbXm-119" vertex="1">
                    <mxGeometry x="-28477" y="-14405" width="220" height="50" as="geometry"/>
                </mxCell>
                <mxCell id="0INBZHWIvS8p_B03CbXm-100" value="GatewaySubnet" style="text;html=1;align=center;verticalAlign=middle;resizable=0;points=[];autosize=1;strokeColor=none;fillColor=none;fontSize=34;fontFamily=Comic Sans MS;fontColor=#000000;strokeWidth=5;" parent="0INBZHWIvS8p_B03CbXm-119" vertex="1">
                    <mxGeometry x="-28470" y="-14165" width="285" height="60" as="geometry"/>
                </mxCell>
                <mxCell id="0INBZHWIvS8p_B03CbXm-101" value="" style="aspect=fixed;html=1;points=[];align=center;image;fontSize=12;image=img/lib/azure2/networking/Load_Balancers.svg;rounded=0;shadow=0;labelBackgroundColor=none;labelBorderColor=none;sketch=1;fillWeight=-1;hachureGap=-1;hachureAngle=-41;jiggle=2;disableMultiStroke=1;disableMultiStrokeFill=1;fillStyle=auto;curveFitting=1;sketchStyle=rough;strokeColor=#6c8ebf;strokeWidth=5;fontFamily=Comic Sans MS;fontColor=rgb(0, 0, 0);fillColor=#A9C4EB;" parent="0INBZHWIvS8p_B03CbXm-119" vertex="1">
                    <mxGeometry x="-28091" y="-14539" width="90" height="90" as="geometry"/>
                </mxCell>
                <mxCell id="0INBZHWIvS8p_B03CbXm-105" value="" style="aspect=fixed;html=1;points=[];align=center;image;fontSize=12;image=img/lib/azure2/networking/Load_Balancers.svg;rounded=0;shadow=0;labelBackgroundColor=none;labelBorderColor=none;sketch=1;fillWeight=-1;hachureGap=-1;hachureAngle=-41;jiggle=2;disableMultiStroke=1;disableMultiStrokeFill=1;fillStyle=auto;curveFitting=1;sketchStyle=rough;strokeColor=#6c8ebf;strokeWidth=5;fontFamily=Comic Sans MS;fontColor=rgb(0, 0, 0);fillColor=#A9C4EB;" parent="0INBZHWIvS8p_B03CbXm-119" vertex="1">
                    <mxGeometry x="-28091" y="-14539" width="90" height="90" as="geometry"/>
                </mxCell>
                <mxCell id="0INBZHWIvS8p_B03CbXm-109" value="" style="aspect=fixed;html=1;points=[];align=center;image;fontSize=12;image=img/lib/azure2/networking/Load_Balancers.svg;rounded=0;shadow=0;labelBackgroundColor=none;labelBorderColor=none;sketch=1;fillWeight=-1;hachureGap=-1;hachureAngle=-41;jiggle=2;disableMultiStroke=1;disableMultiStrokeFill=1;fillStyle=auto;curveFitting=1;sketchStyle=rough;strokeColor=#6c8ebf;strokeWidth=5;fontFamily=Comic Sans MS;fontColor=rgb(0, 0, 0);fillColor=#A9C4EB;" parent="0INBZHWIvS8p_B03CbXm-119" vertex="1">
                    <mxGeometry x="-28091" y="-14537" width="90" height="90" as="geometry"/>
                </mxCell>
                <mxCell id="0INBZHWIvS8p_B03CbXm-113" value="&lt;b&gt;NAT Subnet&lt;/b&gt;" style="text;html=1;align=center;verticalAlign=middle;resizable=0;points=[];autosize=1;strokeColor=none;fillColor=none;fontSize=34;fontFamily=Comic Sans MS;fontColor=#000000;strokeWidth=5;" parent="0INBZHWIvS8p_B03CbXm-119" vertex="1">
                    <mxGeometry x="-28459" y="-14697" width="230" height="50" as="geometry"/>
                </mxCell>
                <mxCell id="0INBZHWIvS8p_B03CbXm-114" value="" style="edgeStyle=none;sketch=0;jumpStyle=none;jumpSize=2;orthogonalLoop=1;jettySize=auto;html=1;exitX=0.005;exitY=0.656;exitDx=0;exitDy=0;shadow=0;strokeColor=#001DBC;strokeWidth=5;fontFamily=Comic Sans MS;fontSize=25;fontColor=#000000;startArrow=none;startFill=0;endArrow=none;endFill=0;rounded=0;exitPerimeter=0;fillColor=#0050ef;" parent="0INBZHWIvS8p_B03CbXm-119" target="0INBZHWIvS8p_B03CbXm-113" edge="1">
                    <mxGeometry relative="1" as="geometry">
                        <mxPoint x="-28460" y="-14645.812" as="sourcePoint"/>
                        <mxPoint x="-27530" y="-14650" as="targetPoint"/>
                    </mxGeometry>
                </mxCell>
                <mxCell id="0INBZHWIvS8p_B03CbXm-115" value="" style="aspect=fixed;html=1;points=[];align=center;image;fontSize=12;image=img/lib/azure2/compute/Kubernetes_Services.svg;strokeWidth=6;" parent="0INBZHWIvS8p_B03CbXm-119" vertex="1">
                    <mxGeometry x="-28091" y="-14355" width="90.67" height="80" as="geometry"/>
                </mxCell>
                <mxCell id="0INBZHWIvS8p_B03CbXm-118" style="edgeStyle=none;shape=connector;rounded=0;sketch=0;hachureGap=1;jumpStyle=none;jumpSize=2;orthogonalLoop=1;jettySize=auto;html=1;shadow=0;labelBackgroundColor=default;strokeColor=#FF8000;strokeWidth=5;fontFamily=Comic Sans MS;fontSize=31;fontColor=#CC6600;startArrow=none;startFill=0;endArrow=oval;endFill=1;targetPerimeterSpacing=1;endSize=23;" parent="0INBZHWIvS8p_B03CbXm-119" source="0INBZHWIvS8p_B03CbXm-109" edge="1">
                    <mxGeometry relative="1" as="geometry">
                        <mxPoint x="-28660.325" y="-13781.46" as="sourcePoint"/>
                        <mxPoint x="-29690" y="-14580" as="targetPoint"/>
                        <Array as="points"/>
                    </mxGeometry>
                </mxCell>
                <mxCell id="0INBZHWIvS8p_B03CbXm-124" value="&lt;font color=&quot;#000000&quot; style=&quot;font-size: 60px; background-color: rgb(255, 255, 102);&quot;&gt;Different Azure Subscription or Tenant&lt;/font&gt;" style="text;html=1;align=center;verticalAlign=middle;resizable=0;points=[];autosize=1;strokeColor=none;fillColor=none;fontSize=31;fontFamily=Comic Sans MS;fontColor=#CC00CC;fillStyle=solid;strokeWidth=5;" parent="0INBZHWIvS8p_B03CbXm-119" vertex="1">
                    <mxGeometry x="-28457.5" y="-14969" width="1150" height="90" as="geometry"/>
                </mxCell>
                <mxCell id="0INBZHWIvS8p_B03CbXm-125" style="edgeStyle=orthogonalEdgeStyle;orthogonalLoop=1;jettySize=auto;html=1;entryX=0.5;entryY=0;entryDx=0;entryDy=0;fontFamily=Comic Sans MS;fontSize=31;curved=1;strokeColor=#FF00FF;fontColor=#CC6600;sketch=0;hachureGap=1;shadow=0;strokeWidth=6;startArrow=none;startFill=0;endFill=1;endSize=23;targetPerimeterSpacing=1;dashed=1;" parent="0INBZHWIvS8p_B03CbXm-119" target="0INBZHWIvS8p_B03CbXm-18" edge="1">
                    <mxGeometry relative="1" as="geometry">
                        <mxPoint x="-28850" y="-15333" as="sourcePoint"/>
                        <Array as="points">
                            <mxPoint x="-29950" y="-15333"/>
                        </Array>
                    </mxGeometry>
                </mxCell>
                <mxCell id="0INBZHWIvS8p_B03CbXm-127" style="edgeStyle=orthogonalEdgeStyle;curved=1;orthogonalLoop=1;jettySize=auto;html=1;exitX=0.84;exitY=0.28;exitDx=0;exitDy=0;exitPerimeter=0;entryX=0.369;entryY=0.39;entryDx=0;entryDy=0;entryPerimeter=0;strokeColor=#FF0000;strokeWidth=7;fontFamily=Comic Sans MS;fontSize=31;fontColor=#CC6600;sketch=0;hachureGap=1;shadow=0;startArrow=none;startFill=0;endFill=1;endSize=23;targetPerimeterSpacing=1;dashed=1;" parent="0INBZHWIvS8p_B03CbXm-119" source="344DAT9HO2-L15dEumNX-25" target="0INBZHWIvS8p_B03CbXm-123" edge="1">
                    <mxGeometry relative="1" as="geometry"/>
                </mxCell>
                <mxCell id="0INBZHWIvS8p_B03CbXm-128" value="&lt;font face=&quot;Comic Sans MS&quot; style=&quot;font-size: 51px;&quot;&gt;Origin&lt;/font&gt;" style="text;html=1;align=center;verticalAlign=middle;resizable=0;points=[];autosize=1;strokeColor=none;fillColor=none;fontStyle=1;fontSize=51;" parent="0INBZHWIvS8p_B03CbXm-119" vertex="1">
                    <mxGeometry x="-28276" y="-14580" width="170" height="80" as="geometry"/>
                </mxCell>
                <mxCell id="0INBZHWIvS8p_B03CbXm-130" value="&lt;font face=&quot;Comic Sans MS&quot; style=&quot;font-size: 40px;&quot;&gt;AKS Private Cluster&lt;/font&gt;" style="text;html=1;align=center;verticalAlign=middle;resizable=0;points=[];autosize=1;strokeColor=none;fillColor=none;fontStyle=1" parent="0INBZHWIvS8p_B03CbXm-119" vertex="1">
                    <mxGeometry x="-28210" y="-14410" width="410" height="60" as="geometry"/>
                </mxCell>
                <mxCell id="KPlWDAnPWZOycdJwZjgU-5" value="Private DNS Zones" parent="0"/>
                <mxCell id="KPlWDAnPWZOycdJwZjgU-4" value="TODO: Configs+links" parent="0"/>
                <mxCell id="rJedpJ2aLzItVIumXOlY-1" value="TODO: PLS-App-FW" parent="0"/>
            </root>
        </mxGraphModel>
    </diagram>
</mxfile>